Dinish-ExpandedSemiBold.ufo
<glyph name="exclam" format="2">
  <advance width="251"/>
  <unicode hex="0021"/>
  <outline>
    <contour>
      <point x="83" y="227.667" type="line"/>
      <point x="169" y="227.667" type="line"/>
      <point x="191.333" y="707" type="line"/>
      <point x="60.333" y="707" type="line"/>
    </contour>
    <contour>
      <point x="63.667" y="0" type="line"/>
      <point x="188" y="0" type="line"/>
      <point x="188" y="124" type="line"/>
      <point x="63.667" y="124" type="line"/>
    </contour>
  </outline>
</glyph>
<glyph name="quotedbl" format="2">
  <advance width="385"/>
  <unicode hex="0022"/>
  <outline>
    <contour>
      <point x="42.333" y="417.333" type="line"/>
      <point x="150" y="417.333" type="line"/>
      <point x="150" y="707" type="line"/>
      <point x="42.333" y="707" type="line"/>
    </contour>
    <contour>
      <point x="236.333" y="417.333" type="line"/>
      <point x="343.667" y="417.333" type="line"/>
      <point x="343.667" y="707" type="line"/>
      <point x="236.333" y="707" type="line"/>
    </contour>
  </outline>
</glyph>
<glyph name="numbersign" format="2">
  <advance width="610"/>
  <unicode hex="0023"/>
  <outline>
    <contour>
      <point x="102.333" y="0" type="line"/>
      <point x="197.667" y="0" type="line"/>
      <point x="225.333" y="213" type="line"/>
      <point x="345.667" y="213" type="line"/>
      <point x="317.333" y="0" type="line"/>
      <point x="413.667" y="0" type="line"/>
      <point x="442" y="213" type="line"/>
      <point x="562.667" y="213" type="line"/>
      <point x="562.667" y="298.667" type="line"/>
      <point x="452.667" y="298.667" type="line"/>
      <point x="468" y="421.667" type="line"/>
      <point x="590.333" y="421.667" type="line"/>
      <point x="590.333" y="507" type="line"/>
      <point x="479.667" y="507" type="line"/>
      <point x="505" y="707" type="line"/>
      <point x="410.667" y="707" type="line"/>
      <point x="384.333" y="507" type="line"/>
      <point x="264" y="507" type="line"/>
      <point x="290" y="707" type="line"/>
      <point x="195" y="707" type="line"/>
      <point x="169.333" y="507" type="line"/>
      <point x="47.333" y="507" type="line"/>
      <point x="47.333" y="421.667" type="line"/>
      <point x="158.333" y="421.667" type="line"/>
      <point x="141.333" y="298.667" type="line"/>
      <point x="20" y="298.667" type="line"/>
      <point x="20" y="213" type="line"/>
      <point x="130.333" y="213" type="line"/>
    </contour>
    <contour>
      <point x="237" y="298.667" type="line"/>
      <point x="253.333" y="421.667" type="line"/>
      <point x="373.667" y="421.667" type="line"/>
      <point x="356.667" y="298.667" type="line"/>
    </contour>
  </outline>
</glyph>
<glyph name="dollar" format="2">
  <advance width="542"/>
  <unicode hex="0024"/>
  <outline>
    <contour>
      <point x="226" y="-60.667" type="line"/>
      <point x="309.667" y="-60.667" type="line"/>
      <point x="309.667" y="32" type="line"/>
      <point x="435.549" y="44.589"/>
      <point x="506.333" y="113.932"/>
      <point x="506.333" y="224.667" type="curve" smooth="yes"/>
      <point x="506.333" y="327.001"/>
      <point x="449.116" y="386.438"/>
      <point x="334.333" y="403.333" type="curve" smooth="yes"/>
      <point x="261.902" y="413.85" type="line" smooth="yes"/>
      <point x="188.209" y="424.886"/>
      <point x="157" y="450.46"/>
      <point x="157" y="499.667" type="curve" smooth="yes"/>
      <point x="157" y="553.964"/>
      <point x="195.988" y="583.274"/>
      <point x="268.204" y="583.274" type="curve" smooth="yes"/>
      <point x="343.887" y="583.274"/>
      <point x="382.054" y="554.209"/>
      <point x="387.667" y="492.333" type="curve"/>
      <point x="496" y="492.333" type="line"/>
      <point x="488.498" y="601.731"/>
      <point x="422.97" y="667.144"/>
      <point x="309.667" y="678.333" type="curve"/>
      <point x="309.667" y="758.333" type="line"/>
      <point x="226" y="758.333" type="line"/>
      <point x="226" y="677.333" type="line"/>
      <point x="111.596" y="664.029"/>
      <point x="45" y="595.351"/>
      <point x="45" y="490.667" type="curve" smooth="yes"/>
      <point x="45" y="390.832"/>
      <point x="104.06" y="333.44"/>
      <point x="225.333" y="315.333" type="curve" smooth="yes"/>
      <point x="303" y="303.667" type="line" smooth="yes"/>
      <point x="367.492" y="293.744"/>
      <point x="393.667" y="268.621"/>
      <point x="393.667" y="216.667" type="curve" smooth="yes"/>
      <point x="393.667" y="158.453"/>
      <point x="351.608" y="127.459"/>
      <point x="272.579" y="127.459" type="curve" smooth="yes"/>
      <point x="185.067" y="127.459"/>
      <point x="144.171" y="157.569"/>
      <point x="136.333" y="227.667" type="curve"/>
      <point x="30" y="227.667" type="line"/>
      <point x="35.766" y="111.031"/>
      <point x="104.403" y="42.137"/>
      <point x="226" y="31" type="curve"/>
    </contour>
  </outline>
</glyph>
<glyph name="ampersand" format="2">
  <advance width="680"/>
  <unicode hex="0026"/>
  <outline>
    <contour>
      <point x="464" y="225.667" type="line"/>
      <point x="341" y="370" type="line"/>
      <point x="442.63" y="434.426"/>
      <point x="478.667" y="482.585"/>
      <point x="478.667" y="554" type="curve" smooth="yes"/>
      <point x="478.667" y="652.789"/>
      <point x="404.307" y="720"/>
      <point x="295" y="720" type="curve" smooth="yes"/>
      <point x="186.656" y="720"/>
      <point x="112.333" y="652.574"/>
      <point x="112.333" y="554.333" type="curve" smooth="yes"/>
      <point x="112.333" y="503.131"/>
      <point x="131.918" y="461.177"/>
      <point x="188.333" y="391.333" type="curve"/>
      <point x="92.013" y="330.08"/>
      <point x="49" y="265.992"/>
      <point x="49" y="183.667" type="curve" smooth="yes"/>
      <point x="49" y="64.267"/>
      <point x="132.422" y="-13"/>
      <point x="261.333" y="-13" type="curve" smooth="yes"/>
      <point x="337.141" y="-13"/>
      <point x="396.942" y="13.019"/>
      <point x="456" y="71.667" type="curve"/>
      <point x="464.333" y="61" type="line" smooth="yes"/>
      <point x="502.041" y="13.763"/>
      <point x="532.941" y="0"/>
      <point x="583" y="0" type="curve" smooth="yes"/>
      <point x="631.333" y="0" type="line"/>
      <point x="631.333" y="100" type="line"/>
      <point x="609" y="100" type="line" smooth="yes"/>
      <point x="580.967" y="100"/>
      <point x="563.424" y="107.989"/>
      <point x="542.333" y="133" type="curve" smooth="yes"/>
      <point x="527.333" y="150.667" type="line"/>
      <point x="628" y="265" type="line"/>
      <point x="556" y="330" type="line"/>
    </contour>
    <contour>
      <point x="280" y="442" type="curve"/>
      <point x="241.568" y="487.603"/>
      <point x="219.667" y="523.173"/>
      <point x="219.667" y="558" type="curve" smooth="yes"/>
      <point x="219.667" y="602.406"/>
      <point x="248.984" y="630.333"/>
      <point x="295.667" y="630.333" type="curve" smooth="yes"/>
      <point x="342.443" y="630.333"/>
      <point x="373" y="601.09"/>
      <point x="373" y="556.333" type="curve" smooth="yes"/>
      <point x="373" y="513.15"/>
      <point x="338.334" y="478.675"/>
    </contour>
    <contour>
      <point x="393.667" y="146.667" type="line"/>
      <point x="349.673" y="103.541"/>
      <point x="313.152" y="86"/>
      <point x="267.333" y="86" type="curve" smooth="yes"/>
      <point x="200.108" y="86"/>
      <point x="158.333" y="125.077"/>
      <point x="158.333" y="188" type="curve" smooth="yes"/>
      <point x="158.333" y="235.753"/>
      <point x="184.893" y="272.555"/>
      <point x="251" y="316.333" type="curve"/>
    </contour>
  </outline>
</glyph>
<glyph name="quotesingle" format="2">
  <advance width="192"/>
  <unicode hex="0027"/>
  <outline>
    <contour>
      <point x="42.333" y="417.333" type="line"/>
      <point x="150" y="417.333" type="line"/>
      <point x="150" y="707" type="line"/>
      <point x="42.333" y="707" type="line"/>
    </contour>
  </outline>
</glyph>
<glyph name="parenleft" format="2">
  <advance width="327"/>
  <unicode hex="0028"/>
  <outline>
    <contour>
      <point x="278.333" y="-86" type="line"/>
      <point x="202.898" y="35.072"/>
      <point x="162" y="183.207"/>
      <point x="162" y="336" type="curve" smooth="yes"/>
      <point x="162" y="487.297"/>
      <point x="203.295" y="636.007"/>
      <point x="279" y="758" type="curve"/>
      <point x="192.333" y="758" type="line"/>
      <point x="98.003" y="638.755"/>
      <point x="49" y="494.707"/>
      <point x="49" y="336.667" type="curve" smooth="yes"/>
      <point x="49" y="181.705"/>
      <point x="97.723" y="37.02"/>
      <point x="191.333" y="-86" type="curve"/>
    </contour>
  </outline>
</glyph>
<glyph name="parenright" format="2">
  <advance width="327"/>
  <unicode hex="0029"/>
  <outline>
    <contour>
      <point x="136.333" y="-86" type="line"/>
      <point x="230.407" y="36.46"/>
      <point x="279" y="180.417"/>
      <point x="279" y="336.667" type="curve" smooth="yes"/>
      <point x="279" y="493.51"/>
      <point x="229.856" y="637.635"/>
      <point x="135.333" y="758" type="curve"/>
      <point x="49" y="758" type="line"/>
      <point x="124.867" y="636.428"/>
      <point x="166" y="488.257"/>
      <point x="166" y="336" type="curve" smooth="yes"/>
      <point x="166" y="184.925"/>
      <point x="124.825" y="36.54"/>
      <point x="49" y="-86" type="curve"/>
    </contour>
  </outline>
</glyph>
<glyph name="asterisk" format="2">
  <advance width="422"/>
  <unicode hex="002A"/>
  <outline>
    <contour>
      <point x="77" y="457.333" type="line"/>
      <point x="179" y="509.333" type="line"/>
      <point x="179" y="404.333" type="line"/>
      <point x="244.667" y="404.333" type="line"/>
      <point x="244.667" y="508.667" type="line"/>
      <point x="346" y="457.333" type="line"/>
      <point x="374.667" y="509.333" type="line"/>
      <point x="277.667" y="557.667" type="line"/>
      <point x="373.667" y="605.333" type="line"/>
      <point x="346.667" y="657.333" type="line"/>
      <point x="244.667" y="605.333" type="line"/>
      <point x="244.667" y="707" type="line"/>
      <point x="179" y="707" type="line"/>
      <point x="179" y="606.333" type="line"/>
      <point x="77" y="657.333" type="line"/>
      <point x="49" y="605.333" type="line"/>
      <point x="145.333" y="557.333" type="line"/>
      <point x="49" y="509.333" type="line"/>
    </contour>
  </outline>
</glyph>
<glyph name="plus" format="2">
  <advance width="534"/>
  <unicode hex="002B"/>
  <outline>
    <contour>
      <point x="50.667" y="230" type="line"/>
      <point x="215" y="230" type="line"/>
      <point x="215" y="65.333" type="line"/>
      <point x="320.667" y="65.333" type="line"/>
      <point x="320.667" y="230" type="line"/>
      <point x="484.333" y="230" type="line"/>
      <point x="484.333" y="335.333" type="line"/>
      <point x="320.667" y="335.333" type="line"/>
      <point x="320.667" y="499.667" type="line"/>
      <point x="215" y="499.667" type="line"/>
      <point x="215" y="335.333" type="line"/>
      <point x="50.667" y="335.333" type="line"/>
    </contour>
  </outline>
</glyph>
<glyph name="hyphen" format="2">
  <advance width="417"/>
  <unicode hex="002D"/>
  <outline>
    <contour>
      <point x="49" y="301" type="line"/>
      <point x="369" y="301" type="line"/>
      <point x="369" y="407.333" type="line"/>
      <point x="49" y="407.333" type="line"/>
    </contour>
  </outline>
</glyph>
<glyph name="slash" format="2">
  <advance width="449"/>
  <unicode hex="002F"/>
  <outline>
    <contour>
      <point x="49" y="-10" type="line"/>
      <point x="145.333" y="-10" type="line"/>
      <point x="401.667" y="711" type="line"/>
      <point x="304.667" y="711" type="line"/>
    </contour>
  </outline>
</glyph>
<glyph name="zero" format="2">
  <advance width="572"/>
  <unicode hex="0030"/>
  <outline>
    <contour>
      <point x="290" y="-10.667" type="curve" smooth="yes"/>
      <point x="443.2" y="-10.667"/>
      <point x="521.333" y="76.723"/>
      <point x="521.333" y="248" type="curve" smooth="yes"/>
      <point x="521.333" y="466" type="line" smooth="yes"/>
      <point x="521.333" y="632.758"/>
      <point x="443.303" y="717.667"/>
      <point x="290" y="717.667" type="curve" smooth="yes"/>
      <point x="137.366" y="717.667"/>
      <point x="58" y="631.585"/>
      <point x="58" y="466" type="curve" smooth="yes"/>
      <point x="58" y="248" type="line" smooth="yes"/>
      <point x="58" y="76.426"/>
      <point x="136.076" y="-10.667"/>
    </contour>
    <contour>
      <point x="290" y="94.333" type="curve" smooth="yes"/>
      <point x="212.196" y="94.333"/>
      <point x="179.333" y="142.822"/>
      <point x="179.333" y="257.667" type="curve" smooth="yes"/>
      <point x="179.333" y="448.667" type="line" smooth="yes"/>
      <point x="179.333" y="563.274"/>
      <point x="212.038" y="611.333"/>
      <point x="290" y="611.333" type="curve" smooth="yes"/>
      <point x="368.078" y="611.333"/>
      <point x="401" y="563.107"/>
      <point x="401" y="448.667" type="curve" smooth="yes"/>
      <point x="401" y="257.667" type="line" smooth="yes"/>
      <point x="401" y="144.653"/>
      <point x="366.788" y="94.333"/>
    </contour>
  </outline>
</glyph>
<glyph name="one" format="2">
  <advance width="382"/>
  <unicode hex="0031"/>
  <outline>
    <contour>
      <point x="190.333" y="0" type="line"/>
      <point x="311.333" y="0" type="line"/>
      <point x="311.333" y="707" type="line"/>
      <point x="190.333" y="707" type="line"/>
      <point x="40" y="614.667" type="line"/>
      <point x="40" y="489.667" type="line"/>
      <point x="190.333" y="579" type="line"/>
    </contour>
  </outline>
</glyph>
<glyph name="two" format="2">
  <advance width="552"/>
  <unicode hex="0032"/>
  <outline>
    <contour>
      <point x="55.667" y="0" type="line"/>
      <point x="507" y="0" type="line"/>
      <point x="507" y="106" type="line"/>
      <point x="218" y="106" type="line"/>
      <point x="414.667" y="319" type="line" smooth="yes"/>
      <point x="477.843" y="386.088"/>
      <point x="504.333" y="439.548"/>
      <point x="504.333" y="508.667" type="curve" smooth="yes"/>
      <point x="504.333" y="522.333" type="line" smooth="yes"/>
      <point x="504.333" y="640.945"/>
      <point x="414.913" y="717.667"/>
      <point x="276.667" y="717.667" type="curve" smooth="yes"/>
      <point x="139.488" y="717.667"/>
      <point x="52.667" y="644.152"/>
      <point x="52.667" y="528" type="curve" smooth="yes"/>
      <point x="52.667" y="506" type="line"/>
      <point x="168" y="506" type="line"/>
      <point x="168" y="520.333" type="line" smooth="yes"/>
      <point x="168" y="579.861"/>
      <point x="207.425" y="614.667"/>
      <point x="274.667" y="614.667" type="curve" smooth="yes"/>
      <point x="342.474" y="614.667"/>
      <point x="383.333" y="578.948"/>
      <point x="383.333" y="519.667" type="curve" smooth="yes"/>
      <point x="383.333" y="508.333" type="line" smooth="yes"/>
      <point x="383.333" y="464.042"/>
      <point x="364.361" y="433.056"/>
      <point x="318.667" y="383" type="curve" smooth="yes"/>
      <point x="55.667" y="95.667" type="line"/>
    </contour>
  </outline>
</glyph>
<glyph name="three" format="2">
  <advance width="566"/>
  <unicode hex="0033"/>
  <outline>
    <contour>
      <point x="53" y="189" type="line"/>
      <point x="53" y="177.667" type="line" smooth="yes"/>
      <point x="53" y="58.128"/>
      <point x="136.885" y="-10.667"/>
      <point x="282.667" y="-10.667" type="curve" smooth="yes"/>
      <point x="425.83" y="-10.667"/>
      <point x="515.333" y="68.067"/>
      <point x="515.333" y="194" type="curve" smooth="yes"/>
      <point x="515.333" y="211" type="line" smooth="yes"/>
      <point x="515.333" y="293.08"/>
      <point x="475.515" y="351.677"/>
      <point x="403.667" y="375.333" type="curve"/>
      <point x="467.753" y="402.652"/>
      <point x="502.667" y="453.785"/>
      <point x="502.667" y="520.333" type="curve" smooth="yes"/>
      <point x="502.667" y="535" type="line" smooth="yes"/>
      <point x="502.667" y="649.155"/>
      <point x="419.636" y="717.667"/>
      <point x="281.333" y="717.667" type="curve" smooth="yes"/>
      <point x="139.867" y="717.667"/>
      <point x="60" y="648.269"/>
      <point x="60" y="525.333" type="curve" smooth="yes"/>
      <point x="60" y="515.333" type="line"/>
      <point x="171.333" y="515.333" type="line"/>
      <point x="171.333" y="524.667" type="line" smooth="yes"/>
      <point x="171.333" y="582.847"/>
      <point x="209.06" y="614.667"/>
      <point x="278" y="614.667" type="curve" smooth="yes"/>
      <point x="346.007" y="614.667"/>
      <point x="384" y="581.934"/>
      <point x="384" y="523.333" type="curve" smooth="yes"/>
      <point x="384" y="510.667" type="line" smooth="yes"/>
      <point x="384" y="449.921"/>
      <point x="343.417" y="416.333"/>
      <point x="270" y="416.333" type="curve" smooth="yes"/>
      <point x="230.333" y="416.333" type="line"/>
      <point x="230.333" y="313" type="line"/>
      <point x="271" y="313" type="line" smooth="yes"/>
      <point x="354.937" y="313"/>
      <point x="396.333" y="279.391"/>
      <point x="396.333" y="211.333" type="curve" smooth="yes"/>
      <point x="396.333" y="194.667" type="line" smooth="yes"/>
      <point x="396.333" y="129.19"/>
      <point x="354.684" y="91.667"/>
      <point x="282" y="91.667" type="curve" smooth="yes"/>
      <point x="206.684" y="91.667"/>
      <point x="166.333" y="122.483"/>
      <point x="166.333" y="180" type="curve" smooth="yes"/>
      <point x="166.333" y="189" type="line"/>
    </contour>
  </outline>
</glyph>
<glyph name="four" format="2">
  <advance width="586"/>
  <unicode hex="0034"/>
  <outline>
    <contour>
      <point x="41.333" y="119" type="line"/>
      <point x="358.667" y="119" type="line"/>
      <point x="358.667" y="0" type="line"/>
      <point x="480" y="0" type="line"/>
      <point x="480" y="119" type="line"/>
      <point x="551" y="119" type="line"/>
      <point x="551" y="224.667" type="line"/>
      <point x="480" y="224.667" type="line"/>
      <point x="480" y="396.333" type="line"/>
      <point x="358.667" y="396.333" type="line"/>
      <point x="358.667" y="224.667" type="line"/>
      <point x="163.667" y="224.667" type="line"/>
      <point x="395.333" y="707" type="line"/>
      <point x="272.333" y="707" type="line"/>
      <point x="41.333" y="224.667" type="line"/>
    </contour>
  </outline>
</glyph>
<glyph name="five" format="2">
  <advance width="556"/>
  <unicode hex="0035"/>
  <outline>
    <contour>
      <point x="58" y="177.667" type="line"/>
      <point x="58" y="169.667" type="line" smooth="yes"/>
      <point x="58" y="59.078"/>
      <point x="142.552" y="-10.667"/>
      <point x="276.667" y="-10.667" type="curve" smooth="yes"/>
      <point x="420.929" y="-10.667"/>
      <point x="505.333" y="70.286"/>
      <point x="505.333" y="208.667" type="curve" smooth="yes"/>
      <point x="505.333" y="249.333" type="line" smooth="yes"/>
      <point x="505.333" y="385.755"/>
      <point x="430.905" y="465.333"/>
      <point x="303.333" y="465.333" type="curve" smooth="yes"/>
      <point x="252.771" y="465.333"/>
      <point x="208.397" y="450.619"/>
      <point x="175" y="423" type="curve"/>
      <point x="175" y="602.667" type="line"/>
      <point x="485" y="602.667" type="line"/>
      <point x="485" y="707" type="line"/>
      <point x="70.667" y="707" type="line"/>
      <point x="70.667" y="307.667" type="line"/>
      <point x="178.667" y="307.667" type="line"/>
      <point x="196.687" y="344.563"/>
      <point x="232.483" y="365"/>
      <point x="279" y="365" type="curve" smooth="yes"/>
      <point x="349.297" y="365"/>
      <point x="386.667" y="323.251"/>
      <point x="386.667" y="244.667" type="curve" smooth="yes"/>
      <point x="386.667" y="211.333" type="line" smooth="yes"/>
      <point x="386.667" y="133.353"/>
      <point x="348.998" y="92"/>
      <point x="278" y="92" type="curve" smooth="yes"/>
      <point x="214.706" y="92"/>
      <point x="173.333" y="124.114"/>
      <point x="173.333" y="173.333" type="curve" smooth="yes"/>
      <point x="173.333" y="177.667" type="line"/>
    </contour>
  </outline>
</glyph>
<glyph name="six" format="2">
  <advance width="576"/>
  <unicode hex="0036"/>
  <outline>
    <contour>
      <point x="289.667" y="707" type="line"/>
      <point x="110" y="400.667" type="line"/>
      <point x="70.376" y="335.338"/>
      <point x="52.667" y="279.835"/>
      <point x="52.667" y="222.333" type="curve" smooth="yes"/>
      <point x="52.667" y="201.667" type="line" smooth="yes"/>
      <point x="52.667" y="69.486"/>
      <point x="142.984" y="-10.667"/>
      <point x="292" y="-10.667" type="curve" smooth="yes"/>
      <point x="439.441" y="-10.667"/>
      <point x="531.667" y="72.594"/>
      <point x="531.667" y="205.667" type="curve" smooth="yes"/>
      <point x="531.667" y="227.667" type="line" smooth="yes"/>
      <point x="531.667" y="348.84"/>
      <point x="449.724" y="430"/>
      <point x="327.333" y="430" type="curve" smooth="yes"/>
      <point x="295.309" y="430"/>
      <point x="267.345" y="424.578"/>
      <point x="248" y="414.667" type="curve"/>
      <point x="420" y="707" type="line"/>
    </contour>
    <contour>
      <point x="173.333" y="201" type="curve" smooth="yes"/>
      <point x="173.333" y="221.333" type="line" smooth="yes"/>
      <point x="173.333" y="288.36"/>
      <point x="217.309" y="328"/>
      <point x="291.667" y="328" type="curve" smooth="yes"/>
      <point x="366.432" y="328"/>
      <point x="411.667" y="287.645"/>
      <point x="411.667" y="221" type="curve" smooth="yes"/>
      <point x="411.667" y="201.333" type="line" smooth="yes"/>
      <point x="411.667" y="133.291"/>
      <point x="366.247" y="91.667"/>
      <point x="292" y="91.667" type="curve" smooth="yes"/>
      <point x="218.447" y="91.667"/>
      <point x="173.333" y="133.238"/>
    </contour>
  </outline>
</glyph>
<glyph name="seven" format="2">
  <advance width="513"/>
  <unicode hex="0037"/>
  <outline>
    <contour>
      <point x="104.667" y="0" type="line"/>
      <point x="227.667" y="0" type="line"/>
      <point x="483" y="601.333" type="line"/>
      <point x="483" y="602.075"/>
      <point x="483" y="701.335"/>
      <point x="483" y="707" type="curve"/>
      <point x="35.333" y="707" type="line"/>
      <point x="35.333" y="601.333" type="line"/>
      <point x="362" y="601.333" type="line"/>
    </contour>
  </outline>
</glyph>
<glyph name="eight" format="2">
  <advance width="588"/>
  <unicode hex="0038"/>
  <outline>
    <contour>
      <point x="161" y="371.333" type="curve"/>
      <point x="95.522" y="340.599"/>
      <point x="58" y="282.288"/>
      <point x="58" y="211.333" type="curve" smooth="yes"/>
      <point x="58" y="196.667" type="line" smooth="yes"/>
      <point x="58" y="70.237"/>
      <point x="151.65" y="-10.667"/>
      <point x="298" y="-10.667" type="curve" smooth="yes"/>
      <point x="444.373" y="-10.667"/>
      <point x="537.667" y="70.435"/>
      <point x="537.667" y="197.667" type="curve" smooth="yes"/>
      <point x="537.667" y="212.333" type="line" smooth="yes"/>
      <point x="537.667" y="281.513"/>
      <point x="500.206" y="340.11"/>
      <point x="436" y="371.333" type="curve"/>
      <point x="490.272" y="396.898"/>
      <point x="523.667" y="451.125"/>
      <point x="523.667" y="513.667" type="curve" smooth="yes"/>
      <point x="523.667" y="525.333" type="line" smooth="yes"/>
      <point x="523.667" y="641.994"/>
      <point x="435.144" y="717.667"/>
      <point x="298.667" y="717.667" type="curve" smooth="yes"/>
      <point x="162.925" y="717.667"/>
      <point x="74" y="641.535"/>
      <point x="74" y="525.333" type="curve" smooth="yes"/>
      <point x="74" y="513.667" type="line" smooth="yes"/>
      <point x="74" y="449.989"/>
      <point x="106.507" y="396.804"/>
    </contour>
    <contour>
      <point x="192" y="512.333" type="curve" smooth="yes"/>
      <point x="192" y="524.667" type="line" smooth="yes"/>
      <point x="192" y="581.01"/>
      <point x="231.885" y="614.667"/>
      <point x="298.667" y="614.667" type="curve" smooth="yes"/>
      <point x="364.859" y="614.667"/>
      <point x="405" y="580.692"/>
      <point x="405" y="524.667" type="curve" smooth="yes"/>
      <point x="405" y="512.333" type="line" smooth="yes"/>
      <point x="405" y="454.074"/>
      <point x="365.513" y="419.667"/>
      <point x="298.667" y="419.667" type="curve" smooth="yes"/>
      <point x="231.447" y="419.667"/>
      <point x="192" y="453.936"/>
    </contour>
    <contour>
      <point x="177" y="199" type="curve" smooth="yes"/>
      <point x="177" y="214.333" type="line" smooth="yes"/>
      <point x="177" y="279.372"/>
      <point x="222.827" y="318.667"/>
      <point x="298.667" y="318.667" type="curve" smooth="yes"/>
      <point x="374.076" y="318.667"/>
      <point x="419.667" y="279.351"/>
      <point x="419.667" y="214.333" type="curve" smooth="yes"/>
      <point x="419.667" y="199" type="line" smooth="yes"/>
      <point x="419.667" y="131.881"/>
      <point x="374.33" y="91.667"/>
      <point x="298.667" y="91.667" type="curve" smooth="yes"/>
      <point x="222.185" y="91.667"/>
      <point x="177" y="131.529"/>
    </contour>
  </outline>
</glyph>
<glyph name="nine" format="2">
  <advance width="576"/>
  <unicode hex="0039"/>
  <outline>
    <contour>
      <point x="164.667" y="0" type="line"/>
      <point x="294" y="0" type="line"/>
      <point x="473.333" y="305.667" type="line"/>
      <point x="513.645" y="371.489"/>
      <point x="531.667" y="426.739"/>
      <point x="531.667" y="483.667" type="curve" smooth="yes"/>
      <point x="531.667" y="506" type="line" smooth="yes"/>
      <point x="531.667" y="637.348"/>
      <point x="440.764" y="717.667"/>
      <point x="292" y="717.667" type="curve" smooth="yes"/>
      <point x="143.871" y="717.667"/>
      <point x="52.667" y="635.462"/>
      <point x="52.667" y="502" type="curve" smooth="yes"/>
      <point x="52.667" y="479" type="line" smooth="yes"/>
      <point x="52.667" y="358.631"/>
      <point x="135.634" y="276.333"/>
      <point x="257" y="276.333" type="curve"/>
      <point x="288.111" y="276.778"/>
      <point x="314.444" y="282.111"/>
      <point x="336" y="292.333" type="curve"/>
    </contour>
    <contour>
      <point x="172.667" y="485.667" type="curve" smooth="yes"/>
      <point x="172.667" y="505.667" type="line" smooth="yes"/>
      <point x="172.667" y="573.131"/>
      <point x="218.122" y="614.667"/>
      <point x="292" y="614.667" type="curve" smooth="yes"/>
      <point x="366.119" y="614.667"/>
      <point x="411" y="573.916"/>
      <point x="411" y="506.667" type="curve" smooth="yes"/>
      <point x="411" y="485.333" type="line" smooth="yes"/>
      <point x="411" y="418.317"/>
      <point x="366.444" y="378"/>
      <point x="292.333" y="378" type="curve" smooth="yes"/>
      <point x="217.919" y="378"/>
      <point x="172.667" y="418.725"/>
    </contour>
  </outline>
</glyph>
<glyph name="colon" format="2">
  <advance width="214"/>
  <unicode hex="003A"/>
  <outline>
    <contour>
      <point x="42.333" y="16.667" type="line"/>
      <point x="172" y="16.667" type="line"/>
      <point x="172" y="150" type="line"/>
      <point x="42.333" y="150" type="line"/>
    </contour>
    <contour>
      <point x="42.333" y="329.333" type="line"/>
      <point x="172" y="329.333" type="line"/>
      <point x="172" y="463.333" type="line"/>
      <point x="42.333" y="463.333" type="line"/>
    </contour>
  </outline>
</glyph>
<glyph name="semicolon" format="2">
  <advance width="214"/>
  <unicode hex="003B"/>
  <outline>
    <contour>
      <point x="42.333" y="346" type="line"/>
      <point x="172" y="346" type="line"/>
      <point x="172" y="480" type="line"/>
      <point x="42.333" y="480" type="line"/>
    </contour>
    <contour>
      <point x="62.667" y="-160" type="line"/>
      <point x="170.667" y="-68" type="line"/>
      <point x="170.667" y="130" type="line"/>
      <point x="62.667" y="130" type="line"/>
    </contour>
  </outline>
</glyph>
<glyph name="less" format="2">
  <advance width="534"/>
  <unicode hex="003C"/>
  <outline>
    <contour>
      <point x="50.667" y="234" type="line"/>
      <point x="483.333" y="62.333" type="line"/>
      <point x="483.333" y="170.333" type="line"/>
      <point x="193.667" y="281.667" type="line"/>
      <point x="483.333" y="392.333" type="line"/>
      <point x="483.333" y="499.667" type="line"/>
      <point x="50.667" y="329" type="line"/>
    </contour>
  </outline>
</glyph>
<glyph name="equal" format="2">
  <advance width="534"/>
  <unicode hex="003D"/>
  <outline>
    <contour>
      <point x="51.333" y="330.333" type="line"/>
      <point x="483.333" y="330.333" type="line"/>
      <point x="483.333" y="434.667" type="line"/>
      <point x="51.333" y="434.667" type="line"/>
    </contour>
    <contour>
      <point x="51.333" y="130.667" type="line"/>
      <point x="483.333" y="130.667" type="line"/>
      <point x="483.333" y="234.667" type="line"/>
      <point x="51.333" y="234.667" type="line"/>
    </contour>
  </outline>
</glyph>
<glyph name="greater" format="2">
  <advance width="534"/>
  <unicode hex="003E"/>
  <outline>
    <contour>
      <point x="50.667" y="62.333" type="line"/>
      <point x="483.333" y="234" type="line"/>
      <point x="483.333" y="329" type="line"/>
      <point x="50.667" y="499.667" type="line"/>
      <point x="50.667" y="392.333" type="line"/>
      <point x="340.333" y="281.667" type="line"/>
      <point x="50.667" y="170.333" type="line"/>
    </contour>
  </outline>
</glyph>
<glyph name="question" format="2">
  <advance width="507"/>
  <unicode hex="003F"/>
  <outline>
    <contour>
      <point x="188.333" y="194.333" type="line"/>
      <point x="303" y="194.333" type="line"/>
      <point x="303" y="232.667" type="line" smooth="yes"/>
      <point x="303" y="275.555"/>
      <point x="312.338" y="294.296"/>
      <point x="342.333" y="325.333" type="curve" smooth="yes"/>
      <point x="404.667" y="389.667" type="line" smooth="yes"/>
      <point x="447.409" y="433.831"/>
      <point x="469.333" y="480.699"/>
      <point x="469.333" y="537" type="curve" smooth="yes"/>
      <point x="469.333" y="649.414"/>
      <point x="386.483" y="717"/>
      <point x="248.667" y="717" type="curve" smooth="yes"/>
      <point x="108.073" y="717"/>
      <point x="33.895" y="650.72"/>
      <point x="30.333" y="522" type="curve"/>
      <point x="142.667" y="522" type="line"/>
      <point x="143.569" y="583.206"/>
      <point x="176.959" y="612.333"/>
      <point x="246.333" y="612.333" type="curve" smooth="yes"/>
      <point x="314.886" y="612.333"/>
      <point x="351" y="584.377"/>
      <point x="351" y="531.333" type="curve" smooth="yes"/>
      <point x="351" y="496.14"/>
      <point x="336.563" y="474.274"/>
      <point x="299.667" y="436.667" type="curve" smooth="yes"/>
      <point x="245.333" y="381.333" type="line" smooth="yes"/>
      <point x="202.472" y="337.591"/>
      <point x="188.333" y="309.92"/>
      <point x="188.333" y="244.667" type="curve" smooth="yes"/>
    </contour>
    <contour>
      <point x="183" y="0" type="line"/>
      <point x="307" y="0" type="line"/>
      <point x="307" y="121" type="line"/>
      <point x="183" y="121" type="line"/>
    </contour>
  </outline>
</glyph>
<glyph name="at" format="2">
  <advance width="888"/>
  <unicode hex="0040"/>
  <outline>
    <contour>
      <point x="657.333" y="8.667" type="line"/>
      <point x="585.588" y="-28.343"/>
      <point x="524.47" y="-43.333"/>
      <point x="445.333" y="-43.333" type="curve" smooth="yes"/>
      <point x="266.571" y="-43.333"/>
      <point x="154" y="70.916"/>
      <point x="154" y="252.333" type="curve" smooth="yes"/>
      <point x="154" y="327.333" type="line" smooth="yes"/>
      <point x="154" y="507.944"/>
      <point x="264.919" y="619"/>
      <point x="445.333" y="619" type="curve" smooth="yes"/>
      <point x="624.407" y="619"/>
      <point x="735.667" y="507.864"/>
      <point x="735.667" y="329" type="curve" smooth="yes"/>
      <point x="735.667" y="255" type="line" smooth="yes"/>
      <point x="735.667" y="176.92"/>
      <point x="716.506" y="142"/>
      <point x="673.667" y="142" type="curve" smooth="yes"/>
      <point x="638.741" y="142"/>
      <point x="619" y="167.152"/>
      <point x="619" y="211.667" type="curve" smooth="yes"/>
      <point x="619" y="505" type="line"/>
      <point x="517.333" y="505" type="line"/>
      <point x="517.333" y="462.667" type="line"/>
      <point x="497.717" y="495.816"/>
      <point x="457.504" y="515.667"/>
      <point x="410" y="515.667" type="curve" smooth="yes"/>
      <point x="313.349" y="515.667"/>
      <point x="262.333" y="451.751"/>
      <point x="262.333" y="330.667" type="curve" smooth="yes"/>
      <point x="262.333" y="240.667" type="line" smooth="yes"/>
      <point x="262.333" y="117.929"/>
      <point x="314.047" y="55.667"/>
      <point x="416" y="55.667" type="curve" smooth="yes"/>
      <point x="481.111" y="55.667"/>
      <point x="524.556" y="78.444"/>
      <point x="546.333" y="124" type="curve"/>
      <point x="568.351" y="79.992"/>
      <point x="613.296" y="55.667"/>
      <point x="672.667" y="55.667" type="curve" smooth="yes"/>
      <point x="776.239" y="55.667"/>
      <point x="840.667" y="132.583"/>
      <point x="840.667" y="256.333" type="curve" smooth="yes"/>
      <point x="840.667" y="330" type="line" smooth="yes"/>
      <point x="840.667" y="554.595"/>
      <point x="676.958" y="713.333"/>
      <point x="445.333" y="713.333" type="curve" smooth="yes"/>
      <point x="210.097" y="713.333"/>
      <point x="49" y="555.755"/>
      <point x="49" y="325.667" type="curve" smooth="yes"/>
      <point x="49" y="251.667" type="line" smooth="yes"/>
      <point x="49" y="20.141"/>
      <point x="209.236" y="-137"/>
      <point x="445.333" y="-137" type="curve" smooth="yes"/>
      <point x="544.765" y="-137"/>
      <point x="621.926" y="-117.094"/>
      <point x="698.667" y="-71.667" type="curve"/>
    </contour>
    <contour>
      <point x="441.667" y="144" type="curve" smooth="yes"/>
      <point x="391.448" y="144"/>
      <point x="367" y="177.508"/>
      <point x="367" y="246.333" type="curve" smooth="yes"/>
      <point x="367" y="330.333" type="line" smooth="yes"/>
      <point x="367" y="394.981"/>
      <point x="392.244" y="428"/>
      <point x="441.667" y="428" type="curve" smooth="yes"/>
      <point x="490.463" y="428"/>
      <point x="515.333" y="395.034"/>
      <point x="515.333" y="330.333" type="curve" smooth="yes"/>
      <point x="515.333" y="243" type="line" smooth="yes"/>
      <point x="515.333" y="177"/>
      <point x="490.778" y="144"/>
    </contour>
  </outline>
</glyph>
<glyph name="A" format="2">
  <advance width="692"/>
  <unicode hex="0041"/>
  <anchor x="345.333" y="770.667" name="top"/>
  <anchor x="345.333" y="655" name="t.ring"/>
  <anchor x="345.667" y="-86" name="bottom"/>
  <anchor x="680.667" y="0" name="b.cedilla"/>
  <outline>
    <contour>
      <point x="4.667" y="0" type="line"/>
      <point x="132.333" y="0" type="line"/>
      <point x="188.333" y="144.667" type="line"/>
      <point x="503.667" y="144.667" type="line"/>
      <point x="559.333" y="0" type="line"/>
      <point x="687.333" y="0" type="line"/>
      <point x="395.333" y="707" type="line"/>
      <point x="296.333" y="707" type="line"/>
    </contour>
    <contour>
      <point x="227" y="245.667" type="line"/>
      <point x="345.333" y="555.333" type="line"/>
      <point x="465" y="245.667" type="line"/>
    </contour>
  </outline>
</glyph>
<glyph name="B" format="2">
  <advance width="675"/>
  <unicode hex="0042"/>
  <anchor x="300.333" y="770.667" name="top"/>
  <anchor x="302" y="-86" name="bottom"/>
  <outline>
    <contour>
      <point x="139.82" y="0" type="line"/>
      <point x="383.333" y="0" type="line" smooth="yes"/>
      <point x="539.039" y="0"/>
      <point x="625" y="71.496"/>
      <point x="625" y="201" type="curve" smooth="yes"/>
      <point x="625" y="279.429"/>
      <point x="585.501" y="336.191"/>
      <point x="511.333" y="364.333" type="curve"/>
      <point x="575.965" y="390.712"/>
      <point x="613.333" y="444.935"/>
      <point x="613.333" y="512.333" type="curve" smooth="yes"/>
      <point x="613.333" y="638.676"/>
      <point x="528.853" y="707"/>
      <point x="372.667" y="707" type="curve" smooth="yes"/>
      <point x="139.82" y="707" type="line"/>
      <point x="139.82" y="601.667" type="line"/>
      <point x="377.333" y="601.667" type="line" smooth="yes"/>
      <point x="454.889" y="601.667"/>
      <point x="493.333" y="569.85"/>
      <point x="493.333" y="505.667" type="curve" smooth="yes"/>
      <point x="493.333" y="443.374"/>
      <point x="454.138" y="412.667"/>
      <point x="373.333" y="412.667" type="curve" smooth="yes"/>
      <point x="139.82" y="412.667" type="line"/>
      <point x="139.82" y="307.667" type="line"/>
      <point x="380" y="307.667" type="line" smooth="yes"/>
      <point x="463.111" y="307.667"/>
      <point x="504.667" y="274.778"/>
      <point x="504.667" y="209" type="curve" smooth="yes"/>
      <point x="504.667" y="139.52"/>
      <point x="465.322" y="105.333"/>
      <point x="385.333" y="105.333" type="curve" smooth="yes"/>
      <point x="139.82" y="105.333" type="line"/>
    </contour>
    <contour>
      <point x="64.667" y="0" type="line"/>
      <point x="185.667" y="-0.039" type="line"/>
      <point x="185.667" y="707.244" type="line"/>
      <point x="64.667" y="707" type="line"/>
    </contour>
  </outline>
</glyph>
<glyph name="C" format="2">
  <advance width="691"/>
  <unicode hex="0043"/>
  <anchor x="357.333" y="770.667" name="top"/>
  <anchor x="322" y="0" name="b.cedilla"/>
  <anchor x="236" y="-86" name="bottom"/>
  <outline>
    <contour>
      <point x="520.333" y="234" type="line"/>
      <point x="520.333" y="228.667" type="line" smooth="yes"/>
      <point x="520.333" y="145.966"/>
      <point x="461.534" y="98.333"/>
      <point x="359.333" y="98.333" type="curve" smooth="yes"/>
      <point x="237.923" y="98.333"/>
      <point x="179.333" y="164.309"/>
      <point x="179.333" y="301" type="curve" smooth="yes"/>
      <point x="179.333" y="401.333" type="line" smooth="yes"/>
      <point x="179.333" y="544.315"/>
      <point x="237.025" y="612.333"/>
      <point x="358.333" y="612.333" type="curve" smooth="yes"/>
      <point x="460.108" y="612.333"/>
      <point x="520.333" y="562.836"/>
      <point x="520.333" y="479.333" type="curve" smooth="yes"/>
      <point x="520.333" y="475.333" type="line"/>
      <point x="640.667" y="475.333" type="line"/>
      <point x="640.667" y="482.667" type="line" smooth="yes"/>
      <point x="640.667" y="628.904"/>
      <point x="533.17" y="719"/>
      <point x="358.667" y="719" type="curve" smooth="yes"/>
      <point x="163.884" y="719"/>
      <point x="58" y="609.715"/>
      <point x="58" y="408.667" type="curve" smooth="yes"/>
      <point x="58" y="300" type="line" smooth="yes"/>
      <point x="58" y="99.376"/>
      <point x="163.824" y="-10.333"/>
      <point x="357.333" y="-10.333" type="curve" smooth="yes"/>
      <point x="533.103" y="-10.333"/>
      <point x="639.667" y="79.734"/>
      <point x="639.667" y="228.333" type="curve" smooth="yes"/>
      <point x="639.667" y="234" type="line"/>
    </contour>
  </outline>
</glyph>
<glyph name="D" format="2">
  <advance width="681"/>
  <unicode hex="0044"/>
  <anchor x="300.333" y="770.667" name="top"/>
  <anchor x="301.667" y="-86" name="bottom"/>
  <outline>
    <contour>
      <point x="64.667" y="0" type="line"/>
      <point x="331.667" y="0" type="line" smooth="yes"/>
      <point x="527.854" y="0"/>
      <point x="631.333" y="106.704"/>
      <point x="631.333" y="309" type="curve" smooth="yes"/>
      <point x="631.333" y="398" type="line" smooth="yes"/>
      <point x="631.333" y="600.461"/>
      <point x="529.389" y="707"/>
      <point x="335.667" y="707" type="curve" smooth="yes"/>
      <point x="64.667" y="707" type="line"/>
    </contour>
    <contour>
      <point x="185.667" y="105.667" type="line"/>
      <point x="185.667" y="601.333" type="line"/>
      <point x="335" y="601.333" type="line" smooth="yes"/>
      <point x="455.161" y="601.333"/>
      <point x="511" y="534.848"/>
      <point x="511" y="391.667" type="curve" smooth="yes"/>
      <point x="511" y="308.333" type="line" smooth="yes"/>
      <point x="511" y="169.966"/>
      <point x="455.143" y="105.667"/>
      <point x="335" y="105.667" type="curve" smooth="yes"/>
    </contour>
  </outline>
</glyph>
<glyph name="E" format="2">
  <advance width="604"/>
  <unicode hex="0045"/>
  <anchor x="317.333" y="770.667" name="top"/>
  <anchor x="317.333" y="-86" name="bottom"/>
  <anchor x="565.667" y="0" name="b.cedilla"/>
  <outline>
    <contour>
      <point x="64.667" y="0" type="line"/>
      <point x="565.667" y="0" type="line"/>
      <point x="565.667" y="105.667" type="line"/>
      <point x="185.667" y="105.667" type="line"/>
      <point x="185.667" y="304.333" type="line"/>
      <point x="512" y="304.333" type="line"/>
      <point x="512" y="410" type="line"/>
      <point x="185.667" y="410" type="line"/>
      <point x="185.667" y="601.333" type="line"/>
      <point x="565.667" y="601.333" type="line"/>
      <point x="565.667" y="707" type="line"/>
      <point x="64.667" y="707" type="line"/>
    </contour>
  </outline>
</glyph>
<glyph name="F" format="2">
  <advance width="598"/>
  <unicode hex="0046"/>
  <anchor x="321.333" y="770.667" name="top"/>
  <anchor x="236" y="-86" name="bottom"/>
  <outline>
    <contour>
      <point x="165.307" y="299.333" type="line"/>
      <point x="513.667" y="299.333" type="line"/>
      <point x="513.667" y="405" type="line"/>
      <point x="165.307" y="405" type="line"/>
    </contour>
    <contour>
      <point x="165.311" y="601.333" type="line"/>
      <point x="565.667" y="601.333" type="line"/>
      <point x="565.667" y="707" type="line"/>
      <point x="165.311" y="707" type="line"/>
    </contour>
    <contour>
      <point x="64.667" y="0" type="line"/>
      <point x="185.667" y="0" type="line"/>
      <point x="185.667" y="707.037" type="line"/>
      <point x="64.667" y="707" type="line"/>
    </contour>
  </outline>
</glyph>
<glyph name="G" format="2">
  <advance width="691"/>
  <unicode hex="0047"/>
  <anchor x="352.667" y="770.667" name="top"/>
  <anchor x="350" y="-86" name="bottom"/>
  <outline>
    <contour>
      <point x="352.667" y="275.333" type="line"/>
      <point x="521.333" y="275.333" type="line"/>
      <point x="521.333" y="244.667" type="line" smooth="yes"/>
      <point x="521.333" y="146.301"/>
      <point x="468.03" y="98.333"/>
      <point x="359.333" y="98.333" type="curve" smooth="yes"/>
      <point x="236.898" y="98.333"/>
      <point x="179.333" y="163.357"/>
      <point x="179.333" y="301.667" type="curve" smooth="yes"/>
      <point x="179.333" y="402" type="line" smooth="yes"/>
      <point x="179.333" y="544.759"/>
      <point x="236.834" y="612.333"/>
      <point x="358.333" y="612.333" type="curve" smooth="yes"/>
      <point x="458.427" y="612.333"/>
      <point x="520.333" y="562.493"/>
      <point x="520.333" y="482" type="curve" smooth="yes"/>
      <point x="520.333" y="477.667" type="line"/>
      <point x="640.333" y="477.667" type="line"/>
      <point x="640.333" y="485" type="line" smooth="yes"/>
      <point x="640.333" y="628.459"/>
      <point x="531.214" y="719"/>
      <point x="358.333" y="719" type="curve" smooth="yes"/>
      <point x="163.662" y="719"/>
      <point x="58" y="609.826"/>
      <point x="58" y="408.667" type="curve" smooth="yes"/>
      <point x="58" y="300" type="line" smooth="yes"/>
      <point x="58" y="99.358"/>
      <point x="163.927" y="-10.333"/>
      <point x="357.667" y="-10.333" type="curve" smooth="yes"/>
      <point x="539.425" y="-10.333"/>
      <point x="640.667" y="86.136"/>
      <point x="640.667" y="259.333" type="curve" smooth="yes"/>
      <point x="640.667" y="375.667" type="line"/>
      <point x="352.667" y="375.667" type="line"/>
    </contour>
  </outline>
</glyph>
<glyph name="H" format="2">
  <advance width="692"/>
  <unicode hex="0048"/>
  <anchor x="346.333" y="770.667" name="top"/>
  <anchor x="346.333" y="-86" name="bottom"/>
  <outline>
    <contour>
      <point x="165.307" y="305.667" type="line"/>
      <point x="527.693" y="305.667" type="line"/>
      <point x="527.693" y="411" type="line"/>
      <point x="165.307" y="411" type="line"/>
    </contour>
    <contour>
      <point x="507.333" y="0" type="line"/>
      <point x="627.333" y="0" type="line"/>
      <point x="627.333" y="707" type="line"/>
      <point x="507.333" y="707" type="line"/>
    </contour>
    <contour>
      <point x="64.667" y="0" type="line"/>
      <point x="185.667" y="0" type="line"/>
      <point x="185.667" y="707" type="line"/>
      <point x="64.667" y="707" type="line"/>
    </contour>
  </outline>
</glyph>
<glyph name="J" format="2">
  <advance width="364"/>
  <unicode hex="004A"/>
  <anchor x="232.667" y="770.667" name="top"/>
  <anchor x="236" y="-86" name="bottom"/>
  <outline>
    <contour>
      <point x="26.667" y="0" type="line"/>
      <point x="118.667" y="0" type="line" smooth="yes"/>
      <point x="234.772" y="0"/>
      <point x="293.333" y="57.323"/>
      <point x="293.333" y="171" type="curve" smooth="yes"/>
      <point x="293.333" y="707" type="line"/>
      <point x="172.333" y="707" type="line"/>
      <point x="172.333" y="190.333" type="line" smooth="yes"/>
      <point x="172.333" y="127.646"/>
      <point x="151.202" y="106.333"/>
      <point x="89" y="106.333" type="curve" smooth="yes"/>
      <point x="26.667" y="106.333" type="line"/>
    </contour>
  </outline>
</glyph>
<glyph name="K" format="2">
  <advance width="692"/>
  <unicode hex="004B"/>
  <anchor x="334.667" y="770.667" name="top"/>
  <anchor x="325.333" y="-86" name="bottom"/>
  <outline>
    <contour>
      <point x="64.667" y="0" type="line"/>
      <point x="185.667" y="0" type="line"/>
      <point x="185.667" y="196" type="line"/>
      <point x="318.333" y="338.667" type="line"/>
      <point x="539.333" y="0" type="line"/>
      <point x="685.333" y="0" type="line"/>
      <point x="398.667" y="424.333" type="line"/>
      <point x="661" y="707" type="line"/>
      <point x="507.333" y="707" type="line"/>
      <point x="185.667" y="346.333" type="line"/>
      <point x="185.667" y="707" type="line"/>
      <point x="64.667" y="707" type="line"/>
    </contour>
  </outline>
</glyph>
<glyph name="L" format="2">
  <advance width="586"/>
  <unicode hex="004C"/>
  <anchor x="125" y="770.667" name="top"/>
  <anchor x="311" y="-86" name="bottom"/>
  <anchor x="419" y="397" name="dot"/>
  <outline>
    <contour>
      <point x="64.667" y="0" type="line"/>
      <point x="560.333" y="0" type="line"/>
      <point x="560.333" y="105.667" type="line"/>
      <point x="185.667" y="105.667" type="line"/>
      <point x="185.667" y="707" type="line"/>
      <point x="64.667" y="707" type="line"/>
    </contour>
  </outline>
</glyph>
<glyph name="M" format="2">
  <advance width="834"/>
  <unicode hex="004D"/>
  <anchor x="418.667" y="770.667" name="top"/>
  <anchor x="236" y="-86" name="bottom"/>
  <outline>
    <contour>
      <point x="64.667" y="0" type="line"/>
      <point x="185.667" y="0" type="line"/>
      <point x="185.667" y="479" type="line"/>
      <point x="377.667" y="137.333" type="line"/>
      <point x="459.667" y="137.333" type="line"/>
      <point x="649.667" y="476.333" type="line"/>
      <point x="649.667" y="0" type="line"/>
      <point x="769.667" y="0" type="line"/>
      <point x="769.667" y="707" type="line"/>
      <point x="649.667" y="707" type="line"/>
      <point x="418.667" y="284" type="line"/>
      <point x="185.667" y="707" type="line"/>
      <point x="64.667" y="707" type="line"/>
    </contour>
  </outline>
</glyph>
<glyph name="N" format="2">
  <advance width="723"/>
  <unicode hex="004E"/>
  <anchor x="354" y="770.667" name="top"/>
  <anchor x="354" y="-86" name="bottom"/>
  <outline>
    <contour>
      <point x="64.667" y="0" type="line"/>
      <point x="185.667" y="0" type="line"/>
      <point x="185.667" y="494.333" type="line"/>
      <point x="537.667" y="0" type="line"/>
      <point x="658.333" y="0" type="line"/>
      <point x="658.333" y="707" type="line"/>
      <point x="537.667" y="707" type="line"/>
      <point x="537.667" y="211.667" type="line"/>
      <point x="185.667" y="707" type="line"/>
      <point x="64.667" y="707" type="line"/>
    </contour>
  </outline>
</glyph>
<glyph name="O" format="2">
  <advance width="696"/>
  <unicode hex="004F"/>
  <anchor x="351.667" y="770.667" name="top"/>
  <anchor x="351.667" y="-86" name="bottom"/>
  <anchor x="276.333" y="0" name="b.cedilla"/>
  <outline>
    <contour>
      <point x="349.667" y="-10.333" type="curve" smooth="yes"/>
      <point x="540.248" y="-10.333"/>
      <point x="645.667" y="100.188"/>
      <point x="645.667" y="300" type="curve" smooth="yes"/>
      <point x="645.667" y="408.667" type="line" smooth="yes"/>
      <point x="645.667" y="608.526"/>
      <point x="541.601" y="719"/>
      <point x="353.333" y="719" type="curve" smooth="yes"/>
      <point x="162.328" y="719"/>
      <point x="58" y="609.373"/>
      <point x="58" y="408.667" type="curve" smooth="yes"/>
      <point x="58" y="300" type="line" smooth="yes"/>
      <point x="58" y="99.155"/>
      <point x="160.902" y="-10.333"/>
    </contour>
    <contour>
      <point x="353" y="98.333" type="curve" smooth="yes"/>
      <point x="235.293" y="98.333"/>
      <point x="179.333" y="163.65"/>
      <point x="179.333" y="301" type="curve" smooth="yes"/>
      <point x="179.333" y="401.333" type="line" smooth="yes"/>
      <point x="179.333" y="544.609"/>
      <point x="235.062" y="612.333"/>
      <point x="353" y="612.333" type="curve" smooth="yes"/>
      <point x="469.008" y="612.333"/>
      <point x="525.667" y="543.034"/>
      <point x="525.667" y="401.333" type="curve" smooth="yes"/>
      <point x="525.667" y="301" type="line" smooth="yes"/>
      <point x="525.667" y="165.13"/>
      <point x="468.79" y="98.333"/>
    </contour>
  </outline>
</glyph>
<glyph name="P" format="2">
  <advance width="646"/>
  <unicode hex="0050"/>
  <anchor x="312.333" y="770.667" name="top"/>
  <anchor x="236" y="-86" name="bottom"/>
  <outline>
    <contour>
      <point x="64.667" y="0" type="line"/>
      <point x="185.667" y="0" type="line"/>
      <point x="185.667" y="273.333" type="line"/>
      <point x="366.667" y="273.333" type="line" smooth="yes"/>
      <point x="528.225" y="273.333"/>
      <point x="619.667" y="351.018"/>
      <point x="619.667" y="488.333" type="curve" smooth="yes"/>
      <point x="619.667" y="628.357"/>
      <point x="530.123" y="707"/>
      <point x="370.667" y="707" type="curve" smooth="yes"/>
      <point x="64.667" y="707" type="line"/>
    </contour>
    <contour>
      <point x="185.667" y="379.667" type="line"/>
      <point x="185.667" y="601.333" type="line"/>
      <point x="372.667" y="601.333" type="line" smooth="yes"/>
      <point x="457.863" y="601.333"/>
      <point x="499" y="564.527"/>
      <point x="499" y="488.667" type="curve" smooth="yes"/>
      <point x="499" y="414.767"/>
      <point x="458.983" y="379.667"/>
      <point x="374.667" y="379.667" type="curve" smooth="yes"/>
    </contour>
  </outline>
</glyph>
<glyph name="Q" format="2">
  <advance width="696"/>
  <unicode hex="0051"/>
  <anchor x="352.333" y="770.667" name="top"/>
  <anchor x="236" y="-86" name="bottom"/>
  <outline>
    <contour>
      <point x="349.667" y="-10.333" type="curve" smooth="yes"/>
      <point x="539.932" y="-10.333"/>
      <point x="645.675" y="100.152"/>
      <point x="645.67" y="298.932" type="curve" smooth="yes"/>
      <point x="645.667" y="408.667" type="line" smooth="yes"/>
      <point x="645.661" y="608.529"/>
      <point x="541.598" y="719"/>
      <point x="353.333" y="719" type="curve" smooth="yes"/>
      <point x="162.328" y="719"/>
      <point x="58" y="609.373"/>
      <point x="58" y="408.667" type="curve" smooth="yes"/>
      <point x="58" y="300" type="line" smooth="yes"/>
      <point x="58" y="98.78"/>
      <point x="160.549" y="-10.333"/>
    </contour>
    <contour>
      <point x="353" y="98.333" type="curve" smooth="yes"/>
      <point x="235.994" y="98.333"/>
      <point x="179.333" y="164.486"/>
      <point x="179.333" y="301" type="curve" smooth="yes"/>
      <point x="179.333" y="401.333" type="line" smooth="yes"/>
      <point x="179.333" y="544.609"/>
      <point x="235.062" y="612.333"/>
      <point x="353" y="612.333" type="curve" smooth="yes"/>
      <point x="469.008" y="612.333"/>
      <point x="525.667" y="543.034"/>
      <point x="525.667" y="401.333" type="curve" smooth="yes"/>
      <point x="525.667" y="301" type="line" smooth="yes"/>
      <point x="525.667" y="165.222"/>
      <point x="468.707" y="98.333"/>
    </contour>
    <contour>
      <point x="527.667" y="-157" type="line"/>
      <point x="620.333" y="-106" type="line"/>
      <point x="532.034" y="57.514" type="line"/>
      <point x="435.353" y="13.507" type="line"/>
    </contour>
  </outline>
</glyph>
<glyph name="R" format="2">
  <advance width="679"/>
  <unicode hex="0052"/>
  <anchor x="311" y="770.667" name="top"/>
  <anchor x="311.667" y="-86" name="bottom"/>
  <outline>
    <contour>
      <point x="64.667" y="0" type="line"/>
      <point x="185.667" y="0" type="line"/>
      <point x="185.667" y="285.667" type="line"/>
      <point x="347.333" y="285.667" type="line"/>
      <point x="505" y="0" type="line"/>
      <point x="647" y="0" type="line"/>
      <point x="472" y="299.333" type="line"/>
      <point x="568.735" y="326.843"/>
      <point x="619" y="394.058"/>
      <point x="619" y="496" type="curve" smooth="yes"/>
      <point x="619" y="630.416"/>
      <point x="529.608" y="707"/>
      <point x="372.667" y="707" type="curve" smooth="yes"/>
      <point x="64.667" y="707" type="line"/>
    </contour>
    <contour>
      <point x="185.667" y="388.667" type="line"/>
      <point x="185.667" y="601.333" type="line"/>
      <point x="374" y="601.333" type="line" smooth="yes"/>
      <point x="456.613" y="601.333"/>
      <point x="499" y="565.543"/>
      <point x="499" y="496" type="curve" smooth="yes"/>
      <point x="499" y="423.53"/>
      <point x="459.528" y="388.667"/>
      <point x="376" y="388.667" type="curve" smooth="yes"/>
    </contour>
  </outline>
</glyph>
<glyph name="S" format="2">
  <advance width="623"/>
  <unicode hex="0053"/>
  <anchor x="302.333" y="770.667" name="top"/>
  <anchor x="282.333" y="0" name="b.cedilla"/>
  <anchor x="302.333" y="-86" name="bottom"/>
  <outline>
    <contour>
      <point x="30" y="211.333" type="line"/>
      <point x="40.275" y="69.314"/>
      <point x="136.023" y="-6"/>
      <point x="306.333" y="-6" type="curve" smooth="yes"/>
      <point x="484.437" y="-6"/>
      <point x="588.667" y="73.74"/>
      <point x="588.667" y="210" type="curve" smooth="yes"/>
      <point x="588.667" y="322.506"/>
      <point x="518.657" y="389.48"/>
      <point x="382.333" y="407.333" type="curve" smooth="yes"/>
      <point x="292.333" y="418.667" type="line" smooth="yes"/>
      <point x="203.097" y="429.923"/>
      <point x="163.333" y="460.088"/>
      <point x="163.333" y="516.333" type="curve" smooth="yes"/>
      <point x="163.333" y="580.848"/>
      <point x="213.871" y="615"/>
      <point x="309.333" y="615" type="curve" smooth="yes"/>
      <point x="405.465" y="615"/>
      <point x="452.203" y="581.679"/>
      <point x="458" y="509" type="curve"/>
      <point x="574.667" y="509" type="line"/>
      <point x="562.195" y="644.001"/>
      <point x="470.064" y="716.667"/>
      <point x="311.333" y="716.667" type="curve" smooth="yes"/>
      <point x="147.383" y="716.667"/>
      <point x="46.667" y="637.121"/>
      <point x="46.667" y="507.667" type="curve" smooth="yes"/>
      <point x="46.667" y="395.155"/>
      <point x="117.631" y="329.88"/>
      <point x="258.667" y="312.667" type="curve" smooth="yes"/>
      <point x="340.333" y="302.667" type="line" smooth="yes"/>
      <point x="431.21" y="292.102"/>
      <point x="470" y="261.738"/>
      <point x="470" y="201.333" type="curve"/>
      <point x="469.333" y="132"/>
      <point x="416.778" y="97.333"/>
      <point x="312.333" y="97.333" type="curve" smooth="yes"/>
      <point x="205.858" y="97.333"/>
      <point x="154.027" y="132.717"/>
      <point x="145.333" y="211.333" type="curve"/>
    </contour>
  </outline>
</glyph>
<glyph name="T" format="2">
  <advance width="568"/>
  <unicode hex="0054"/>
  <anchor x="284" y="-86" name="bottom"/>
  <anchor x="283.667" y="770.667" name="top"/>
  <anchor x="246.333" y="0" name="b.cedilla"/>
  <outline>
    <contour>
      <point x="224" y="0" type="line"/>
      <point x="344" y="0" type="line"/>
      <point x="344" y="601.333" type="line"/>
      <point x="561.333" y="601.333" type="line"/>
      <point x="561.333" y="707" type="line"/>
      <point x="6.333" y="707" type="line"/>
      <point x="6.333" y="601.333" type="line"/>
      <point x="224" y="601.333" type="line"/>
    </contour>
  </outline>
</glyph>
<glyph name="U" format="2">
  <advance width="697"/>
  <unicode hex="0055"/>
  <anchor x="348" y="770.667" name="top"/>
  <anchor x="348" y="-86" name="bottom"/>
  <anchor x="408" y="0" name="b.cedilla"/>
  <outline>
    <contour>
      <point x="64.667" y="707" type="line"/>
      <point x="64.667" y="253.667" type="line" smooth="yes"/>
      <point x="64.667" y="94.166"/>
      <point x="173.985" y="-6"/>
      <point x="348" y="-6" type="curve" smooth="yes"/>
      <point x="523.261" y="-6"/>
      <point x="633" y="93.962"/>
      <point x="633" y="253.667" type="curve" smooth="yes"/>
      <point x="633" y="707" type="line"/>
      <point x="512.333" y="707" type="line"/>
      <point x="512.333" y="258.333" type="line" smooth="yes"/>
      <point x="512.333" y="154.494"/>
      <point x="455.306" y="99.333"/>
      <point x="348" y="99.333" type="curve" smooth="yes"/>
      <point x="241.347" y="99.333"/>
      <point x="185.333" y="153.871"/>
      <point x="185.333" y="258.333" type="curve" smooth="yes"/>
      <point x="185.333" y="707" type="line"/>
    </contour>
  </outline>
</glyph>
<glyph name="V" format="2">
  <advance width="631"/>
  <unicode hex="0056"/>
  <anchor x="315.667" y="770.667" name="top"/>
  <anchor x="315.667" y="-86" name="bottom"/>
  <outline>
    <contour>
      <point x="266.667" y="0" type="line"/>
      <point x="364.667" y="0" type="line"/>
      <point x="627" y="707" type="line"/>
      <point x="498.667" y="707" type="line"/>
      <point x="315.667" y="174" type="line"/>
      <point x="132.333" y="707" type="line"/>
      <point x="4.667" y="707" type="line"/>
    </contour>
  </outline>
</glyph>
<glyph name="W" format="2">
  <advance width="950"/>
  <unicode hex="0057"/>
  <anchor x="478" y="770.667" name="top"/>
  <anchor x="479.333" y="-86" name="bottom"/>
  <outline>
    <contour>
      <point x="209" y="0" type="line"/>
      <point x="321.667" y="0" type="line"/>
      <point x="478" y="559.667" type="line"/>
      <point x="634.333" y="0" type="line"/>
      <point x="747.667" y="0" type="line"/>
      <point x="946" y="707" type="line"/>
      <point x="828" y="707" type="line"/>
      <point x="695.667" y="169.667" type="line"/>
      <point x="552.333" y="707" type="line"/>
      <point x="403.333" y="707" type="line"/>
      <point x="270.333" y="169.667" type="line"/>
      <point x="126.667" y="707" type="line"/>
      <point x="4.667" y="707" type="line"/>
    </contour>
  </outline>
</glyph>
<glyph name="X" format="2">
  <advance width="675"/>
  <unicode hex="0058"/>
  <anchor x="333.333" y="770.667" name="top"/>
  <anchor x="236" y="-86" name="bottom"/>
  <outline>
    <contour>
      <point x="4.667" y="0" type="line"/>
      <point x="148.667" y="0" type="line"/>
      <point x="333.333" y="276.333" type="line"/>
      <point x="524.333" y="0" type="line"/>
      <point x="671" y="0" type="line"/>
      <point x="408.667" y="372.333" type="line"/>
      <point x="645.667" y="707" type="line"/>
      <point x="501.667" y="707" type="line"/>
      <point x="340.333" y="461.667" type="line"/>
      <point x="170.667" y="707" type="line"/>
      <point x="24.667" y="707" type="line"/>
      <point x="264.667" y="367.333" type="line"/>
    </contour>
  </outline>
</glyph>
<glyph name="Z" format="2">
  <advance width="577"/>
  <unicode hex="005A"/>
  <anchor x="279" y="770.667" name="top"/>
  <anchor x="279" y="-86" name="bottom"/>
  <outline>
    <contour>
      <point x="33" y="0.333" type="line"/>
      <point x="548.333" y="0.333" type="line"/>
      <point x="548.333" y="106.667" type="line"/>
      <point x="171.667" y="106.667" type="line"/>
      <point x="540" y="601.667" type="line"/>
      <point x="540" y="707.333" type="line"/>
      <point x="42" y="707.333" type="line"/>
      <point x="42" y="601.667" type="line"/>
      <point x="401.333" y="601.667" type="line"/>
      <point x="33" y="106.667" type="line"/>
    </contour>
  </outline>
</glyph>
<glyph name="bracketleft" format="2">
  <advance width="343"/>
  <unicode hex="005B"/>
  <outline>
    <contour>
      <point x="64.667" y="-86" type="line"/>
      <point x="294.667" y="-86" type="line"/>
      <point x="294.667" y="20.333" type="line"/>
      <point x="178.667" y="20.333" type="line"/>
      <point x="178.667" y="652.333" type="line"/>
      <point x="294.667" y="652.333" type="line"/>
      <point x="294.667" y="758.667" type="line"/>
      <point x="64.667" y="758.667" type="line"/>
    </contour>
  </outline>
</glyph>
<glyph name="backslash" format="2">
  <advance width="449"/>
  <unicode hex="005C"/>
  <outline>
    <contour>
      <point x="305.333" y="-10" type="line"/>
      <point x="401.667" y="-10" type="line"/>
      <point x="145.333" y="711" type="line"/>
      <point x="49" y="711" type="line"/>
    </contour>
  </outline>
</glyph>
<glyph name="asciicircum" format="2">
  <advance width="534"/>
  <unicode hex="005E"/>
  <outline>
    <contour>
      <point x="45.333" y="281.333" type="line"/>
      <point x="140.333" y="281.333" type="line"/>
      <point x="266.667" y="600.667" type="line"/>
      <point x="393.333" y="281.333" type="line"/>
      <point x="489" y="281.333" type="line"/>
      <point x="315.333" y="711" type="line"/>
      <point x="219" y="711" type="line"/>
    </contour>
  </outline>
</glyph>
<glyph name="underscore" format="2">
  <advance width="567"/>
  <unicode hex="005F"/>
  <outline>
    <contour>
      <point x="0" y="-120" type="line"/>
      <point x="568" y="-120" type="line"/>
      <point x="568" y="-44.333" type="line"/>
      <point x="0" y="-44.333" type="line"/>
    </contour>
  </outline>
</glyph>
<glyph name="a" format="2">
  <advance width="565"/>
  <unicode hex="0061"/>
  <anchor x="272" y="596.667" name="top"/>
  <anchor x="272" y="584.667" name="t.ring"/>
  <anchor x="272" y="-86" name="bottom"/>
  <anchor x="505" y="0" name="b.cedilla"/>
  <outline>
    <contour>
      <point x="395" y="0" type="line"/>
      <point x="505.333" y="0" type="line"/>
      <point x="505.333" y="340.667" type="line" smooth="yes"/>
      <point x="505.333" y="467.04"/>
      <point x="422.822" y="536.333"/>
      <point x="272.333" y="536.333" type="curve" smooth="yes"/>
      <point x="138.77" y="536.333"/>
      <point x="56" y="474.614"/>
      <point x="56" y="375" type="curve" smooth="yes"/>
      <point x="56" y="372" type="line"/>
      <point x="165" y="372" type="line"/>
      <point x="165" y="375" type="line" smooth="yes"/>
      <point x="165" y="421.067"/>
      <point x="203.065" y="447"/>
      <point x="270.667" y="447" type="curve" smooth="yes"/>
      <point x="351.778" y="447"/>
      <point x="392.333" y="412.667"/>
      <point x="392.333" y="344" type="curve" smooth="yes"/>
      <point x="392.333" y="310.667" type="line"/>
      <point x="367.504" y="310.667"/>
      <point x="268.167" y="310.667"/>
      <point x="243.333" y="310.667" type="curve" smooth="yes"/>
      <point x="110.469" y="310.667"/>
      <point x="39.667" y="257.13"/>
      <point x="39.667" y="156.667" type="curve" smooth="yes"/>
      <point x="39.667" y="51.236"/>
      <point x="108.276" y="-6"/>
      <point x="234.667" y="-6" type="curve" smooth="yes"/>
      <point x="307.132" y="-6"/>
      <point x="354.703" y="11.138"/>
      <point x="395" y="52.333" type="curve"/>
    </contour>
    <contour>
      <point x="392.333" y="231" type="line"/>
      <point x="392.333" y="196" type="line" smooth="yes"/>
      <point x="392.333" y="121.998"/>
      <point x="348.401" y="85"/>
      <point x="259" y="85" type="curve" smooth="yes"/>
      <point x="186.788" y="85"/>
      <point x="150.333" y="109.801"/>
      <point x="150.333" y="159" type="curve" smooth="yes"/>
      <point x="150.333" y="208.672"/>
      <point x="185.368" y="231"/>
      <point x="263.333" y="231" type="curve" smooth="yes"/>
    </contour>
  </outline>
</glyph>
<glyph name="b" format="2">
  <advance width="587"/>
  <unicode hex="0062"/>
  <anchor x="328" y="590" name="top"/>
  <anchor x="328.667" y="-86" name="bottom"/>
  <outline>
    <contour>
      <point x="59.667" y="0" type="line"/>
      <point x="171" y="0" type="line"/>
      <point x="171" y="58.667" type="line"/>
      <point x="207.06" y="13.69"/>
      <point x="259.463" y="-9"/>
      <point x="327.333" y="-9" type="curve" smooth="yes"/>
      <point x="456.763" y="-9"/>
      <point x="539.667" y="86.974"/>
      <point x="539.667" y="236.667" type="curve" smooth="yes"/>
      <point x="539.667" y="299" type="line" smooth="yes"/>
      <point x="539.667" y="449.635"/>
      <point x="460.474" y="539.667"/>
      <point x="328" y="539.667" type="curve" smooth="yes"/>
      <point x="263.697" y="539.667"/>
      <point x="209.068" y="513.645"/>
      <point x="173.333" y="466" type="curve"/>
      <point x="173.333" y="707" type="line"/>
      <point x="59.667" y="707" type="line"/>
    </contour>
    <contour>
      <point x="303" y="92" type="curve" smooth="yes"/>
      <point x="223.661" y="92"/>
      <point x="173.333" y="145.44"/>
      <point x="173.333" y="229.667" type="curve" smooth="yes"/>
      <point x="173.333" y="298" type="line" smooth="yes"/>
      <point x="173.333" y="385.275"/>
      <point x="221.608" y="438.333"/>
      <point x="301" y="438.333" type="curve" smooth="yes"/>
      <point x="383.97" y="438.333"/>
      <point x="426" y="389.691"/>
      <point x="426" y="293.667" type="curve" smooth="yes"/>
      <point x="426" y="241.333" type="line" smooth="yes"/>
      <point x="426" y="144.142"/>
      <point x="383.052" y="92"/>
    </contour>
  </outline>
</glyph>
<glyph name="c" format="2">
  <advance width="570"/>
  <unicode hex="0063"/>
  <anchor x="291" y="596.667" name="top"/>
  <anchor x="259.333" y="0" name="b.cedilla"/>
  <anchor x="236" y="-86" name="bottom"/>
  <outline>
    <contour>
      <point x="410" y="187.667" type="line"/>
      <point x="410" y="183.667" type="line" smooth="yes"/>
      <point x="410" y="126.25"/>
      <point x="367.132" y="92"/>
      <point x="295.333" y="92" type="curve" smooth="yes"/>
      <point x="204.784" y="92"/>
      <point x="162" y="138.76"/>
      <point x="162" y="237.667" type="curve" smooth="yes"/>
      <point x="162" y="293.667" type="line" smooth="yes"/>
      <point x="162" y="390.956"/>
      <point x="205.01" y="438.333"/>
      <point x="293.333" y="438.333" type="curve" smooth="yes"/>
      <point x="366.721" y="438.333"/>
      <point x="410.667" y="402.766"/>
      <point x="410.667" y="343.333" type="curve" smooth="yes"/>
      <point x="410.667" y="339" type="line"/>
      <point x="521.667" y="339" type="line"/>
      <point x="521.667" y="344.667" type="line" smooth="yes"/>
      <point x="521.667" y="466.757"/>
      <point x="435.431" y="539.667"/>
      <point x="291" y="539.667" type="curve" smooth="yes"/>
      <point x="136.317" y="539.667"/>
      <point x="49" y="451.628"/>
      <point x="49" y="295.667" type="curve" smooth="yes"/>
      <point x="49" y="236.333" type="line" smooth="yes"/>
      <point x="49" y="79.929"/>
      <point x="136.843" y="-9"/>
      <point x="291.333" y="-9" type="curve" smooth="yes"/>
      <point x="434.373" y="-9"/>
      <point x="521" y="63.673"/>
      <point x="521" y="183.667" type="curve" smooth="yes"/>
      <point x="521" y="187.667" type="line"/>
    </contour>
  </outline>
</glyph>
<glyph name="d" format="2">
  <advance width="587"/>
  <unicode hex="0064"/>
  <anchor x="270" y="590" name="top"/>
  <anchor x="276.667" y="-86" name="bottom"/>
  <outline>
    <contour>
      <point x="416.667" y="0" type="line"/>
      <point x="527.333" y="0" type="line"/>
      <point x="527.333" y="707" type="line"/>
      <point x="414.667" y="707" type="line"/>
      <point x="414.667" y="468.333" type="line"/>
      <point x="378.524" y="514.766"/>
      <point x="323.917" y="539.667"/>
      <point x="258" y="539.667" type="curve" smooth="yes"/>
      <point x="129.548" y="539.667"/>
      <point x="49" y="446.127"/>
      <point x="49" y="297" type="curve" smooth="yes"/>
      <point x="49" y="233.333" type="line" smooth="yes"/>
      <point x="49" y="82.413"/>
      <point x="128.584" y="-9"/>
      <point x="260" y="-9" type="curve" smooth="yes"/>
      <point x="329.079" y="-9"/>
      <point x="381.881" y="14.159"/>
      <point x="416.667" y="61" type="curve"/>
    </contour>
    <contour>
      <point x="285" y="92" type="curve" smooth="yes"/>
      <point x="204.835" y="92"/>
      <point x="162.667" y="142.662"/>
      <point x="162.667" y="239" type="curve" smooth="yes"/>
      <point x="162.667" y="291.333" type="line" smooth="yes"/>
      <point x="162.667" y="387.558"/>
      <point x="205.497" y="438.333"/>
      <point x="286.667" y="438.333" type="curve" smooth="yes"/>
      <point x="366.815" y="438.333"/>
      <point x="414.667" y="385.884"/>
      <point x="414.667" y="298" type="curve" smooth="yes"/>
      <point x="414.667" y="229.667" type="line" smooth="yes"/>
      <point x="414.667" y="144.333"/>
      <point x="365.376" y="92"/>
    </contour>
  </outline>
</glyph>
<glyph name="e" format="2">
  <advance width="579"/>
  <unicode hex="0065"/>
  <anchor x="290.667" y="596.667" name="top"/>
  <anchor x="291" y="-86" name="bottom"/>
  <anchor x="373.667" y="0" name="b.cedilla"/>
  <outline>
    <contour>
      <point x="162" y="234.333" type="line"/>
      <point x="531.333" y="234.333" type="line"/>
      <point x="531.333" y="296" type="line" smooth="yes"/>
      <point x="531.333" y="450.492"/>
      <point x="443.256" y="539.667"/>
      <point x="290.667" y="539.667" type="curve" smooth="yes"/>
      <point x="137.219" y="539.667"/>
      <point x="49" y="447.802"/>
      <point x="49" y="288" type="curve" smooth="yes"/>
      <point x="49" y="243.333" type="line" smooth="yes"/>
      <point x="49" y="81.948"/>
      <point x="138.869" y="-9"/>
      <point x="298.333" y="-9" type="curve" smooth="yes"/>
      <point x="430.597" y="-9"/>
      <point x="527" y="59.27"/>
      <point x="527" y="162.333" type="curve" smooth="yes"/>
      <point x="527" y="167.667" type="line"/>
      <point x="415.667" y="167.667" type="line"/>
      <point x="415.667" y="164.667" type="line" smooth="yes"/>
      <point x="415.667" y="117.87"/>
      <point x="367.355" y="89.667"/>
      <point x="302.333" y="89.667" type="curve" smooth="yes"/>
      <point x="208.778" y="89.667"/>
      <point x="162" y="136.333"/>
      <point x="162" y="231" type="curve" smooth="yes"/>
    </contour>
    <contour>
      <point x="162" y="314" type="line"/>
      <point x="162" y="317.333" type="line" smooth="yes"/>
      <point x="162" y="398.007"/>
      <point x="209.201" y="441.333"/>
      <point x="290.667" y="441.333" type="curve" smooth="yes"/>
      <point x="371.975" y="441.333"/>
      <point x="417.667" y="398.58"/>
      <point x="417.667" y="322.333" type="curve" smooth="yes"/>
      <point x="417.667" y="314" type="line"/>
    </contour>
  </outline>
</glyph>
<glyph name="g" format="2">
  <advance width="587"/>
  <unicode hex="0067"/>
  <anchor x="274.333" y="596.667" name="top"/>
  <anchor x="236" y="-86" name="bottom"/>
  <outline>
    <contour>
      <point x="61" y="-12.667" type="line"/>
      <point x="66.258" y="-111.891"/>
      <point x="144.713" y="-166.667"/>
      <point x="281.667" y="-166.667" type="curve" smooth="yes"/>
      <point x="436.143" y="-166.667"/>
      <point x="527.333" y="-87.109"/>
      <point x="527.333" y="47.667" type="curve" smooth="yes"/>
      <point x="527.333" y="529.333" type="line"/>
      <point x="415.333" y="529.333" type="line"/>
      <point x="415.333" y="468.667" type="line"/>
      <point x="378.406" y="514.946"/>
      <point x="323.693" y="539.667"/>
      <point x="258" y="539.667" type="curve" smooth="yes"/>
      <point x="128.963" y="539.667"/>
      <point x="49" y="449.114"/>
      <point x="49" y="303" type="curve" smooth="yes"/>
      <point x="49" y="262.333" type="line" smooth="yes"/>
      <point x="49" y="114.602"/>
      <point x="128.657" y="25"/>
      <point x="260" y="25" type="curve"/>
      <point x="328.875" y="24.556"/>
      <point x="381.105" y="48.213"/>
      <point x="415.333" y="95.333" type="curve"/>
      <point x="415.333" y="40.333" type="line"/>
      <point x="415.778" y="-37.488"/>
      <point x="373.504" y="-75.333"/>
      <point x="286" y="-75.333" type="curve" smooth="yes"/>
      <point x="219.709" y="-75.333"/>
      <point x="181.092" y="-54.352"/>
      <point x="170.667" y="-12.667" type="curve"/>
    </contour>
    <contour>
      <point x="284.667" y="126.333" type="curve" smooth="yes"/>
      <point x="204.575" y="126.333"/>
      <point x="162.667" y="174.748"/>
      <point x="162.667" y="267.333" type="curve" smooth="yes"/>
      <point x="162.667" y="297.333" type="line" smooth="yes"/>
      <point x="162.667" y="389.934"/>
      <point x="205.19" y="438.667"/>
      <point x="286" y="438.667" type="curve" smooth="yes"/>
      <point x="365.155" y="438.667"/>
      <point x="414.667" y="386.974"/>
      <point x="414.667" y="304.333" type="curve" smooth="yes"/>
      <point x="414.667" y="260.333" type="line" smooth="yes"/>
      <point x="414.667" y="176.632"/>
      <point x="365.858" y="126.333"/>
    </contour>
  </outline>
</glyph>
<glyph name="h" format="2">
  <advance width="585"/>
  <unicode hex="0068"/>
  <anchor x="308.667" y="770.667" name="top"/>
  <anchor x="310" y="-86" name="bottom"/>
  <outline>
    <contour>
      <point x="59.667" y="0" type="line"/>
      <point x="173.333" y="0" type="line"/>
      <point x="173.333" y="303" type="line" smooth="yes"/>
      <point x="173.333" y="386.844"/>
      <point x="219.112" y="435"/>
      <point x="298.667" y="435" type="curve" smooth="yes"/>
      <point x="373.893" y="435"/>
      <point x="412" y="392.991"/>
      <point x="412" y="310" type="curve" smooth="yes"/>
      <point x="412" y="0" type="line"/>
      <point x="525.667" y="0" type="line"/>
      <point x="525.667" y="331.333" type="line" smooth="yes"/>
      <point x="525.667" y="460.603"/>
      <point x="454.076" y="536"/>
      <point x="331.333" y="536" type="curve" smooth="yes"/>
      <point x="265.432" y="536"/>
      <point x="210.09" y="512.445"/>
      <point x="173.333" y="468.667" type="curve"/>
      <point x="173.333" y="707" type="line"/>
      <point x="59.667" y="707" type="line"/>
    </contour>
  </outline>
</glyph>
<glyph name="i" format="2">
  <advance width="244"/>
  <unicode hex="0069"/>
  <anchor x="178.333" y="0" name="b.cedilla"/>
  <anchor x="121.667" y="-86" name="bottom"/>
  <outline>
    <contour>
      <point x="65.333" y="0" type="line"/>
      <point x="178.333" y="0" type="line"/>
      <point x="178.333" y="529.333" type="line"/>
      <point x="65.333" y="529.333" type="line"/>
    </contour>
    <contour>
      <point x="65.333" y="609" type="line"/>
      <point x="178.333" y="609" type="line"/>
      <point x="178.333" y="708.667" type="line"/>
      <point x="65.333" y="708.667" type="line"/>
    </contour>
  </outline>
</glyph>
<glyph name="j" format="2">
  <advance width="243"/>
  <unicode hex="006A"/>
  <outline>
    <contour>
      <point x="64.333" y="609" type="line"/>
      <point x="177.667" y="609" type="line"/>
      <point x="177.667" y="709" type="line"/>
      <point x="64.333" y="709" type="line"/>
    </contour>
    <contour>
      <point x="-59" y="-159" type="line"/>
      <point x="3.667" y="-159" type="line" smooth="yes"/>
      <point x="121.71" y="-159"/>
      <point x="178" y="-105.059"/>
      <point x="178" y="8" type="curve" smooth="yes"/>
      <point x="178" y="529.333" type="line"/>
      <point x="65" y="529.333" type="line"/>
      <point x="65" y="15.333" type="line" smooth="yes"/>
      <point x="65" y="-40.241"/>
      <point x="45.178" y="-59.667"/>
      <point x="-11.667" y="-59.667" type="curve" smooth="yes"/>
      <point x="-59" y="-59.667" type="line"/>
    </contour>
  </outline>
</glyph>
<glyph name="k" format="2">
  <advance width="584"/>
  <unicode hex="006B"/>
  <anchor x="252.667" y="770.667" name="top"/>
  <anchor x="271" y="-86" name="bottom"/>
  <outline>
    <contour>
      <point x="59.667" y="0" type="line"/>
      <point x="173.333" y="0" type="line"/>
      <point x="173.333" y="707" type="line"/>
      <point x="59.667" y="707" type="line"/>
    </contour>
    <contour>
      <point x="162.5" y="150.928" type="line"/>
      <point x="549.333" y="529.333" type="line"/>
      <point x="404.333" y="529.333" type="line"/>
      <point x="162.5" y="279.965" type="line"/>
    </contour>
    <contour>
      <point x="427.667" y="0" type="line"/>
      <point x="569.333" y="0" type="line"/>
      <point x="330.796" y="337.206" type="line"/>
      <point x="251.737" y="260.061" type="line"/>
    </contour>
  </outline>
</glyph>
<glyph name="l" format="2">
  <advance width="318"/>
  <unicode hex="006C"/>
  <anchor x="116.333" y="770.667" name="top"/>
  <anchor x="187" y="-86" name="bottom"/>
  <anchor x="301" y="397" name="dot"/>
  <outline>
    <contour>
      <point x="297.333" y="0" type="line"/>
      <point x="297.333" y="99.333" type="line"/>
      <point x="250.333" y="99.333" type="line" smooth="yes"/>
      <point x="193.368" y="99.333"/>
      <point x="173.333" y="118.86"/>
      <point x="173.333" y="174.333" type="curve" smooth="yes"/>
      <point x="173.333" y="707" type="line"/>
      <point x="59.667" y="707" type="line"/>
      <point x="59.667" y="167.333" type="line" smooth="yes"/>
      <point x="59.667" y="54.795"/>
      <point x="115.777" y="0"/>
      <point x="231" y="0" type="curve" smooth="yes"/>
    </contour>
  </outline>
</glyph>
<glyph name="m" format="2">
  <advance width="922"/>
  <unicode hex="006D"/>
  <anchor x="461.667" y="596.667" name="top"/>
  <anchor x="236" y="-86" name="bottom"/>
  <outline>
    <contour>
      <point x="59.667" y="0" type="line"/>
      <point x="173.333" y="0" type="line"/>
      <point x="173.333" y="303" type="line" smooth="yes"/>
      <point x="173.333" y="385.938"/>
      <point x="218.98" y="435"/>
      <point x="296" y="435" type="curve" smooth="yes"/>
      <point x="366.379" y="435"/>
      <point x="404.333" y="392.505"/>
      <point x="404.333" y="313.667" type="curve" smooth="yes"/>
      <point x="404.333" y="0" type="line"/>
      <point x="518.333" y="0" type="line"/>
      <point x="518.333" y="307.333" type="line" smooth="yes"/>
      <point x="518.333" y="388.168"/>
      <point x="562.297" y="435"/>
      <point x="638.333" y="435" type="curve" smooth="yes"/>
      <point x="710.961" y="435"/>
      <point x="749" y="392.021"/>
      <point x="749" y="310" type="curve" smooth="yes"/>
      <point x="749" y="0" type="line"/>
      <point x="862.667" y="0" type="line"/>
      <point x="862.667" y="331.333" type="line" smooth="yes"/>
      <point x="862.667" y="460.435"/>
      <point x="787.344" y="536"/>
      <point x="658.667" y="536" type="curve" smooth="yes"/>
      <point x="585.513" y="536"/>
      <point x="528.319" y="511.238"/>
      <point x="483.333" y="460" type="curve"/>
      <point x="450.202" y="508.893"/>
      <point x="394.481" y="536"/>
      <point x="327" y="536" type="curve" smooth="yes"/>
      <point x="263.826" y="536"/>
      <point x="207.517" y="511.484"/>
      <point x="171" y="468" type="curve"/>
      <point x="171" y="529.333" type="line"/>
      <point x="59.667" y="529.333" type="line"/>
    </contour>
  </outline>
</glyph>
<glyph name="n" format="2">
  <advance width="585"/>
  <unicode hex="006E"/>
  <anchor x="298.667" y="596.667" name="top"/>
  <anchor x="299" y="-86" name="bottom"/>
  <anchor x="0" y="760" name="dot"/>
  <outline>
    <contour>
      <point x="59.667" y="0" type="line"/>
      <point x="173.333" y="0" type="line"/>
      <point x="173.333" y="303" type="line" smooth="yes"/>
      <point x="173.333" y="386.844"/>
      <point x="219.112" y="435"/>
      <point x="298.667" y="435" type="curve" smooth="yes"/>
      <point x="373.893" y="435"/>
      <point x="412" y="392.991"/>
      <point x="412" y="310" type="curve" smooth="yes"/>
      <point x="412" y="0" type="line"/>
      <point x="525.667" y="0" type="line"/>
      <point x="525.667" y="331.333" type="line" smooth="yes"/>
      <point x="525.667" y="460.159"/>
      <point x="453.659" y="536"/>
      <point x="331.333" y="536" type="curve" smooth="yes"/>
      <point x="265.201" y="536"/>
      <point x="209.041" y="512.202"/>
      <point x="171" y="468" type="curve"/>
      <point x="171" y="529.333" type="line"/>
      <point x="59.667" y="529.333" type="line"/>
    </contour>
  </outline>
</glyph>
<glyph name="o" format="2">
  <advance width="579"/>
  <unicode hex="006F"/>
  <anchor x="291" y="596.667" name="top"/>
  <anchor x="291" y="-86" name="bottom"/>
  <anchor x="227.667" y="0" name="b.cedilla"/>
  <outline>
    <contour>
      <point x="291.333" y="-9" type="curve" smooth="yes"/>
      <point x="444.044" y="-9"/>
      <point x="530.667" y="79.793"/>
      <point x="530.667" y="236.333" type="curve" smooth="yes"/>
      <point x="530.667" y="295.667" type="line" smooth="yes"/>
      <point x="530.667" y="451.131"/>
      <point x="443.826" y="539.667"/>
      <point x="291.333" y="539.667" type="curve" smooth="yes"/>
      <point x="136.542" y="539.667"/>
      <point x="49" y="451.521"/>
      <point x="49" y="295.667" type="curve" smooth="yes"/>
      <point x="49" y="236.333" type="line" smooth="yes"/>
      <point x="49" y="80"/>
      <point x="136.913" y="-9"/>
    </contour>
    <contour>
      <point x="291" y="92" type="curve" smooth="yes"/>
      <point x="204.998" y="92"/>
      <point x="162" y="141"/>
      <point x="162" y="237.667" type="curve" smooth="yes"/>
      <point x="162" y="293.667" type="line" smooth="yes"/>
      <point x="162" y="390.111"/>
      <point x="205" y="438.333"/>
      <point x="291" y="438.333" type="curve" smooth="yes"/>
      <point x="375.323" y="438.333"/>
      <point x="417.667" y="389.971"/>
      <point x="417.667" y="293.667" type="curve" smooth="yes"/>
      <point x="417.667" y="237.667" type="line" smooth="yes"/>
      <point x="417.667" y="141"/>
      <point x="375.446" y="92"/>
    </contour>
  </outline>
</glyph>
<glyph name="p" format="2">
  <advance width="587"/>
  <unicode hex="0070"/>
  <anchor x="305.667" y="596.667" name="top"/>
  <anchor x="236" y="-86" name="bottom"/>
  <outline>
    <contour>
      <point x="59.667" y="-162" type="line"/>
      <point x="173.333" y="-162" type="line"/>
      <point x="173.333" y="58.667" type="line"/>
      <point x="208.333" y="13.667"/>
      <point x="260.333" y="-9"/>
      <point x="327.333" y="-9" type="curve" smooth="yes"/>
      <point x="456.667" y="-9"/>
      <point x="539.667" y="87"/>
      <point x="539.667" y="236.667" type="curve" smooth="yes"/>
      <point x="539.667" y="299" type="line" smooth="yes"/>
      <point x="539.667" y="449.333"/>
      <point x="460.667" y="539.333"/>
      <point x="328" y="539.333" type="curve" smooth="yes"/>
      <point x="262.667" y="539.333"/>
      <point x="209.333" y="514.667"/>
      <point x="171" y="466" type="curve"/>
      <point x="171" y="529.333" type="line"/>
      <point x="59.667" y="529.333" type="line"/>
    </contour>
    <contour>
      <point x="303" y="92" type="curve" smooth="yes"/>
      <point x="223.667" y="92"/>
      <point x="173.333" y="145.667"/>
      <point x="173.333" y="229.667" type="curve" smooth="yes"/>
      <point x="173.333" y="298" type="line" smooth="yes"/>
      <point x="173.333" y="385.333"/>
      <point x="221.667" y="438.333"/>
      <point x="301" y="438.333" type="curve" smooth="yes"/>
      <point x="384" y="438.333"/>
      <point x="426" y="389.333"/>
      <point x="426" y="293.333" type="curve" smooth="yes"/>
      <point x="426" y="241.333" type="line" smooth="yes"/>
      <point x="426" y="144.667"/>
      <point x="383" y="92"/>
    </contour>
  </outline>
</glyph>
<glyph name="q" format="2">
  <advance width="587"/>
  <unicode hex="0071"/>
  <anchor x="284.667" y="596.667" name="top"/>
  <anchor x="236" y="-86" name="bottom"/>
  <outline>
    <contour>
      <point x="414.667" y="-162" type="line"/>
      <point x="527.333" y="-162" type="line"/>
      <point x="527.333" y="529.333" type="line"/>
      <point x="416.667" y="529.333" type="line"/>
      <point x="416.667" y="468.333" type="line"/>
      <point x="378.802" y="514.684"/>
      <point x="324.367" y="539.333"/>
      <point x="259.667" y="539.333" type="curve" smooth="yes"/>
      <point x="129.56" y="539.333"/>
      <point x="49" y="446.648"/>
      <point x="49" y="297" type="curve" smooth="yes"/>
      <point x="49" y="233.333" type="line" smooth="yes"/>
      <point x="49" y="81.842"/>
      <point x="128.088" y="-9"/>
      <point x="260" y="-9" type="curve" smooth="yes"/>
      <point x="327.968" y="-9"/>
      <point x="380.429" y="14.31"/>
      <point x="414.667" y="61" type="curve"/>
    </contour>
    <contour>
      <point x="285" y="92" type="curve" smooth="yes"/>
      <point x="204.835" y="92"/>
      <point x="162.667" y="142.662"/>
      <point x="162.667" y="239" type="curve" smooth="yes"/>
      <point x="162.667" y="291.333" type="line" smooth="yes"/>
      <point x="162.667" y="387.558"/>
      <point x="205.497" y="438.333"/>
      <point x="286.667" y="438.333" type="curve" smooth="yes"/>
      <point x="366.815" y="438.333"/>
      <point x="414.667" y="385.884"/>
      <point x="414.667" y="298" type="curve" smooth="yes"/>
      <point x="414.667" y="229.667" type="line" smooth="yes"/>
      <point x="414.667" y="144.333"/>
      <point x="365.376" y="92"/>
    </contour>
  </outline>
</glyph>
<glyph name="r" format="2">
  <advance width="398"/>
  <unicode hex="0072"/>
  <anchor x="206" y="596.667" name="top"/>
  <anchor x="206" y="-86" name="bottom"/>
  <outline>
    <contour>
      <point x="59.667" y="0" type="line"/>
      <point x="173.333" y="0" type="line"/>
      <point x="173.333" y="297.333" type="line" smooth="yes"/>
      <point x="173.333" y="387.111"/>
      <point x="224.444" y="439.333"/>
      <point x="308" y="439.333" type="curve" smooth="yes"/>
      <point x="332.893" y="439.333"/>
      <point x="356.222" y="435.222"/>
      <point x="378" y="427.667" type="curve"/>
      <point x="378" y="536" type="line"/>
      <point x="364.889" y="538.444"/>
      <point x="349.111" y="539.667"/>
      <point x="330.667" y="539.667" type="curve" smooth="yes"/>
      <point x="263.556" y="539.667"/>
      <point x="207" y="515.222"/>
      <point x="171" y="465" type="curve"/>
      <point x="171" y="529.333" type="line"/>
      <point x="59.667" y="529.333" type="line"/>
    </contour>
  </outline>
</glyph>
<glyph name="s" format="2">
  <advance width="535"/>
  <unicode hex="0073"/>
  <anchor x="266" y="596.667" name="top"/>
  <anchor x="233" y="0" name="b.cedilla"/>
  <anchor x="266" y="-86" name="bottom"/>
  <outline>
    <contour>
      <point x="39.667" y="164.667" type="line"/>
      <point x="39.667" y="161.667" type="line" smooth="yes"/>
      <point x="39.667" y="57.955"/>
      <point x="126.002" y="-6"/>
      <point x="266" y="-6" type="curve" smooth="yes"/>
      <point x="414.529" y="-6"/>
      <point x="501.333" y="55.966"/>
      <point x="501.333" y="162" type="curve" smooth="yes"/>
      <point x="501.333" y="249.494"/>
      <point x="442.86" y="296.31"/>
      <point x="323.333" y="311.667" type="curve" smooth="yes"/>
      <point x="240.333" y="322.333" type="line" smooth="yes"/>
      <point x="179.98" y="330.072"/>
      <point x="154.667" y="345.887"/>
      <point x="154.667" y="382" type="curve" smooth="yes"/>
      <point x="154.667" y="424.649"/>
      <point x="192.284" y="446.333"/>
      <point x="266.333" y="446.333" type="curve" smooth="yes"/>
      <point x="344.593" y="446.333"/>
      <point x="385.333" y="422.106"/>
      <point x="385.333" y="375.667" type="curve" smooth="yes"/>
      <point x="385.333" y="372.667" type="line"/>
      <point x="491.667" y="372.667" type="line"/>
      <point x="491.667" y="376.667" type="line" smooth="yes"/>
      <point x="491.667" y="475.739"/>
      <point x="406.276" y="536.333"/>
      <point x="266.667" y="536.333" type="curve" smooth="yes"/>
      <point x="129.578" y="536.333"/>
      <point x="47.667" y="475.872"/>
      <point x="47.667" y="374.667" type="curve" smooth="yes"/>
      <point x="47.667" y="286.311"/>
      <point x="101.817" y="239.775"/>
      <point x="220.667" y="226" type="curve" smooth="yes"/>
      <point x="298.333" y="217" type="line" smooth="yes"/>
      <point x="365.577" y="209.176"/>
      <point x="393" y="191.738"/>
      <point x="393" y="155" type="curve" smooth="yes"/>
      <point x="393" y="110.629"/>
      <point x="350.223" y="86.333"/>
      <point x="272" y="86.333" type="curve" smooth="yes"/>
      <point x="191.542" y="86.333"/>
      <point x="146.667" y="112.655"/>
      <point x="146.667" y="161.667" type="curve" smooth="yes"/>
      <point x="146.667" y="164.667" type="line"/>
    </contour>
  </outline>
</glyph>
<glyph name="t" format="2">
  <advance width="400"/>
  <unicode hex="0074"/>
  <anchor x="219.667" y="-86" name="bottom"/>
  <anchor x="177.333" y="770.667" name="top"/>
  <outline>
    <contour>
      <point x="349" y="0" type="line"/>
      <point x="349" y="97.333" type="line"/>
      <point x="304.333" y="97.333" type="line" smooth="yes"/>
      <point x="253.189" y="97.333"/>
      <point x="233.667" y="116.476"/>
      <point x="233.667" y="166.667" type="curve" smooth="yes"/>
      <point x="233.667" y="448.333" type="line"/>
      <point x="360.667" y="448.333" type="line"/>
      <point x="360.667" y="529.333" type="line"/>
      <point x="233.667" y="529.333" type="line"/>
      <point x="233.667" y="678.667" type="line"/>
      <point x="120.667" y="637.333" type="line"/>
      <point x="120.667" y="529.333" type="line"/>
      <point x="28" y="529.333" type="line"/>
      <point x="28" y="448.333" type="line"/>
      <point x="120.667" y="448.333" type="line"/>
      <point x="120.667" y="159.667" type="line" smooth="yes"/>
      <point x="120.667" y="55.647"/>
      <point x="177.691" y="0"/>
      <point x="284.333" y="0" type="curve" smooth="yes"/>
    </contour>
  </outline>
</glyph>
<glyph name="u" format="2">
  <advance width="585"/>
  <unicode hex="0075"/>
  <anchor x="292.333" y="596.667" name="top"/>
  <anchor x="293" y="-86" name="bottom"/>
  <anchor x="368.667" y="0" name="b.cedilla"/>
  <outline>
    <contour>
      <point x="59.667" y="529.333" type="line"/>
      <point x="59.667" y="218" type="line" smooth="yes"/>
      <point x="59.667" y="69.929"/>
      <point x="140.241" y="-8.333"/>
      <point x="292.667" y="-8.333" type="curve" smooth="yes"/>
      <point x="446.024" y="-8.333"/>
      <point x="525.667" y="69.004"/>
      <point x="525.667" y="218" type="curve" smooth="yes"/>
      <point x="525.667" y="529.333" type="line"/>
      <point x="412" y="529.333" type="line"/>
      <point x="412" y="225" type="line" smooth="yes"/>
      <point x="412" y="134.475"/>
      <point x="374.598" y="93"/>
      <point x="293" y="93" type="curve" smooth="yes"/>
      <point x="212.366" y="93"/>
      <point x="173.333" y="136.03"/>
      <point x="173.333" y="225" type="curve" smooth="yes"/>
      <point x="173.333" y="529.333" type="line"/>
    </contour>
  </outline>
</glyph>
<glyph name="v" format="2">
  <advance width="542"/>
  <unicode hex="0076"/>
  <anchor x="271.667" y="596.667" name="top"/>
  <anchor x="271.667" y="-86" name="bottom"/>
  <outline>
    <contour>
      <point x="222" y="0" type="line"/>
      <point x="320.333" y="0" type="line"/>
      <point x="532.667" y="529.333" type="line"/>
      <point x="410.333" y="529.333" type="line"/>
      <point x="271.667" y="150.333" type="line"/>
      <point x="132.667" y="529.333" type="line"/>
      <point x="10.333" y="529.333" type="line"/>
    </contour>
  </outline>
</glyph>
<glyph name="w" format="2">
  <advance width="843"/>
  <unicode hex="0077"/>
  <anchor x="421.667" y="596.667" name="top"/>
  <anchor x="423" y="-86" name="bottom"/>
  <anchor x="421.667" y="584.667" name="t.ring"/>
  <outline>
    <contour>
      <point x="192" y="0" type="line"/>
      <point x="292.333" y="0" type="line"/>
      <point x="421.667" y="373" type="line"/>
      <point x="550.333" y="0" type="line"/>
      <point x="650.333" y="0" type="line"/>
      <point x="833.333" y="529.333" type="line"/>
      <point x="711.667" y="529.333" type="line"/>
      <point x="597.333" y="154.333" type="line"/>
      <point x="465" y="529.333" type="line"/>
      <point x="378" y="529.333" type="line"/>
      <point x="247.333" y="154.333" type="line"/>
      <point x="130.667" y="529.333" type="line"/>
      <point x="10.333" y="529.333" type="line"/>
    </contour>
  </outline>
</glyph>
<glyph name="x" format="2">
  <advance width="517"/>
  <unicode hex="0078"/>
  <anchor x="255.667" y="596.667" name="top"/>
  <anchor x="236" y="-86" name="bottom"/>
  <outline>
    <contour>
      <point x="10.333" y="0" type="line"/>
      <point x="134" y="0" type="line"/>
      <point x="255.667" y="186.667" type="line"/>
      <point x="383.667" y="0" type="line"/>
      <point x="506.667" y="0" type="line"/>
      <point x="318" y="275.667" type="line"/>
      <point x="496" y="529.333" type="line"/>
      <point x="373" y="529.333" type="line"/>
      <point x="261" y="359.333" type="line"/>
      <point x="144.667" y="529.333" type="line"/>
      <point x="20.333" y="529.333" type="line"/>
      <point x="197" y="272" type="line"/>
    </contour>
  </outline>
</glyph>
<glyph name="y" format="2">
  <advance width="543"/>
  <unicode hex="0079"/>
  <anchor x="270.667" y="596.667" name="top"/>
  <anchor x="424" y="-112.667" name="dot"/>
  <anchor x="270.667" y="584.667" name="t.ring"/>
  <outline>
    <contour>
      <point x="84.333" y="-157.667" type="line"/>
      <point x="129.333" y="-157.667" type="line" smooth="yes"/>
      <point x="222.163" y="-157.667"/>
      <point x="276.9" y="-123.816"/>
      <point x="306.667" y="-48" type="curve" smooth="yes"/>
      <point x="533.333" y="529.333" type="line"/>
      <point x="415" y="529.333" type="line"/>
      <point x="279" y="154.667" type="line"/>
      <point x="132.667" y="529.333" type="line"/>
      <point x="10.333" y="529.333" type="line"/>
      <point x="225.667" y="7.333" type="line"/>
      <point x="221.667" y="-4.333" type="line" smooth="yes"/>
      <point x="208.264" y="-43.647"/>
      <point x="186.777" y="-55.333"/>
      <point x="133.333" y="-55.333" type="curve" smooth="yes"/>
      <point x="84.333" y="-55.333" type="line"/>
    </contour>
  </outline>
</glyph>
<glyph name="z" format="2">
  <advance width="513"/>
  <unicode hex="007A"/>
  <anchor x="254.667" y="596.667" name="top"/>
  <anchor x="255.667" y="-86" name="bottom"/>
  <outline>
    <contour>
      <point x="49" y="0" type="line"/>
      <point x="464.333" y="0" type="line"/>
      <point x="464.333" y="96.333" type="line"/>
      <point x="180" y="96.333" type="line"/>
      <point x="464.333" y="432.667" type="line"/>
      <point x="464.333" y="529.333" type="line"/>
      <point x="49" y="529.333" type="line"/>
      <point x="49" y="432.667" type="line"/>
      <point x="332.667" y="432.667" type="line"/>
      <point x="49" y="96.333" type="line"/>
    </contour>
  </outline>
</glyph>
<glyph name="braceleft" format="2">
  <advance width="395"/>
  <unicode hex="007B"/>
  <outline>
    <contour>
      <point x="349.667" y="-86" type="line"/>
      <point x="349.667" y="7" type="line"/>
      <point x="305.333" y="7" type="line" smooth="yes"/>
      <point x="262.059" y="7"/>
      <point x="245.667" y="21.153"/>
      <point x="245.667" y="58.333" type="curve" smooth="yes"/>
      <point x="245.667" y="210" type="line" smooth="yes"/>
      <point x="245.667" y="285.685"/>
      <point x="227.214" y="319.701"/>
      <point x="176.333" y="338" type="curve"/>
      <point x="227.136" y="356.271"/>
      <point x="245.667" y="390.523"/>
      <point x="245.667" y="466.333" type="curve" smooth="yes"/>
      <point x="245.667" y="613.667" type="line" smooth="yes"/>
      <point x="245.667" y="650.382"/>
      <point x="261.964" y="664.333"/>
      <point x="305.333" y="664.333" type="curve" smooth="yes"/>
      <point x="349.667" y="664.333" type="line"/>
      <point x="349.667" y="758" type="line"/>
      <point x="270.667" y="758" type="line" smooth="yes"/>
      <point x="181.111" y="758"/>
      <point x="136.333" y="716"/>
      <point x="136.333" y="632" type="curve" smooth="yes"/>
      <point x="136.333" y="469.333" type="line" smooth="yes"/>
      <point x="136.333" y="409.693"/>
      <point x="111.912" y="387.333"/>
      <point x="45" y="387.333" type="curve"/>
      <point x="45" y="289" type="line"/>
      <point x="112.024" y="289"/>
      <point x="136.333" y="266.655"/>
      <point x="136.333" y="206.667" type="curve" smooth="yes"/>
      <point x="136.333" y="40.667" type="line" smooth="yes"/>
      <point x="136.333" y="-43.778"/>
      <point x="181.111" y="-86"/>
      <point x="270.667" y="-86" type="curve" smooth="yes"/>
    </contour>
  </outline>
</glyph>
<glyph name="asciitilde" format="2">
  <advance width="534"/>
  <unicode hex="007E"/>
  <outline>
    <contour>
      <point x="116" y="205.667" type="line"/>
      <point x="139.218" y="248.481"/>
      <point x="157.477" y="263.333"/>
      <point x="187" y="263.333" type="curve" smooth="yes"/>
      <point x="237.517" y="263.333"/>
      <point x="278.298" y="204"/>
      <point x="350.667" y="204" type="curve" smooth="yes"/>
      <point x="411.417" y="204"/>
      <point x="462.604" y="242.572"/>
      <point x="494" y="312" type="curve"/>
      <point x="419.667" y="357.667" type="line"/>
      <point x="397.547" y="315.203"/>
      <point x="378.278" y="299.667"/>
      <point x="347.667" y="299.667" type="curve" smooth="yes"/>
      <point x="299.727" y="299.667"/>
      <point x="252.972" y="358"/>
      <point x="183" y="358" type="curve" smooth="yes"/>
      <point x="123.248" y="358"/>
      <point x="73.672" y="320.553"/>
      <point x="41.333" y="251" type="curve"/>
    </contour>
  </outline>
</glyph>
<glyph name="cent" format="2">
  <advance width="570"/>
  <unicode hex="00A2"/>
  <outline>
    <contour>
      <point x="257.667" y="-102" type="line"/>
      <point x="328" y="-102" type="line"/>
      <point x="328" y="-7.333" type="line"/>
      <point x="449.993" y="3.804"/>
      <point x="521" y="74.075"/>
      <point x="521" y="183.667" type="curve" smooth="yes"/>
      <point x="521" y="187.667" type="line"/>
      <point x="410" y="187.667" type="line"/>
      <point x="410" y="183.667" type="line" smooth="yes"/>
      <point x="410" y="126.335"/>
      <point x="366.681" y="91.798"/>
      <point x="294.809" y="91.798" type="curve" smooth="yes"/>
      <point x="205.018" y="91.798"/>
      <point x="162" y="139.086"/>
      <point x="162" y="237.667" type="curve" smooth="yes"/>
      <point x="162" y="293.667" type="line" smooth="yes"/>
      <point x="162" y="390.616"/>
      <point x="205.269" y="438.54"/>
      <point x="292.831" y="438.54" type="curve" smooth="yes"/>
      <point x="366.585" y="438.54"/>
      <point x="410.667" y="402.937"/>
      <point x="410.667" y="343.333" type="curve" smooth="yes"/>
      <point x="410.667" y="339" type="line"/>
      <point x="521.667" y="339" type="line"/>
      <point x="521.667" y="344.667" type="line" smooth="yes"/>
      <point x="521.667" y="455.895"/>
      <point x="450.548" y="526.894"/>
      <point x="328" y="538" type="curve"/>
      <point x="328" y="630.667" type="line"/>
      <point x="257.667" y="630.667" type="line"/>
      <point x="257.667" y="538.667" type="line"/>
      <point x="123.103" y="524.936"/>
      <point x="49" y="438.64"/>
      <point x="49" y="295.667" type="curve" smooth="yes"/>
      <point x="49" y="236.333" type="line" smooth="yes"/>
      <point x="49" y="91.313"/>
      <point x="123.351" y="4.252"/>
      <point x="257.667" y="-8" type="curve"/>
    </contour>
  </outline>
</glyph>
<glyph name="sterling" format="2">
  <advance width="524"/>
  <unicode hex="00A3"/>
  <outline>
    <contour>
      <point x="51" y="0" type="line"/>
      <point x="499.333" y="0" type="line"/>
      <point x="499.333" y="105.333" type="line"/>
      <point x="187.333" y="105.333" type="line"/>
      <point x="211.772" y="129.772"/>
      <point x="223.333" y="163.185"/>
      <point x="223.333" y="209.333" type="curve" smooth="yes"/>
      <point x="223.333" y="286.667" type="line"/>
      <point x="392" y="286.667" type="line"/>
      <point x="392" y="391.333" type="line"/>
      <point x="223.333" y="391.333" type="line"/>
      <point x="223.333" y="528" type="line" smooth="yes"/>
      <point x="223.333" y="584.234"/>
      <point x="251.568" y="613.667"/>
      <point x="305.333" y="613.667" type="curve" smooth="yes"/>
      <point x="358.633" y="613.667"/>
      <point x="385.333" y="590.138"/>
      <point x="385.333" y="543" type="curve"/>
      <point x="498.333" y="543" type="line"/>
      <point x="498.333" y="652.981"/>
      <point x="426.898" y="717"/>
      <point x="304.333" y="717" type="curve" smooth="yes"/>
      <point x="176.003" y="717"/>
      <point x="103" y="643.462"/>
      <point x="103" y="514" type="curve" smooth="yes"/>
      <point x="103" y="391.333" type="line"/>
      <point x="30" y="391.333" type="line"/>
      <point x="30" y="286.667" type="line"/>
      <point x="103" y="286.667" type="line"/>
      <point x="103" y="197.333" type="line" smooth="yes"/>
      <point x="103" y="142.543"/>
      <point x="88.693" y="115.853"/>
      <point x="51" y="100.333" type="curve"/>
    </contour>
  </outline>
</glyph>
<glyph name="currency" format="2">
  <advance width="613"/>
  <unicode hex="00A4"/>
  <outline>
    <contour>
      <point x="128.333" y="81.667" type="line"/>
      <point x="196.667" y="149" type="line"/>
      <point x="229.111" y="129"/>
      <point x="265.444" y="119"/>
      <point x="305.667" y="119" type="curve" smooth="yes"/>
      <point x="346.559" y="119"/>
      <point x="383.222" y="128.556"/>
      <point x="415.667" y="149" type="curve"/>
      <point x="484.333" y="80.667" type="line"/>
      <point x="553" y="149.667" type="line"/>
      <point x="484" y="218" type="line"/>
      <point x="503.556" y="250.667"/>
      <point x="513.333" y="286.778"/>
      <point x="513.333" y="326.333" type="curve" smooth="yes"/>
      <point x="513.333" y="364.556"/>
      <point x="503.222" y="400.222"/>
      <point x="483" y="433.333" type="curve"/>
      <point x="552" y="503" type="line"/>
      <point x="484" y="571" type="line"/>
      <point x="414.667" y="503.333" type="line"/>
      <point x="381.333" y="522.667"/>
      <point x="345" y="532.333"/>
      <point x="305.667" y="532.333" type="curve" smooth="yes"/>
      <point x="266.552" y="532.333"/>
      <point x="230.444" y="523.111"/>
      <point x="197.333" y="503.333" type="curve"/>
      <point x="128.333" y="571" type="line"/>
      <point x="59.667" y="503" type="line"/>
      <point x="129" y="433" type="line"/>
      <point x="109" y="400.778"/>
      <point x="99" y="365.222"/>
      <point x="99" y="326.333" type="curve" smooth="yes"/>
      <point x="99" y="285.889"/>
      <point x="108.667" y="250"/>
      <point x="128" y="218.667" type="curve"/>
      <point x="59.667" y="150.667" type="line"/>
    </contour>
    <contour>
      <point x="305.667" y="210.667" type="curve" smooth="yes"/>
      <point x="242.089" y="210.667"/>
      <point x="194.333" y="260.283"/>
      <point x="194.333" y="326.333" type="curve" smooth="yes"/>
      <point x="194.333" y="391.999"/>
      <point x="241.724" y="440.667"/>
      <point x="305.667" y="440.667" type="curve" smooth="yes"/>
      <point x="370.868" y="440.667"/>
      <point x="418.333" y="392.502"/>
      <point x="418.333" y="326.333" type="curve" smooth="yes"/>
      <point x="418.333" y="259.329"/>
      <point x="370.935" y="210.667"/>
    </contour>
  </outline>
</glyph>
<glyph name="yen" format="2">
  <advance width="562"/>
  <unicode hex="00A5"/>
  <outline>
    <contour>
      <point x="60.333" y="128.667" type="line"/>
      <point x="221.333" y="128.667" type="line"/>
      <point x="221.333" y="0" type="line"/>
      <point x="341" y="0" type="line"/>
      <point x="341" y="128.667" type="line"/>
      <point x="502.333" y="128.667" type="line"/>
      <point x="502.333" y="211.333" type="line"/>
      <point x="341" y="211.333" type="line"/>
      <point x="341" y="270" type="line"/>
      <point x="502.333" y="270" type="line"/>
      <point x="502.333" y="352.667" type="line"/>
      <point x="363.667" y="352.667" type="line"/>
      <point x="554.667" y="707" type="line"/>
      <point x="423.667" y="707" type="line"/>
      <point x="283.667" y="411.333" type="line"/>
      <point x="139.333" y="707" type="line"/>
      <point x="7.667" y="707" type="line"/>
      <point x="199.667" y="352.667" type="line"/>
      <point x="60.333" y="352.667" type="line"/>
      <point x="60.333" y="270" type="line"/>
      <point x="221.333" y="270" type="line"/>
      <point x="221.333" y="211.333" type="line"/>
      <point x="60.333" y="211.333" type="line"/>
    </contour>
  </outline>
</glyph>
<glyph name="section" format="2">
  <advance width="573"/>
  <unicode hex="00A7"/>
  <outline>
    <contour>
      <point x="81" y="2.333" type="line"/>
      <point x="81" y="-109.122"/>
      <point x="153.985" y="-172"/>
      <point x="283.333" y="-172" type="curve" smooth="yes"/>
      <point x="407.382" y="-172"/>
      <point x="486.333" y="-108.356"/>
      <point x="486.333" y="-8.333" type="curve" smooth="yes"/>
      <point x="486.333" y="56.974"/>
      <point x="460.843" y="98.282"/>
      <point x="404" y="125.333" type="curve"/>
      <point x="470.369" y="151.488"/>
      <point x="508.333" y="210.453"/>
      <point x="508.333" y="287.333" type="curve" smooth="yes"/>
      <point x="508.333" y="388.325"/>
      <point x="450.572" y="445.333"/>
      <point x="341.333" y="474.333" type="curve" smooth="yes"/>
      <point x="251.468" y="498.184"/>
      <point x="201" y="525.45"/>
      <point x="201" y="569.333" type="curve" smooth="yes"/>
      <point x="201" y="612.979"/>
      <point x="232.76" y="637.333"/>
      <point x="289.667" y="637.333" type="curve" smooth="yes"/>
      <point x="351.063" y="637.333"/>
      <point x="383" y="611.111"/>
      <point x="383" y="560.667" type="curve"/>
      <point x="487.667" y="560.667" type="line"/>
      <point x="487.667" y="669.192"/>
      <point x="415.199" y="732.333"/>
      <point x="290.667" y="732.333" type="curve" smooth="yes"/>
      <point x="170.476" y="732.333"/>
      <point x="90.333" y="667.407"/>
      <point x="90.333" y="570" type="curve" smooth="yes"/>
      <point x="90.333" y="508.896"/>
      <point x="116.462" y="466.144"/>
      <point x="169.667" y="440.333" type="curve"/>
      <point x="101.596" y="412.043"/>
      <point x="64.667" y="355.534"/>
      <point x="64.667" y="279.667" type="curve" smooth="yes"/>
      <point x="64.667" y="179.537"/>
      <point x="116.068" y="121.542"/>
      <point x="233" y="90.333" type="curve" smooth="yes"/>
      <point x="332.675" y="63.729"/>
      <point x="376.333" y="39.89"/>
      <point x="376.333" y="-7.333" type="curve" smooth="yes"/>
      <point x="376.333" y="-52.42"/>
      <point x="343.735" y="-77"/>
      <point x="284" y="-77" type="curve" smooth="yes"/>
      <point x="219.673" y="-77"/>
      <point x="186.333" y="-49.935"/>
      <point x="186.333" y="2.333" type="curve"/>
    </contour>
    <contour>
      <point x="176" y="282.667" type="curve" smooth="yes"/>
      <point x="176" y="345.688"/>
      <point x="215.116" y="379.667"/>
      <point x="287.667" y="379.667" type="curve" smooth="yes"/>
      <point x="358.791" y="379.667"/>
      <point x="397" y="345.766"/>
      <point x="397" y="282.667" type="curve" smooth="yes"/>
      <point x="397" y="220.119"/>
      <point x="358.167" y="185.667"/>
      <point x="287.667" y="185.667" type="curve" smooth="yes"/>
      <point x="215.412" y="185.667"/>
      <point x="176" y="219.892"/>
    </contour>
  </outline>
</glyph>
<glyph name="dieresis" format="2">
  <advance width="512"/>
  <unicode hex="00A8"/>
  <outline>
    <contour>
      <point x="90" y="596" type="line"/>
      <point x="192.333" y="596" type="line"/>
      <point x="192.333" y="707.667" type="line"/>
      <point x="90" y="707.667" type="line"/>
    </contour>
    <contour>
      <point x="319.667" y="596" type="line"/>
      <point x="421.667" y="596" type="line"/>
      <point x="421.667" y="707.667" type="line"/>
      <point x="319.667" y="707.667" type="line"/>
    </contour>
  </outline>
</glyph>
<glyph name="copyright" format="2">
  <advance width="809"/>
  <unicode hex="00A9"/>
  <outline>
    <contour>
      <point x="409" y="-9" type="curve" smooth="yes"/>
      <point x="619.333" y="-9"/>
      <point x="758.667" y="134.333"/>
      <point x="758.667" y="349.667" type="curve" smooth="yes"/>
      <point x="758.667" y="565.667"/>
      <point x="619" y="709.333"/>
      <point x="409" y="709.333" type="curve" smooth="yes"/>
      <point x="198.333" y="709.333"/>
      <point x="58" y="566"/>
      <point x="58" y="349.667" type="curve" smooth="yes"/>
      <point x="58" y="134"/>
      <point x="198" y="-9"/>
    </contour>
    <contour>
      <point x="409" y="63.667" type="curve" smooth="yes"/>
      <point x="240.333" y="63.667"/>
      <point x="135.333" y="173.667"/>
      <point x="135.333" y="349.667" type="curve" smooth="yes"/>
      <point x="135.333" y="526.333"/>
      <point x="240.667" y="636.667"/>
      <point x="409" y="636.667" type="curve" smooth="yes"/>
      <point x="576.333" y="636.667"/>
      <point x="681.333" y="526"/>
      <point x="681.333" y="349.667" type="curve" smooth="yes"/>
      <point x="681.333" y="173.333"/>
      <point x="577" y="63.667"/>
    </contour>
    <contour>
      <point x="492.333" y="293" type="line"/>
      <point x="492.333" y="289.667" type="line" smooth="yes"/>
      <point x="492.333" y="249"/>
      <point x="463" y="224.667"/>
      <point x="414" y="224.667" type="curve" smooth="yes"/>
      <point x="352.333" y="224.667"/>
      <point x="322" y="259"/>
      <point x="322" y="329.333" type="curve" smooth="yes"/>
      <point x="322" y="371.333" type="line" smooth="yes"/>
      <point x="322" y="441"/>
      <point x="351.667" y="474.667"/>
      <point x="412.333" y="474.667" type="curve" smooth="yes"/>
      <point x="462.333" y="474.667"/>
      <point x="492.333" y="450.333"/>
      <point x="492.333" y="409.333" type="curve" smooth="yes"/>
      <point x="492.333" y="405.667" type="line"/>
      <point x="574.333" y="405.667" type="line"/>
      <point x="574.333" y="411" type="line" smooth="yes"/>
      <point x="574.333" y="496.333"/>
      <point x="511.667" y="549.333"/>
      <point x="410" y="549.333" type="curve" smooth="yes"/>
      <point x="301.667" y="549.333"/>
      <point x="238.667" y="484"/>
      <point x="238.667" y="372.667" type="curve" smooth="yes"/>
      <point x="238.667" y="328.667" type="line" smooth="yes"/>
      <point x="238.667" y="216.333"/>
      <point x="301.333" y="152"/>
      <point x="410" y="152" type="curve" smooth="yes"/>
      <point x="511.667" y="152"/>
      <point x="574" y="204.667"/>
      <point x="574" y="289.667" type="curve" smooth="yes"/>
      <point x="574" y="293" type="line"/>
    </contour>
  </outline>
</glyph>
<glyph name="ordfeminine" format="2">
  <advance width="388"/>
  <unicode hex="00AA"/>
  <outline>
    <contour>
      <point x="257" y="440" type="line"/>
      <point x="339" y="440" type="line"/>
      <point x="339" y="641.667" type="line" smooth="yes"/>
      <point x="339" y="724.667"/>
      <point x="289.333" y="766"/>
      <point x="189" y="766" type="curve" smooth="yes"/>
      <point x="101" y="766"/>
      <point x="49.333" y="729.667"/>
      <point x="49.333" y="667.333" type="curve" smooth="yes"/>
      <point x="49.333" y="664.333" type="line"/>
      <point x="128" y="664.333" type="line"/>
      <point x="128" y="667.333" type="line" smooth="yes"/>
      <point x="128" y="689"/>
      <point x="149.667" y="702"/>
      <point x="187" y="702" type="curve" smooth="yes"/>
      <point x="233.333" y="702"/>
      <point x="254" y="685"/>
      <point x="254" y="647" type="curve" smooth="yes"/>
      <point x="254" y="632.667" type="line"/>
      <point x="168.667" y="632.667" type="line" smooth="yes"/>
      <point x="83.333" y="632.667"/>
      <point x="39.333" y="600.333"/>
      <point x="39.333" y="538.333" type="curve" smooth="yes"/>
      <point x="39.333" y="474"/>
      <point x="84.333" y="436"/>
      <point x="160.333" y="436" type="curve" smooth="yes"/>
      <point x="201.333" y="436"/>
      <point x="231.333" y="447"/>
      <point x="257" y="472" type="curve"/>
    </contour>
    <contour>
      <point x="254" y="576" type="line"/>
      <point x="254" y="565" type="line" smooth="yes"/>
      <point x="254" y="524"/>
      <point x="229.333" y="504"/>
      <point x="179" y="504" type="curve" smooth="yes"/>
      <point x="142" y="504"/>
      <point x="121.667" y="517.333"/>
      <point x="121.667" y="541.333" type="curve" smooth="yes"/>
      <point x="121.667" y="565"/>
      <point x="140.667" y="576"/>
      <point x="179.333" y="576" type="curve" smooth="yes"/>
    </contour>
  </outline>
</glyph>
<glyph name="guillemotleft" format="2">
  <advance width="585"/>
  <unicode hex="00AB"/>
  <outline>
    <contour>
      <point x="20" y="270" type="line"/>
      <point x="274" y="45.333" type="line"/>
      <point x="274" y="162" type="line"/>
      <point x="149.667" y="270" type="line"/>
      <point x="274" y="379" type="line"/>
      <point x="274" y="495.333" type="line"/>
    </contour>
    <contour>
      <point x="272.667" y="270" type="line"/>
      <point x="526.333" y="45.333" type="line"/>
      <point x="526.333" y="162" type="line"/>
      <point x="401" y="270" type="line"/>
      <point x="526.333" y="379" type="line"/>
      <point x="526.333" y="495.333" type="line"/>
    </contour>
  </outline>
</glyph>
<glyph name="logicalnot" format="2">
  <advance width="534"/>
  <unicode hex="00AC"/>
  <outline>
    <contour>
      <point x="52" y="262.333" type="line"/>
      <point x="369" y="262.333" type="line"/>
      <point x="369" y="126" type="line"/>
      <point x="481.667" y="126" type="line"/>
      <point x="481.667" y="364.667" type="line"/>
      <point x="52" y="364.667" type="line"/>
    </contour>
  </outline>
</glyph>
<glyph name="registered" format="2">
  <advance width="514"/>
  <unicode hex="00AE"/>
  <outline>
    <contour>
      <point x="257" y="314.667" type="curve" smooth="yes"/>
      <point x="367.049" y="314.667"/>
      <point x="450" y="399.337"/>
      <point x="450" y="511.667" type="curve" smooth="yes"/>
      <point x="450" y="622.543"/>
      <point x="366.18" y="707.667"/>
      <point x="257" y="707.667" type="curve" smooth="yes"/>
      <point x="148.609" y="707.667"/>
      <point x="64.667" y="622.127"/>
      <point x="64.667" y="511.667" type="curve" smooth="yes"/>
      <point x="64.667" y="399.451"/>
      <point x="147.447" y="314.667"/>
    </contour>
    <contour>
      <point x="257" y="353.667" type="curve" smooth="yes"/>
      <point x="167.595" y="353.667"/>
      <point x="106" y="418.114"/>
      <point x="106" y="511.667" type="curve" smooth="yes"/>
      <point x="106" y="604.932"/>
      <point x="167.302" y="668.667"/>
      <point x="257" y="668.667" type="curve" smooth="yes"/>
      <point x="346.148" y="668.667"/>
      <point x="408.333" y="604.154"/>
      <point x="408.333" y="511.667" type="curve" smooth="yes"/>
      <point x="408.333" y="417.967"/>
      <point x="346.746" y="353.667"/>
    </contour>
    <contour>
      <point x="180.333" y="403.333" type="line"/>
      <point x="229.333" y="403.333" type="line"/>
      <point x="229.333" y="486" type="line"/>
      <point x="258.333" y="486" type="line"/>
      <point x="297.333" y="403.333" type="line"/>
      <point x="350" y="403.333" type="line"/>
      <point x="307" y="494" type="line"/>
      <point x="332.333" y="505.556"/>
      <point x="345" y="525.778"/>
      <point x="345" y="554.667" type="curve" smooth="yes"/>
      <point x="345" y="598.014"/>
      <point x="317.571" y="622"/>
      <point x="268" y="622" type="curve" smooth="yes"/>
      <point x="180.333" y="622" type="line"/>
    </contour>
    <contour>
      <point x="229.333" y="528" type="line"/>
      <point x="229.333" y="579.667" type="line"/>
      <point x="265.333" y="579.667" type="line" smooth="yes"/>
      <point x="285.778" y="579.667"/>
      <point x="296" y="571.111"/>
      <point x="296" y="554" type="curve" smooth="yes"/>
      <point x="296" y="536.667"/>
      <point x="285.778" y="528"/>
      <point x="265.333" y="528" type="curve" smooth="yes"/>
    </contour>
  </outline>
</glyph>
<glyph name="macron" format="2">
  <advance width="512"/>
  <unicode hex="00AF"/>
  <outline>
    <contour>
      <point x="95.333" y="604" type="line"/>
      <point x="417" y="604" type="line"/>
      <point x="417" y="705.667" type="line"/>
      <point x="95.333" y="705.667" type="line"/>
    </contour>
  </outline>
</glyph>
<glyph name="degree" format="2">
  <advance width="405"/>
  <unicode hex="00B0"/>
  <outline>
    <contour>
      <point x="58" y="569" type="curve" smooth="yes"/>
      <point x="58" y="483.931"/>
      <point x="121.356" y="421"/>
      <point x="207" y="421" type="curve" smooth="yes"/>
      <point x="290.012" y="421"/>
      <point x="354.667" y="485.801"/>
      <point x="354.667" y="569" type="curve" smooth="yes"/>
      <point x="354.667" y="652.64"/>
      <point x="290.077" y="717.667"/>
      <point x="207" y="717.667" type="curve" smooth="yes"/>
      <point x="122.436" y="717.667"/>
      <point x="58" y="653.372"/>
    </contour>
    <contour>
      <point x="207" y="491.667" type="curve" smooth="yes"/>
      <point x="162.26" y="491.667"/>
      <point x="131.667" y="523.07"/>
      <point x="131.667" y="569" type="curve" smooth="yes"/>
      <point x="131.667" y="615.45"/>
      <point x="162.33" y="647.333"/>
      <point x="207" y="647.333" type="curve" smooth="yes"/>
      <point x="250.48" y="647.333"/>
      <point x="282" y="614.412"/>
      <point x="282" y="569" type="curve" smooth="yes"/>
      <point x="282" y="524.546"/>
      <point x="250.114" y="491.667"/>
    </contour>
  </outline>
</glyph>
<glyph name="plusminus" format="2">
  <advance width="534"/>
  <unicode hex="00B1"/>
  <outline>
    <contour>
      <point x="215" y="123.333" type="line"/>
      <point x="320.667" y="123.333" type="line"/>
      <point x="320.667" y="287.667" type="line"/>
      <point x="484.333" y="287.667" type="line"/>
      <point x="484.333" y="392.667" type="line"/>
      <point x="320.667" y="392.667" type="line"/>
      <point x="320.667" y="557" type="line"/>
      <point x="215" y="557" type="line"/>
      <point x="215" y="392.667" type="line"/>
      <point x="50.667" y="392.667" type="line"/>
      <point x="50.667" y="287.667" type="line"/>
      <point x="215" y="287.667" type="line"/>
    </contour>
    <contour>
      <point x="50.667" y="-28.333" type="line"/>
      <point x="484.333" y="-28.333" type="line"/>
      <point x="484.333" y="77.333" type="line"/>
      <point x="50.667" y="77.333" type="line"/>
    </contour>
  </outline>
</glyph>
<glyph name="threesuperior" format="2">
  <advance width="360"/>
  <unicode hex="00B3"/>
  <outline>
    <contour>
      <point x="23.496" y="555" type="line"/>
      <point x="23.496" y="547" type="line" smooth="yes"/>
      <point x="23.496" y="469.319"/>
      <point x="76.327" y="426.333"/>
      <point x="171.83" y="426.333" type="curve" smooth="yes"/>
      <point x="262.858" y="426.333"/>
      <point x="321.83" y="476.533"/>
      <point x="321.83" y="554" type="curve" smooth="yes"/>
      <point x="321.83" y="562.333" type="line" smooth="yes"/>
      <point x="321.83" y="613.229"/>
      <point x="297.924" y="648.893"/>
      <point x="255.496" y="661.333" type="curve"/>
      <point x="293.245" y="677.575"/>
      <point x="314.163" y="707.858"/>
      <point x="314.163" y="746.333" type="curve" smooth="yes"/>
      <point x="314.163" y="753.667" type="line" smooth="yes"/>
      <point x="314.163" y="825.201"/>
      <point x="259.865" y="869"/>
      <point x="171.163" y="869" type="curve" smooth="yes"/>
      <point x="77.756" y="869"/>
      <point x="25.496" y="825.233"/>
      <point x="25.496" y="747" type="curve" smooth="yes"/>
      <point x="25.496" y="740" type="line"/>
      <point x="111.83" y="740" type="line"/>
      <point x="111.83" y="747.667" type="line" smooth="yes"/>
      <point x="111.83" y="775.468"/>
      <point x="130.699" y="790"/>
      <point x="166.83" y="790" type="curve" smooth="yes"/>
      <point x="203.052" y="790"/>
      <point x="221.163" y="775.222"/>
      <point x="221.163" y="745.667" type="curve" smooth="yes"/>
      <point x="221.163" y="738" type="line"/>
      <point x="220.718" y="708"/>
      <point x="200.607" y="693"/>
      <point x="160.83" y="693" type="curve" smooth="yes"/>
      <point x="137.496" y="693" type="line"/>
      <point x="137.496" y="613" type="line"/>
      <point x="161.496" y="613" type="line" smooth="yes"/>
      <point x="206.297" y="613"/>
      <point x="228.163" y="595.851"/>
      <point x="228.163" y="560.667" type="curve" smooth="yes"/>
      <point x="228.163" y="553.333" type="line" smooth="yes"/>
      <point x="228.163" y="522"/>
      <point x="208.023" y="505.333"/>
      <point x="170.163" y="505.333" type="curve" smooth="yes"/>
      <point x="130.385" y="505.333"/>
      <point x="110.496" y="519.889"/>
      <point x="110.496" y="549" type="curve" smooth="yes"/>
      <point x="110.496" y="555" type="line"/>
    </contour>
  </outline>
</glyph>
<glyph name="mu" format="2">
  <advance width="585"/>
  <unicode hex="00B5"/>
  <outline>
    <contour>
      <point x="59.667" y="-159" type="line"/>
      <point x="173.333" y="-159" type="line"/>
      <point x="173.333" y="20.667" type="line"/>
      <point x="199.111" y="2.889"/>
      <point x="232.222" y="-6"/>
      <point x="272.667" y="-6" type="curve" smooth="yes"/>
      <point x="334.561" y="-6"/>
      <point x="386.51" y="18.36"/>
      <point x="414.667" y="60.667" type="curve"/>
      <point x="414.667" y="0" type="line"/>
      <point x="525.333" y="0" type="line"/>
      <point x="525.333" y="529.333" type="line"/>
      <point x="411.333" y="529.333" type="line"/>
      <point x="411.333" y="227.667" type="line" smooth="yes"/>
      <point x="411.333" y="143.347"/>
      <point x="366.119" y="94.333"/>
      <point x="288.333" y="94.333" type="curve" smooth="yes"/>
      <point x="213.667" y="94.333"/>
      <point x="173.333" y="137.895"/>
      <point x="173.333" y="218.667" type="curve" smooth="yes"/>
      <point x="173.333" y="529.333" type="line"/>
      <point x="59.667" y="529.333" type="line"/>
    </contour>
  </outline>
</glyph>
<glyph name="paragraph" format="2">
  <advance width="708"/>
  <unicode hex="00B6"/>
  <outline>
    <contour>
      <point x="318.333" y="-159" type="line"/>
      <point x="421" y="-159" type="line"/>
      <point x="421" y="612.333" type="line"/>
      <point x="509.667" y="612.333" type="line"/>
      <point x="509.667" y="-159" type="line"/>
      <point x="611.667" y="-159" type="line"/>
      <point x="611.667" y="707" type="line"/>
      <point x="309.333" y="707" type="line" smooth="yes"/>
      <point x="154.998" y="707"/>
      <point x="64.667" y="626.391"/>
      <point x="64.667" y="488.667" type="curve" smooth="yes"/>
      <point x="64.667" y="350.755"/>
      <point x="157.604" y="271"/>
      <point x="318.333" y="271" type="curve"/>
    </contour>
  </outline>
</glyph>
<glyph name="periodcentered" format="2">
  <advance width="214"/>
  <unicode hex="00B7"/>
  <anchor x="107.333" y="279.667" name="_dot"/>
  <outline>
    <contour>
      <point x="42.333" y="216.667" type="line"/>
      <point x="172" y="216.667" type="line"/>
      <point x="172" y="350" type="line"/>
      <point x="42.333" y="350" type="line"/>
    </contour>
  </outline>
</glyph>
<glyph name="onesuperior" format="2">
  <advance width="252"/>
  <unicode hex="00B9"/>
  <outline>
    <contour>
      <point x="101.97" y="440" type="line"/>
      <point x="198.637" y="440" type="line"/>
      <point x="198.637" y="868.333" type="line"/>
      <point x="101.97" y="868.333" type="line"/>
      <point x="12.304" y="816.667" type="line"/>
      <point x="12.304" y="717" type="line"/>
      <point x="101.97" y="768.333" type="line"/>
    </contour>
  </outline>
</glyph>
<glyph name="ordmasculine" format="2">
  <advance width="388"/>
  <unicode hex="00BA"/>
  <outline>
    <contour>
      <point x="41.667" y="586" type="line" smooth="yes"/>
      <point x="41.667" y="489.3"/>
      <point x="96.031" y="436"/>
      <point x="194.667" y="436" type="curve" smooth="yes"/>
      <point x="290.975" y="436"/>
      <point x="347" y="491.164"/>
      <point x="347" y="586" type="curve" smooth="yes"/>
      <point x="347" y="620" type="line" smooth="yes"/>
      <point x="347" y="712.668"/>
      <point x="291.358" y="766"/>
      <point x="194.667" y="766" type="curve" smooth="yes"/>
      <point x="97.064" y="766"/>
      <point x="41.667" y="713.136"/>
      <point x="41.667" y="620" type="curve" smooth="yes"/>
    </contour>
    <contour>
      <point x="194.667" y="512.667" type="curve" smooth="yes"/>
      <point x="150.851" y="512.667"/>
      <point x="126.667" y="538.99"/>
      <point x="126.667" y="586.667" type="curve" smooth="yes"/>
      <point x="126.667" y="620" type="line" smooth="yes"/>
      <point x="126.667" y="664.433"/>
      <point x="151.1" y="689.333"/>
      <point x="194.667" y="689.333" type="curve" smooth="yes"/>
      <point x="237.889" y="689.333"/>
      <point x="261.667" y="664.738"/>
      <point x="261.667" y="620" type="curve" smooth="yes"/>
      <point x="261.667" y="586.667" type="line" smooth="yes"/>
      <point x="261.667" y="539.385"/>
      <point x="237.481" y="512.667"/>
    </contour>
  </outline>
</glyph>
<glyph name="guillemotright" format="2">
  <advance width="585"/>
  <unicode hex="00BB"/>
  <outline>
    <contour>
      <point x="59.667" y="45.333" type="line"/>
      <point x="313.333" y="270" type="line"/>
      <point x="59.667" y="495.333" type="line"/>
      <point x="59.667" y="379" type="line"/>
      <point x="184.667" y="270" type="line"/>
      <point x="59.667" y="162" type="line"/>
    </contour>
    <contour>
      <point x="311.667" y="45.333" type="line"/>
      <point x="566.333" y="270" type="line"/>
      <point x="311.667" y="495.333" type="line"/>
      <point x="311.667" y="379" type="line"/>
      <point x="436" y="270" type="line"/>
      <point x="311.667" y="162" type="line"/>
    </contour>
  </outline>
</glyph>
<glyph name="onequarter" format="2">
  <advance width="844"/>
  <unicode hex="00BC"/>
  <outline>
    <contour>
      <point x="113" y="0" type="line"/>
      <point x="206.667" y="0" type="line"/>
      <point x="640" y="711" type="line"/>
      <point x="545.333" y="711" type="line"/>
    </contour>
    <contour>
      <point x="102.055" y="279.776" type="line"/>
      <point x="198.722" y="279.776" type="line"/>
      <point x="198.722" y="708.109" type="line"/>
      <point x="102.055" y="708.109" type="line"/>
      <point x="12.388" y="656.443" type="line"/>
      <point x="12.388" y="556.776" type="line"/>
      <point x="102.055" y="608.109" type="line"/>
    </contour>
    <contour>
      <point x="479.467" y="62.667" type="line"/>
      <point x="683.8" y="62.667" type="line"/>
      <point x="683.8" y="-1.667" type="line"/>
      <point x="777.134" y="-1.667" type="line"/>
      <point x="777.134" y="62.667" type="line"/>
      <point x="809.134" y="62.667" type="line"/>
      <point x="809.134" y="144" type="line"/>
      <point x="777.134" y="144" type="line"/>
      <point x="777.134" y="237.667" type="line"/>
      <point x="683.8" y="237.667" type="line"/>
      <point x="683.8" y="144" type="line"/>
      <point x="573.134" y="144" type="line"/>
      <point x="691.134" y="426.667" type="line"/>
      <point x="597.467" y="426.667" type="line"/>
      <point x="479.467" y="144" type="line"/>
    </contour>
  </outline>
</glyph>
<glyph name="onehalf" format="2">
  <advance width="853"/>
  <unicode hex="00BD"/>
  <outline>
    <contour>
      <point x="109" y="0" type="line"/>
      <point x="202.667" y="0" type="line"/>
      <point x="636" y="711" type="line"/>
      <point x="541.333" y="711" type="line"/>
    </contour>
    <contour>
      <point x="102.055" y="279.776" type="line"/>
      <point x="198.722" y="279.776" type="line"/>
      <point x="198.722" y="708.109" type="line"/>
      <point x="102.055" y="708.109" type="line"/>
      <point x="12.388" y="656.443" type="line"/>
      <point x="12.388" y="556.776" type="line"/>
      <point x="102.055" y="608.109" type="line"/>
    </contour>
    <contour>
      <point x="519.931" y="0" type="line"/>
      <point x="815.265" y="0" type="line"/>
      <point x="815.265" y="83.667" type="line"/>
      <point x="656.265" y="83.667" type="line"/>
      <point x="747.265" y="179.333" type="line" smooth="yes"/>
      <point x="794.119" y="228.416"/>
      <point x="814.598" y="256.803"/>
      <point x="814.598" y="304" type="curve" smooth="yes"/>
      <point x="814.598" y="313" type="line" smooth="yes"/>
      <point x="814.598" y="388.183"/>
      <point x="756.915" y="436"/>
      <point x="666.265" y="436" type="curve" smooth="yes"/>
      <point x="572.229" y="436"/>
      <point x="515.931" y="389.44"/>
      <point x="515.931" y="311.667" type="curve" smooth="yes"/>
      <point x="515.931" y="301.667" type="line"/>
      <point x="608.931" y="301.667" type="line"/>
      <point x="608.931" y="309" type="line" smooth="yes"/>
      <point x="608.931" y="338.719"/>
      <point x="628.169" y="355"/>
      <point x="663.265" y="355" type="curve" smooth="yes"/>
      <point x="698.696" y="355"/>
      <point x="716.598" y="339.222"/>
      <point x="716.598" y="308" type="curve" smooth="yes"/>
      <point x="716.598" y="301.667" type="line" smooth="yes"/>
      <point x="716.598" y="281.345"/>
      <point x="704.923" y="263.831"/>
      <point x="679.598" y="238" type="curve" smooth="yes"/>
      <point x="519.931" y="75.333" type="line"/>
    </contour>
  </outline>
</glyph>
<glyph name="threequarters" format="2">
  <advance width="938"/>
  <unicode hex="00BE"/>
  <outline>
    <contour>
      <point x="206.667" y="0" type="line"/>
      <point x="300.667" y="0" type="line"/>
      <point x="733.667" y="711" type="line"/>
      <point x="639" y="711" type="line"/>
    </contour>
    <contour>
      <point x="23.513" y="402.053" type="line"/>
      <point x="23.513" y="394.053" type="line" smooth="yes"/>
      <point x="23.513" y="316.372"/>
      <point x="76.344" y="273.386"/>
      <point x="171.846" y="273.386" type="curve" smooth="yes"/>
      <point x="262.875" y="273.386"/>
      <point x="321.846" y="323.585"/>
      <point x="321.846" y="401.053" type="curve" smooth="yes"/>
      <point x="321.846" y="409.386" type="line" smooth="yes"/>
      <point x="321.846" y="460.282"/>
      <point x="297.941" y="495.946"/>
      <point x="255.513" y="508.386" type="curve"/>
      <point x="293.261" y="524.628"/>
      <point x="314.18" y="554.911"/>
      <point x="314.18" y="593.386" type="curve" smooth="yes"/>
      <point x="314.18" y="600.72" type="line" smooth="yes"/>
      <point x="314.18" y="672.254"/>
      <point x="259.881" y="716.053"/>
      <point x="171.18" y="716.053" type="curve" smooth="yes"/>
      <point x="77.773" y="716.053"/>
      <point x="25.513" y="672.286"/>
      <point x="25.513" y="594.053" type="curve" smooth="yes"/>
      <point x="25.513" y="587.053" type="line"/>
      <point x="111.846" y="587.053" type="line"/>
      <point x="111.846" y="594.72" type="line" smooth="yes"/>
      <point x="111.846" y="622.521"/>
      <point x="130.715" y="637.053"/>
      <point x="166.846" y="637.053" type="curve" smooth="yes"/>
      <point x="203.068" y="637.053"/>
      <point x="221.18" y="622.275"/>
      <point x="221.18" y="592.72" type="curve" smooth="yes"/>
      <point x="221.18" y="585.053" type="line"/>
      <point x="220.735" y="555.053"/>
      <point x="200.624" y="540.053"/>
      <point x="160.846" y="540.053" type="curve" smooth="yes"/>
      <point x="137.513" y="540.053" type="line"/>
      <point x="137.513" y="460.053" type="line"/>
      <point x="161.513" y="460.053" type="line" smooth="yes"/>
      <point x="206.314" y="460.053"/>
      <point x="228.18" y="442.904"/>
      <point x="228.18" y="407.72" type="curve" smooth="yes"/>
      <point x="228.18" y="400.386" type="line" smooth="yes"/>
      <point x="228.18" y="369.053"/>
      <point x="208.04" y="352.386"/>
      <point x="170.18" y="352.386" type="curve" smooth="yes"/>
      <point x="130.402" y="352.386"/>
      <point x="110.513" y="366.942"/>
      <point x="110.513" y="396.053" type="curve" smooth="yes"/>
      <point x="110.513" y="402.053" type="line"/>
    </contour>
    <contour>
      <point x="575" y="64.333" type="line"/>
      <point x="779.333" y="64.333" type="line"/>
      <point x="779.333" y="0" type="line"/>
      <point x="872.667" y="0" type="line"/>
      <point x="872.667" y="64.333" type="line"/>
      <point x="904.667" y="64.333" type="line"/>
      <point x="904.667" y="145.667" type="line"/>
      <point x="872.667" y="145.667" type="line"/>
      <point x="872.667" y="239.333" type="line"/>
      <point x="779.333" y="239.333" type="line"/>
      <point x="779.333" y="145.667" type="line"/>
      <point x="668.667" y="145.667" type="line"/>
      <point x="786.667" y="428.333" type="line"/>
      <point x="693" y="428.333" type="line"/>
      <point x="575" y="145.667" type="line"/>
    </contour>
  </outline>
</glyph>
<glyph name="questiondown" format="2">
  <advance width="507"/>
  <unicode hex="00BF"/>
  <outline>
    <contour>
      <point x="200" y="406.667" type="line"/>
      <point x="323.667" y="406.667" type="line"/>
      <point x="323.667" y="529.333" type="line"/>
      <point x="200" y="529.333" type="line"/>
    </contour>
    <contour>
      <point x="364.333" y="26" type="line"/>
      <point x="363.426" y="-35.442"/>
      <point x="329.889" y="-65"/>
      <point x="261" y="-65" type="curve" smooth="yes"/>
      <point x="192.378" y="-65"/>
      <point x="155.667" y="-36.53"/>
      <point x="155.667" y="16.667" type="curve" smooth="yes"/>
      <point x="155.667" y="52.1"/>
      <point x="168.706" y="76.368"/>
      <point x="207" y="112" type="curve" smooth="yes"/>
      <point x="259" y="160.333" type="line" smooth="yes"/>
      <point x="306.551" y="204.611"/>
      <point x="319.667" y="235.112"/>
      <point x="319.667" y="301.333" type="curve" smooth="yes"/>
      <point x="319.667" y="334.667" type="line"/>
      <point x="205" y="334.667" type="line"/>
      <point x="205" y="312.667" type="line" smooth="yes"/>
      <point x="205" y="266.805"/>
      <point x="195.858" y="246.068"/>
      <point x="161.667" y="214.333" type="curve" smooth="yes"/>
      <point x="104.667" y="161.333" type="line" smooth="yes"/>
      <point x="58.736" y="118.687"/>
      <point x="37.667" y="71.105"/>
      <point x="37.667" y="10" type="curve" smooth="yes"/>
      <point x="37.667" y="-101.042"/>
      <point x="121.698" y="-169"/>
      <point x="259" y="-169" type="curve" smooth="yes"/>
      <point x="399.816" y="-169"/>
      <point x="473.999" y="-102.513"/>
      <point x="476.667" y="26" type="curve"/>
    </contour>
  </outline>
</glyph>
<glyph name="AE" format="2">
  <advance width="1020"/>
  <unicode hex="00C6"/>
  <anchor x="563" y="770.667" name="top"/>
  <outline>
    <contour>
      <point x="4.667" y="0" type="line"/>
      <point x="139.333" y="0" type="line"/>
      <point x="225.333" y="151" type="line"/>
      <point x="485.667" y="151" type="line"/>
      <point x="485.667" y="0" type="line"/>
      <point x="982" y="0" type="line"/>
      <point x="982" y="105.667" type="line"/>
      <point x="606.667" y="105.667" type="line"/>
      <point x="606.667" y="304.333" type="line"/>
      <point x="928.667" y="304.333" type="line"/>
      <point x="928.667" y="410" type="line"/>
      <point x="606.667" y="410" type="line"/>
      <point x="606.667" y="601.333" type="line"/>
      <point x="982" y="601.333" type="line"/>
      <point x="982" y="707" type="line"/>
      <point x="422.333" y="707" type="line"/>
    </contour>
    <contour>
      <point x="282.667" y="252" type="line"/>
      <point x="485.667" y="605.667" type="line"/>
      <point x="485.667" y="252" type="line"/>
    </contour>
  </outline>
</glyph>
<glyph name="multiply" format="2">
  <advance width="534"/>
  <unicode hex="00D7"/>
  <outline>
    <contour>
      <point x="144.667" y="89.333" type="line"/>
      <point x="267.667" y="212.333" type="line"/>
      <point x="390" y="89.333" type="line"/>
      <point x="460.333" y="160.667" type="line"/>
      <point x="338" y="283.333" type="line"/>
      <point x="460.333" y="405" type="line"/>
      <point x="390" y="476" type="line"/>
      <point x="267.667" y="353.667" type="line"/>
      <point x="144.667" y="476" type="line"/>
      <point x="75" y="406.333" type="line"/>
      <point x="197.333" y="283.333" type="line"/>
      <point x="75" y="160.667" type="line"/>
    </contour>
  </outline>
</glyph>
<glyph name="Thorn" format="2">
  <advance width="646"/>
  <unicode hex="00DE"/>
  <outline>
    <contour>
      <point x="64.667" y="0" type="line"/>
      <point x="185.667" y="0" type="line"/>
      <point x="185.667" y="155" type="line"/>
      <point x="366" y="155" type="line" smooth="yes"/>
      <point x="527.808" y="155"/>
      <point x="619" y="232.232"/>
      <point x="619" y="369.333" type="curve" smooth="yes"/>
      <point x="619" y="508.706"/>
      <point x="529.196" y="587.333"/>
      <point x="370" y="587.333" type="curve" smooth="yes"/>
      <point x="185.667" y="587.333" type="line"/>
      <point x="185.667" y="707" type="line"/>
      <point x="64.667" y="707" type="line"/>
    </contour>
    <contour>
      <point x="185.667" y="260" type="line"/>
      <point x="185.667" y="481.667" type="line"/>
      <point x="372.333" y="481.667" type="line" smooth="yes"/>
      <point x="457.512" y="481.667"/>
      <point x="498.667" y="445.093"/>
      <point x="498.667" y="369.667" type="curve" smooth="yes"/>
      <point x="498.667" y="296.216"/>
      <point x="458.025" y="260.444"/>
      <point x="374" y="260" type="curve"/>
    </contour>
  </outline>
</glyph>
<glyph name="germandbls" format="2">
  <advance width="584"/>
  <unicode hex="00DF"/>
  <outline>
    <contour>
      <point x="59.667" y="0" type="line"/>
      <point x="173.333" y="0" type="line"/>
      <point x="173.333" y="512" type="line" smooth="yes"/>
      <point x="173.333" y="587.191"/>
      <point x="209.595" y="617.667"/>
      <point x="299" y="617.667" type="curve" smooth="yes"/>
      <point x="377.963" y="617.667"/>
      <point x="414" y="594.696"/>
      <point x="414" y="544.333" type="curve" smooth="yes"/>
      <point x="414" y="496.164"/>
      <point x="383.553" y="473.333"/>
      <point x="319.333" y="473.333" type="curve" smooth="yes"/>
      <point x="285" y="473.333" type="line"/>
      <point x="285" y="377.667" type="line"/>
      <point x="310.667" y="377.667" type="line" smooth="yes"/>
      <point x="397.447" y="377.667"/>
      <point x="423.667" y="344.329"/>
      <point x="423.667" y="234" type="curve" smooth="yes"/>
      <point x="423.667" y="122.439"/>
      <point x="401.714" y="92.333"/>
      <point x="320.333" y="92.333" type="curve" smooth="yes"/>
      <point x="285.333" y="92.333" type="line"/>
      <point x="285.333" y="-4" type="line"/>
      <point x="329" y="-4" type="line" smooth="yes"/>
      <point x="483.235" y="-4"/>
      <point x="536.667" y="57.481"/>
      <point x="536.667" y="235" type="curve" smooth="yes"/>
      <point x="536.667" y="348.16"/>
      <point x="513.926" y="402.147"/>
      <point x="454.667" y="429.667" type="curve"/>
      <point x="504.208" y="453.547"/>
      <point x="527" y="491.472"/>
      <point x="527" y="550" type="curve" smooth="yes"/>
      <point x="527" y="657.207"/>
      <point x="445.366" y="716.333"/>
      <point x="297.333" y="716.333" type="curve" smooth="yes"/>
      <point x="135.361" y="716.333"/>
      <point x="59.667" y="647.959"/>
      <point x="59.667" y="501.667" type="curve" smooth="yes"/>
    </contour>
  </outline>
</glyph>
<glyph name="ae" format="2">
  <advance width="921"/>
  <unicode hex="00E6"/>
  <anchor x="457" y="596.667" name="top"/>
  <outline>
    <contour>
      <point x="56" y="372" type="line"/>
      <point x="165" y="372" type="line"/>
      <point x="165" y="375" type="line" smooth="yes"/>
      <point x="165" y="421.067"/>
      <point x="203.065" y="447"/>
      <point x="270.667" y="447" type="curve" smooth="yes"/>
      <point x="351.778" y="447"/>
      <point x="392.333" y="412.667"/>
      <point x="392.333" y="344" type="curve" smooth="yes"/>
      <point x="392.333" y="312.333" type="line"/>
      <point x="243.333" y="312.333" type="line" smooth="yes"/>
      <point x="109.882" y="312.333"/>
      <point x="39.667" y="259.241"/>
      <point x="39.667" y="158.333" type="curve" smooth="yes"/>
      <point x="39.667" y="53.569"/>
      <point x="118.401" y="-8.333"/>
      <point x="251.667" y="-8.333" type="curve" smooth="yes"/>
      <point x="340.557" y="-8.333"/>
      <point x="406.778" y="16.778"/>
      <point x="450.333" y="68.333" type="curve"/>
      <point x="495" y="16.778"/>
      <point x="559.778" y="-9"/>
      <point x="644.667" y="-9" type="curve" smooth="yes"/>
      <point x="774.193" y="-9"/>
      <point x="869.333" y="59.33"/>
      <point x="869.333" y="162.333" type="curve" smooth="yes"/>
      <point x="869.333" y="167.667" type="line"/>
      <point x="758.667" y="167.667" type="line"/>
      <point x="758.667" y="164.667" type="line" smooth="yes"/>
      <point x="758.667" y="117.323"/>
      <point x="709.975" y="89.667"/>
      <point x="644.667" y="89.667" type="curve" smooth="yes"/>
      <point x="552.527" y="89.667"/>
      <point x="505.341" y="136.263"/>
      <point x="505.341" y="229.469" type="curve" smooth="yes"/>
      <point x="505.341" y="233" type="line"/>
      <point x="873.667" y="233" type="line"/>
      <point x="873.667" y="294.333" type="line" smooth="yes"/>
      <point x="873.667" y="449.889"/>
      <point x="785.723" y="539.667"/>
      <point x="633.333" y="539.667" type="curve" smooth="yes"/>
      <point x="559.744" y="539.667"/>
      <point x="500.211" y="516.679"/>
      <point x="457" y="473" type="curve"/>
      <point x="416.556" y="515.222"/>
      <point x="355" y="536.333"/>
      <point x="272.333" y="536.333" type="curve" smooth="yes"/>
      <point x="138.77" y="536.333"/>
      <point x="56" y="474.614"/>
      <point x="56" y="375" type="curve" smooth="yes"/>
    </contour>
    <contour>
      <point x="505.333" y="312.667" type="line"/>
      <point x="509.746" y="398.284"/>
      <point x="552.677" y="441.333"/>
      <point x="633.667" y="441.333" type="curve" smooth="yes"/>
      <point x="715.287" y="441.333"/>
      <point x="760.667" y="398.557"/>
      <point x="760.667" y="321.333" type="curve" smooth="yes"/>
      <point x="760.667" y="312.667" type="line"/>
    </contour>
    <contour>
      <point x="392.333" y="233" type="line"/>
      <point x="392.333" y="198.667" type="line" smooth="yes"/>
      <point x="392.333" y="123.233"/>
      <point x="348.054" y="85"/>
      <point x="260.667" y="85" type="curve" smooth="yes"/>
      <point x="187.386" y="85"/>
      <point x="150.333" y="110.631"/>
      <point x="150.333" y="161.333" type="curve" smooth="yes"/>
      <point x="150.333" y="210.964"/>
      <point x="185.047" y="233"/>
      <point x="263.333" y="233" type="curve" smooth="yes"/>
    </contour>
  </outline>
</glyph>
<glyph name="eth" format="2">
  <advance width="570"/>
  <unicode hex="00F0"/>
  <outline>
    <contour>
      <point x="135.667" y="521" type="line"/>
      <point x="259.667" y="555.333" type="line"/>
      <point x="333.667" y="464.333" type="line"/>
      <point x="312.333" y="473.667"/>
      <point x="286" y="478.333"/>
      <point x="254.667" y="478.333" type="curve" smooth="yes"/>
      <point x="129.077" y="478.333"/>
      <point x="49" y="390.05"/>
      <point x="49" y="251.667" type="curve" smooth="yes"/>
      <point x="49" y="223" type="line" smooth="yes"/>
      <point x="49" y="76.412"/>
      <point x="137.289" y="-11"/>
      <point x="285.333" y="-11" type="curve" smooth="yes"/>
      <point x="433.191" y="-11"/>
      <point x="522" y="78.791"/>
      <point x="522" y="228.333" type="curve" smooth="yes"/>
      <point x="522" y="255.667" type="line" smooth="yes"/>
      <point x="522" y="347.772"/>
      <point x="492.245" y="426.896"/>
      <point x="415" y="520.667" type="curve" smooth="yes"/>
      <point x="363.667" y="583.333" type="line"/>
      <point x="452.667" y="607.333" type="line"/>
      <point x="430.333" y="681.667" type="line"/>
      <point x="309.333" y="649" type="line"/>
      <point x="259.333" y="711" type="line"/>
      <point x="133.667" y="711" type="line"/>
      <point x="206.333" y="621.667" type="line"/>
      <point x="113.333" y="596.333" type="line"/>
    </contour>
    <contour>
      <point x="286.333" y="88.667" type="curve" smooth="yes"/>
      <point x="202.148" y="88.667"/>
      <point x="156" y="137.267"/>
      <point x="156" y="226" type="curve" smooth="yes"/>
      <point x="156" y="253.333" type="line" smooth="yes"/>
      <point x="156" y="338.107"/>
      <point x="202.673" y="385.333"/>
      <point x="286.333" y="385.333" type="curve" smooth="yes"/>
      <point x="367.697" y="385.333"/>
      <point x="414.667" y="336.745"/>
      <point x="414.667" y="252.333" type="curve" smooth="yes"/>
      <point x="414.667" y="226" type="line" smooth="yes"/>
      <point x="414.667" y="137.5"/>
      <point x="368.994" y="88.667"/>
    </contour>
  </outline>
</glyph>
<glyph name="divide" format="2">
  <advance width="534"/>
  <unicode hex="00F7"/>
  <outline>
    <contour>
      <point x="266.667" y="383.667" type="curve" smooth="yes"/>
      <point x="303.111" y="383.667"/>
      <point x="331" y="411.556"/>
      <point x="331" y="448" type="curve" smooth="yes"/>
      <point x="331" y="483.494"/>
      <point x="302.722" y="511.333"/>
      <point x="266.667" y="511.333" type="curve" smooth="yes"/>
      <point x="231.523" y="511.333"/>
      <point x="204" y="483.519"/>
      <point x="204" y="448" type="curve" smooth="yes"/>
      <point x="204" y="411.976"/>
      <point x="231.577" y="383.667"/>
    </contour>
    <contour>
      <point x="50.667" y="230" type="line"/>
      <point x="484.333" y="230" type="line"/>
      <point x="484.333" y="335.333" type="line"/>
      <point x="50.667" y="335.333" type="line"/>
    </contour>
    <contour>
      <point x="266.667" y="55" type="curve" smooth="yes"/>
      <point x="303.428" y="55"/>
      <point x="331" y="82.43"/>
      <point x="331" y="119" type="curve" smooth="yes"/>
      <point x="331" y="154.813"/>
      <point x="302.85" y="182.667"/>
      <point x="266.667" y="182.667" type="curve" smooth="yes"/>
      <point x="231.398" y="182.667"/>
      <point x="204" y="154.832"/>
      <point x="204" y="119" type="curve" smooth="yes"/>
      <point x="204" y="83.294"/>
      <point x="231.71" y="55"/>
    </contour>
  </outline>
</glyph>
<glyph name="dcaron" format="2">
  <advance width="703"/>
  <unicode hex="010F"/>
  <outline>
    <component base="d"/>
    <contour>
      <point x="583" y="500.333" type="line"/>
      <point x="677.333" y="579" type="line"/>
      <point x="677.333" y="707" type="line"/>
      <point x="583" y="707" type="line"/>
    </contour>
  </outline>
</glyph>
<glyph name="Dcroat" format="2">
  <advance width="721"/>
  <unicode hex="0110"/>
  <outline>
    <component base="D" xScale="1" xOffset="39.333"/>
    <contour>
      <point x="30.333" y="412.667" type="line"/>
      <point x="30.333" y="306.333" type="line"/>
      <point x="389.667" y="306.333" type="line"/>
      <point x="389.667" y="412.667" type="line"/>
    </contour>
  </outline>
</glyph>
<glyph name="dcroat" format="2">
  <advance width="587"/>
  <unicode hex="0111"/>
  <outline>
    <component base="d"/>
    <contour>
      <point x="272" y="581" type="line"/>
      <point x="593.667" y="581" type="line"/>
      <point x="593.667" y="649.333" type="line"/>
      <point x="272" y="649.333" type="line"/>
    </contour>
  </outline>
</glyph>
<glyph name="gcommaaccent" format="2">
  <advance width="587"/>
  <unicode hex="0123"/>
  <outline>
    <component base="g"/>
    <contour>
      <point x="240" y="564" type="line"/>
      <point x="334" y="564" type="line"/>
      <point x="334" y="707" type="line"/>
      <point x="240" y="628.333" type="line"/>
    </contour>
  </outline>
</glyph>
<glyph name="Hbar" format="2">
  <advance width="692"/>
  <unicode hex="0126"/>
  <outline>
    <contour>
      <point x="25.667" y="514.333" type="line"/>
      <point x="669" y="514.333" type="line"/>
      <point x="669" y="620.667" type="line"/>
      <point x="25.667" y="620.667" type="line"/>
    </contour>
    <contour>
      <point x="165.307" y="305.667" type="line"/>
      <point x="527.693" y="305.667" type="line"/>
      <point x="527.693" y="411" type="line"/>
      <point x="165.307" y="411" type="line"/>
    </contour>
    <contour>
      <point x="507.333" y="0" type="line"/>
      <point x="627.333" y="0" type="line"/>
      <point x="627.333" y="707" type="line"/>
      <point x="507.333" y="707" type="line"/>
    </contour>
    <contour>
      <point x="64.667" y="0" type="line"/>
      <point x="185.667" y="0" type="line"/>
      <point x="185.667" y="707" type="line"/>
      <point x="64.667" y="707" type="line"/>
    </contour>
  </outline>
</glyph>
<glyph name="hbar" format="2">
  <advance width="585"/>
  <unicode hex="0127"/>
  <outline>
    <component base="h"/>
    <contour>
      <point x="11" y="587.667" type="line"/>
      <point x="331" y="587.667" type="line"/>
      <point x="331" y="654" type="line"/>
      <point x="11" y="654" type="line"/>
    </contour>
  </outline>
</glyph>
<glyph name="IJ" format="2">
  <advance width="697"/>
  <unicode hex="0132"/>
  <outline>
    <contour>
      <point x="74.333" y="176.667" type="line"/>
      <point x="104.173" y="62.319"/>
      <point x="206.406" y="-6"/>
      <point x="348" y="-6" type="curve" smooth="yes"/>
      <point x="523.695" y="-6"/>
      <point x="633" y="93.567"/>
      <point x="633" y="253.667" type="curve" smooth="yes"/>
      <point x="633" y="707" type="line"/>
      <point x="512.667" y="707" type="line"/>
      <point x="512.667" y="258.333" type="line" smooth="yes"/>
      <point x="512.667" y="154.701"/>
      <point x="454.976" y="99.333"/>
      <point x="348" y="99.333" type="curve" smooth="yes"/>
      <point x="275.032" y="99.333"/>
      <point x="223.907" y="126.327"/>
      <point x="201.333" y="176.667" type="curve"/>
    </contour>
    <contour>
      <point x="64.667" y="340.667" type="line"/>
      <point x="185.667" y="340.667" type="line"/>
      <point x="185.667" y="707" type="line"/>
      <point x="64.667" y="707" type="line"/>
    </contour>
  </outline>
</glyph>
<glyph name="ij" format="2">
  <advance width="533"/>
  <unicode hex="0133"/>
  <outline>
    <contour>
      <point x="63.667" y="609" type="line"/>
      <point x="176.667" y="609" type="line"/>
      <point x="176.667" y="708.667" type="line"/>
      <point x="63.667" y="708.667" type="line"/>
    </contour>
    <contour>
      <point x="361" y="609" type="line"/>
      <point x="473.667" y="609" type="line"/>
      <point x="473.667" y="708.667" type="line"/>
      <point x="361" y="708.667" type="line"/>
    </contour>
    <contour>
      <point x="67.333" y="-12.667" type="line"/>
      <point x="72.42" y="-111.081"/>
      <point x="159.614" y="-166.667"/>
      <point x="258" y="-166.667" type="curve" smooth="yes"/>
      <point x="383.583" y="-166.667"/>
      <point x="473.667" y="-78.966"/>
      <point x="473.667" y="47.667" type="curve" smooth="yes"/>
      <point x="473.667" y="528.667" type="line"/>
      <point x="361" y="528.667" type="line"/>
      <point x="361" y="260.333" type="line" smooth="yes"/>
      <point x="361" y="177.871"/>
      <point x="327.386" y="136.333"/>
      <point x="261" y="136.333" type="curve" smooth="yes"/>
      <point x="204.005" y="136.333"/>
      <point x="176.667" y="178.911"/>
      <point x="176.667" y="267.333" type="curve" smooth="yes"/>
      <point x="176.667" y="528.667" type="line"/>
      <point x="63" y="528.667" type="line"/>
      <point x="63" y="262.333" type="line" smooth="yes"/>
      <point x="63" y="116.068"/>
      <point x="133.107" y="35"/>
      <point x="264" y="35" type="curve" smooth="yes"/>
      <point x="298.987" y="35"/>
      <point x="348.338" y="55.787"/>
      <point x="361.667" y="92" type="curve"/>
      <point x="361.667" y="40.333" type="line" smooth="yes"/>
      <point x="361.667" y="-40.933"/>
      <point x="333.757" y="-75.333"/>
      <point x="262.333" y="-75.333" type="curve" smooth="yes"/>
      <point x="217.06" y="-75.333"/>
      <point x="187.1" y="-50.304"/>
      <point x="177" y="-12.667" type="curve"/>
    </contour>
  </outline>
</glyph>
<glyph name="kgreenlandic" format="2">
  <advance width="584"/>
  <unicode hex="0138"/>
  <anchor x="252.667" y="770.667" name="top"/>
  <anchor x="271" y="-86" name="bottom"/>
  <outline>
    <contour>
      <point x="59.667" y="0" type="line"/>
      <point x="173.333" y="0" type="line"/>
      <point x="173.333" y="529.333" type="line"/>
      <point x="59.667" y="496" type="line"/>
    </contour>
    <contour>
      <point x="162.5" y="150.928" type="line"/>
      <point x="549.333" y="529.333" type="line"/>
      <point x="404.333" y="529.333" type="line"/>
      <point x="162.5" y="279.965" type="line"/>
    </contour>
    <contour>
      <point x="427.667" y="0" type="line"/>
      <point x="569.333" y="0" type="line"/>
      <point x="330.796" y="337.206" type="line"/>
      <point x="251.737" y="260.061" type="line"/>
    </contour>
  </outline>
</glyph>
<glyph name="Lcaron" format="2">
  <advance width="586"/>
  <unicode hex="013D"/>
  <outline>
    <component base="L"/>
    <contour>
      <point x="293" y="500.333" type="line"/>
      <point x="387.333" y="579" type="line"/>
      <point x="387.333" y="707" type="line"/>
      <point x="293" y="707" type="line"/>
    </contour>
  </outline>
</glyph>
<glyph name="lcaron" format="2">
  <advance width="362"/>
  <unicode hex="013E"/>
  <outline>
    <component base="l"/>
    <contour>
      <point x="238" y="500.333" type="line"/>
      <point x="332.333" y="579" type="line"/>
      <point x="332.333" y="707" type="line"/>
      <point x="238" y="707" type="line"/>
    </contour>
  </outline>
</glyph>
<glyph name="Lslash" format="2">
  <advance width="586"/>
  <unicode hex="0141"/>
  <outline>
    <component base="L"/>
    <contour>
      <point x="20.667" y="284.333" type="line"/>
      <point x="392.333" y="448.667" type="line"/>
      <point x="392.333" y="557.667" type="line"/>
      <point x="21.667" y="393.333" type="line"/>
    </contour>
  </outline>
</glyph>
<glyph name="lslash" format="2">
  <advance width="317"/>
  <unicode hex="0142"/>
  <outline>
    <component base="l"/>
    <contour>
      <point x="1.167" y="279" type="line"/>
      <point x="247" y="404" type="line"/>
      <point x="247" y="516.333" type="line"/>
      <point x="1.167" y="391.333" type="line"/>
    </contour>
  </outline>
</glyph>
<glyph name="Eng" format="2">
  <advance width="723"/>
  <unicode hex="014A"/>
  <outline>
    <contour>
      <point x="64.667" y="0" type="line"/>
      <point x="185.667" y="0" type="line"/>
      <point x="185.667" y="494.333" type="line"/>
      <point x="537.667" y="0" type="line"/>
      <point x="537.685" y="-10.33" type="line" smooth="yes"/>
      <point x="537.765" y="-63.455"/>
      <point x="518.109" y="-73.667"/>
      <point x="468" y="-73.667" type="curve" smooth="yes"/>
      <point x="421" y="-73.667" type="line"/>
      <point x="421" y="-173" type="line"/>
      <point x="487.333" y="-173" type="line" smooth="yes"/>
      <point x="602.653" y="-173"/>
      <point x="658.667" y="-118.3"/>
      <point x="658.667" y="-5.667" type="curve"/>
      <point x="658.333" y="707" type="line"/>
      <point x="537.667" y="707" type="line"/>
      <point x="537.667" y="211.667" type="line"/>
      <point x="185.667" y="707" type="line"/>
      <point x="64.667" y="707" type="line"/>
    </contour>
  </outline>
</glyph>
<glyph name="eng" format="2">
  <advance width="585"/>
  <unicode hex="014B"/>
  <outline>
    <contour>
      <point x="59.667" y="0" type="line"/>
      <point x="173.333" y="0" type="line"/>
      <point x="173.333" y="303" type="line" smooth="yes"/>
      <point x="173.333" y="387.022"/>
      <point x="218.942" y="435"/>
      <point x="298.667" y="435" type="curve" smooth="yes"/>
      <point x="373.924" y="435"/>
      <point x="412" y="393.024"/>
      <point x="412" y="310" type="curve" smooth="yes"/>
      <point x="412" y="1.333" type="line" smooth="yes"/>
      <point x="412" y="-53.456"/>
      <point x="391.264" y="-73.667"/>
      <point x="335" y="-73.667" type="curve" smooth="yes"/>
      <point x="288" y="-73.667" type="line"/>
      <point x="288" y="-173" type="line"/>
      <point x="354.333" y="-173" type="line" smooth="yes"/>
      <point x="469.653" y="-173"/>
      <point x="525.667" y="-118.3"/>
      <point x="525.667" y="-5.667" type="curve" smooth="yes"/>
      <point x="525.667" y="331.333" type="line" smooth="yes"/>
      <point x="525.667" y="460.412"/>
      <point x="453.9" y="536"/>
      <point x="331.333" y="536" type="curve" smooth="yes"/>
      <point x="264.879" y="536"/>
      <point x="208.492" y="512.121"/>
      <point x="171" y="468" type="curve"/>
      <point x="171" y="529.333" type="line"/>
      <point x="59.667" y="529.333" type="line"/>
    </contour>
  </outline>
</glyph>
<glyph name="OE" format="2">
  <advance width="1054"/>
  <unicode hex="0152"/>
  <outline>
    <contour>
      <point x="529.667" y="0" type="line"/>
      <point x="1014.67" y="0" type="line"/>
      <point x="1014.67" y="105.667" type="line"/>
      <point x="645.667" y="105.667" type="line"/>
      <point x="645.667" y="304.333" type="line"/>
      <point x="961.333" y="304.333" type="line"/>
      <point x="961.333" y="410" type="line"/>
      <point x="645.667" y="410" type="line"/>
      <point x="645.667" y="601.333" type="line"/>
      <point x="1014.67" y="601.333" type="line"/>
      <point x="1014.67" y="707" type="line"/>
      <point x="529.667" y="707" type="line"/>
      <point x="529.667" y="665" type="line"/>
      <point x="480.778" y="701"/>
      <point x="420.333" y="719"/>
      <point x="348.333" y="719" type="curve" smooth="yes"/>
      <point x="161.713" y="719"/>
      <point x="58" y="608.133"/>
      <point x="58" y="408.667" type="curve" smooth="yes"/>
      <point x="58" y="300" type="line" smooth="yes"/>
      <point x="58" y="100.272"/>
      <point x="160.514" y="-10.333"/>
      <point x="345.667" y="-10.333" type="curve" smooth="yes"/>
      <point x="418.779" y="-10.333"/>
      <point x="480.111" y="7.667"/>
      <point x="529.667" y="44.333" type="curve"/>
    </contour>
    <contour>
      <point x="353" y="98.333" type="curve" smooth="yes"/>
      <point x="235.293" y="98.333"/>
      <point x="179.333" y="163.65"/>
      <point x="179.333" y="301" type="curve" smooth="yes"/>
      <point x="179.333" y="401.333" type="line" smooth="yes"/>
      <point x="179.333" y="544.609"/>
      <point x="235.062" y="612.333"/>
      <point x="353" y="612.333" type="curve" smooth="yes"/>
      <point x="469.008" y="612.333"/>
      <point x="525.667" y="543.034"/>
      <point x="525.667" y="401.333" type="curve" smooth="yes"/>
      <point x="525.667" y="301" type="line" smooth="yes"/>
      <point x="525.667" y="165.222"/>
      <point x="468.707" y="98.333"/>
    </contour>
  </outline>
</glyph>
<glyph name="oe" format="2">
  <advance width="948"/>
  <unicode hex="0153"/>
  <outline>
    <contour>
      <point x="530.667" y="234.333" type="line"/>
      <point x="899.333" y="234.333" type="line"/>
      <point x="899.333" y="296" type="line" smooth="yes"/>
      <point x="899.333" y="450.37"/>
      <point x="811.261" y="539.667"/>
      <point x="659" y="539.667" type="curve" smooth="yes"/>
      <point x="580.033" y="539.667"/>
      <point x="518.069" y="514.877"/>
      <point x="475.333" y="466.333" type="curve"/>
      <point x="434.423" y="514.808"/>
      <point x="372.177" y="539.667"/>
      <point x="291.333" y="539.667" type="curve" smooth="yes"/>
      <point x="136.542" y="539.667"/>
      <point x="49" y="451.521"/>
      <point x="49" y="295.667" type="curve" smooth="yes"/>
      <point x="49" y="236.333" type="line" smooth="yes"/>
      <point x="49" y="79.618"/>
      <point x="136.533" y="-9"/>
      <point x="291.333" y="-9" type="curve" smooth="yes"/>
      <point x="372.557" y="-9"/>
      <point x="434.711" y="15.221"/>
      <point x="476.333" y="64.333" type="curve"/>
      <point x="518.556" y="15.444"/>
      <point x="581.889" y="-9"/>
      <point x="666.333" y="-9" type="curve" smooth="yes"/>
      <point x="800.192" y="-9"/>
      <point x="895.667" y="58.048"/>
      <point x="895.667" y="162.333" type="curve" smooth="yes"/>
      <point x="895.667" y="167.667" type="line"/>
      <point x="784.333" y="167.667" type="line"/>
      <point x="784.333" y="164.667" type="line" smooth="yes"/>
      <point x="784.333" y="117.695"/>
      <point x="736.032" y="89.667"/>
      <point x="671.667" y="89.667" type="curve" smooth="yes"/>
      <point x="577.667" y="89.667"/>
      <point x="530.667" y="136.333"/>
      <point x="530.667" y="231" type="curve" smooth="yes"/>
    </contour>
    <contour>
      <point x="291" y="92" type="curve" smooth="yes"/>
      <point x="204.998" y="92"/>
      <point x="162" y="141"/>
      <point x="162" y="237.667" type="curve" smooth="yes"/>
      <point x="162" y="293.667" type="line" smooth="yes"/>
      <point x="162" y="390.111"/>
      <point x="205" y="438.333"/>
      <point x="291" y="438.333" type="curve" smooth="yes"/>
      <point x="375.323" y="438.333"/>
      <point x="417.667" y="389.971"/>
      <point x="417.667" y="293.667" type="curve" smooth="yes"/>
      <point x="417.667" y="237.667" type="line" smooth="yes"/>
      <point x="417.667" y="140.553"/>
      <point x="376.111" y="92"/>
    </contour>
    <contour>
      <point x="530.769" y="314" type="line"/>
      <point x="530.769" y="321.064" type="line" smooth="yes"/>
      <point x="530.769" y="401.529"/>
      <point x="581.155" y="441.333"/>
      <point x="659.333" y="441.333" type="curve" smooth="yes"/>
      <point x="741.086" y="441.333"/>
      <point x="786.333" y="398.979"/>
      <point x="786.333" y="322.333" type="curve" smooth="yes"/>
      <point x="786.333" y="314" type="line"/>
    </contour>
  </outline>
</glyph>
<glyph name="Rcommaaccent" format="2">
  <advance width="679"/>
  <unicode hex="0156"/>
  <outline>
    <contour>
      <point x="64.667" y="0" type="line"/>
      <point x="185.667" y="0" type="line"/>
      <point x="185.667" y="285.667" type="line"/>
      <point x="347.333" y="285.667" type="line"/>
      <point x="505" y="0" type="line"/>
      <point x="647" y="0" type="line"/>
      <point x="472" y="299.333" type="line"/>
      <point x="568.735" y="326.843"/>
      <point x="619" y="394.058"/>
      <point x="619" y="496" type="curve" smooth="yes"/>
      <point x="619" y="630.416"/>
      <point x="529.608" y="707"/>
      <point x="372.667" y="707" type="curve" smooth="yes"/>
      <point x="64.667" y="707" type="line"/>
    </contour>
    <contour>
      <point x="185.667" y="388.667" type="line"/>
      <point x="185.667" y="601.333" type="line"/>
      <point x="374" y="601.333" type="line" smooth="yes"/>
      <point x="456.613" y="601.333"/>
      <point x="499" y="565.543"/>
      <point x="499" y="496" type="curve"/>
      <point x="499.444" y="423.533"/>
      <point x="459.528" y="388.667"/>
      <point x="376" y="388.667" type="curve" smooth="yes"/>
    </contour>
    <contour>
      <point x="293" y="-173" type="line"/>
      <point x="387.333" y="-94.333" type="line"/>
      <point x="387.333" y="-30" type="line"/>
      <point x="293" y="-30" type="line"/>
    </contour>
  </outline>
</glyph>
<glyph name="rcommaaccent" format="2">
  <advance width="398"/>
  <unicode hex="0157"/>
  <outline>
    <contour>
      <point x="59.667" y="0" type="line"/>
      <point x="173.333" y="0" type="line"/>
      <point x="173.333" y="297.333" type="line" smooth="yes"/>
      <point x="173.333" y="386.301"/>
      <point x="223.679" y="439.333"/>
      <point x="308" y="439.333" type="curve"/>
      <point x="332.889" y="439.111"/>
      <point x="356.222" y="435.222"/>
      <point x="378" y="427.667" type="curve"/>
      <point x="378" y="536" type="line"/>
      <point x="364.889" y="538.444"/>
      <point x="349.111" y="539.667"/>
      <point x="330.667" y="539.667" type="curve" smooth="yes"/>
      <point x="261.425" y="539.667"/>
      <point x="205.927" y="513.723"/>
      <point x="171" y="465" type="curve"/>
      <point x="171" y="529.333" type="line"/>
      <point x="59.667" y="529.333" type="line"/>
    </contour>
    <contour>
      <point x="71" y="-173" type="line"/>
      <point x="165.333" y="-94.333" type="line"/>
      <point x="165.333" y="-30" type="line"/>
      <point x="71" y="-30" type="line"/>
    </contour>
  </outline>
</glyph>
<glyph name="tcaron" format="2">
  <advance width="405"/>
  <unicode hex="0165"/>
  <outline>
    <component base="t"/>
    <contour>
      <point x="293" y="562.333" type="line"/>
      <point x="387.333" y="641" type="line"/>
      <point x="387.333" y="769" type="line"/>
      <point x="293" y="769" type="line"/>
    </contour>
  </outline>
</glyph>
<glyph name="Tbar" format="2">
  <advance width="568"/>
  <unicode hex="0166"/>
  <outline>
    <component base="T"/>
    <contour>
      <point x="124" y="304" type="line"/>
      <point x="445.667" y="304" type="line"/>
      <point x="445.667" y="405.667" type="line"/>
      <point x="124" y="405.667" type="line"/>
    </contour>
  </outline>
</glyph>
<glyph name="tbar" format="2">
  <advance width="400"/>
  <unicode hex="0167"/>
  <outline>
    <component base="t"/>
    <contour>
      <point x="28" y="281.333" type="line"/>
      <point x="357" y="281.333" type="line"/>
      <point x="357" y="364.333" type="line"/>
      <point x="28" y="364.333" type="line"/>
    </contour>
  </outline>
</glyph>
<glyph name="longs" format="2">
  <advance width="322"/>
  <unicode hex="017F"/>
  <anchor x="152.333" y="770.667" name="top"/>
  <outline>
    <contour>
      <point x="59.667" y="0" type="line"/>
      <point x="172" y="0" type="line"/>
      <point x="172" y="448.333" type="line"/>
      <point x="292.333" y="448.333" type="line"/>
      <point x="292.333" y="529.333" type="line"/>
      <point x="172" y="529.333" type="line"/>
      <point x="172" y="560.667" type="line" smooth="yes"/>
      <point x="172" y="607.976"/>
      <point x="193.693" y="628"/>
      <point x="245" y="628" type="curve" smooth="yes"/>
      <point x="292.333" y="628" type="line"/>
      <point x="292.333" y="707" type="line"/>
      <point x="216" y="707" type="line" smooth="yes"/>
      <point x="113.255" y="707"/>
      <point x="59.667" y="655.371"/>
      <point x="59.667" y="556.333" type="curve" smooth="yes"/>
    </contour>
  </outline>
</glyph>
<glyph name="Schwa" format="2">
  <advance width="684"/>
  <unicode hex="018F"/>
  <outline>
    <contour>
      <point x="171" y="474.667" type="line"/>
      <point x="171" y="480" type="line" smooth="yes"/>
      <point x="171" y="559.565"/>
      <point x="233.592" y="610.334"/>
      <point x="332" y="610.334" type="curve" smooth="yes"/>
      <point x="453.41" y="610.334"/>
      <point x="512" y="544.358"/>
      <point x="512" y="407.667" type="curve" smooth="yes"/>
      <point x="512" y="307.334" type="line" smooth="yes"/>
      <point x="512" y="164.352"/>
      <point x="454.308" y="96.3337"/>
      <point x="333" y="96.3337" type="curve" smooth="yes"/>
      <point x="233.317" y="96.3337"/>
      <point x="171" y="166.038"/>
      <point x="171" y="256" type="curve" smooth="yes"/>
      <point x="171" y="379.72" type="line"/>
      <point x="50.6663" y="379.72" type="line"/>
      <point x="50.6663" y="266" type="line" smooth="yes"/>
      <point x="50.6663" y="94.1457"/>
      <point x="157.323" y="-10.3333"/>
      <point x="332.666" y="-10.3333" type="curve" smooth="yes"/>
      <point x="527.449" y="-10.3333"/>
      <point x="633.333" y="98.9517"/>
      <point x="633.333" y="300" type="curve" smooth="yes"/>
      <point x="633.333" y="408.667" type="line" smooth="yes"/>
      <point x="633.333" y="609.291"/>
      <point x="527.509" y="719"/>
      <point x="334" y="719" type="curve" smooth="yes"/>
      <point x="165.724" y="719"/>
      <point x="51.6663" y="622.491"/>
      <point x="51.6663" y="480.334" type="curve" smooth="yes"/>
      <point x="51.6663" y="474.667" type="line"/>
    </contour>
    <contour>
      <point x="78.4473" y="379.667" type="line"/>
      <point x="78.4473" y="274.334" type="line"/>
      <point x="585.246" y="274.334" type="line"/>
      <point x="585.246" y="379.667" type="line"/>
    </contour>
  </outline>
</glyph>
<glyph name="florin" format="2">
  <advance width="480"/>
  <unicode hex="0192"/>
  <outline>
    <contour>
      <point x="10" y="-159" type="line"/>
      <point x="68.333" y="-159" type="line" smooth="yes"/>
      <point x="185.308" y="-159"/>
      <point x="238.119" y="-109.647"/>
      <point x="257" y="17.333" type="curve" smooth="yes"/>
      <point x="303.333" y="329" type="line"/>
      <point x="445" y="329" type="line"/>
      <point x="445" y="430" type="line"/>
      <point x="318.667" y="430" type="line"/>
      <point x="333" y="523" type="line" smooth="yes"/>
      <point x="342.091" y="581.976"/>
      <point x="363.696" y="601.667"/>
      <point x="419.333" y="601.667" type="curve" smooth="yes"/>
      <point x="470" y="601.667" type="line"/>
      <point x="470" y="707" type="line"/>
      <point x="406" y="707" type="line" smooth="yes"/>
      <point x="291.979" y="707"/>
      <point x="238.318" y="656.89"/>
      <point x="219.333" y="532.667" type="curve" smooth="yes"/>
      <point x="203.667" y="430" type="line"/>
      <point x="88.333" y="430" type="line"/>
      <point x="88.333" y="329" type="line"/>
      <point x="188.333" y="329" type="line"/>
      <point x="144.333" y="29" type="line" smooth="yes"/>
      <point x="135.42" y="-31.773"/>
      <point x="112.882" y="-51.333"/>
      <point x="55.333" y="-51.333" type="curve" smooth="yes"/>
      <point x="10" y="-51.333" type="line"/>
    </contour>
  </outline>
</glyph>
<glyph name="lbar" format="2">
  <advance width="317"/>
  <unicode hex="019A"/>
  <outline>
    <component base="l"/>
    <contour>
      <point x="9" y="334.333" type="line"/>
      <point x="297" y="334.333" type="line"/>
      <point x="297" y="440.667" type="line"/>
      <point x="9" y="440.667" type="line"/>
    </contour>
  </outline>
</glyph>
<glyph name="Ocenteredtilde" format="2">
  <advance width="696"/>
  <unicode hex="019F"/>
  <outline>
    <component base="O"/>
    <contour>
      <point x="155.667" y="301" type="line"/>
      <point x="549" y="301" type="line"/>
      <point x="549" y="407.333" type="line"/>
      <point x="155.667" y="407.333" type="line"/>
    </contour>
  </outline>
</glyph>
<glyph name="kcaron" format="2">
  <advance width="584"/>
  <unicode hex="01E9"/>
  <outline>
    <contour>
      <point x="59.667" y="0" type="line"/>
      <point x="173.333" y="0" type="line"/>
      <point x="173.333" y="161.667" type="line"/>
      <point x="260.333" y="247.333" type="line"/>
      <point x="427.667" y="0" type="line"/>
      <point x="569.333" y="0" type="line"/>
      <point x="339.667" y="324.667" type="line"/>
      <point x="549.333" y="529.333" type="line"/>
      <point x="404.333" y="529.333" type="line"/>
      <point x="173.333" y="291" type="line"/>
      <point x="173.333" y="707" type="line"/>
      <point x="59.667" y="707" type="line"/>
    </contour>
    <contour>
      <point x="71.333" y="769.667" type="line"/>
      <point x="155.667" y="769.667" type="line"/>
      <point x="292.333" y="922" type="line"/>
      <point x="194.333" y="922" type="line"/>
      <point x="114" y="837.333" type="line"/>
      <point x="32.667" y="922" type="line"/>
      <point x="-65.333" y="922" type="line"/>
    </contour>
  </outline>
</glyph>
<glyph name="dotlessj" format="2">
  <advance width="262"/>
  <unicode hex="0237"/>
  <anchor x="131" y="596.667" name="top"/>
  <outline>
    <contour>
      <point x="-55" y="-157" type="line"/>
      <point x="13.667" y="-157" type="line" smooth="yes"/>
      <point x="126.122" y="-157"/>
      <point x="187.333" y="-98.873"/>
      <point x="187.333" y="8" type="curve" smooth="yes"/>
      <point x="187.333" y="524" type="line"/>
      <point x="75" y="524" type="line"/>
      <point x="75" y="16.667" type="line" smooth="yes"/>
      <point x="75" y="-35.777"/>
      <point x="55.514" y="-53.667"/>
      <point x="3.667" y="-53.667" type="curve" smooth="yes"/>
      <point x="-55" y="-53.667" type="line"/>
    </contour>
  </outline>
</glyph>
<glyph name="Lbar" format="2">
  <advance width="586"/>
  <unicode hex="023D"/>
  <outline>
    <component base="L"/>
    <contour>
      <point x="12.333" y="349" type="line"/>
      <point x="332.333" y="349" type="line"/>
      <point x="332.333" y="455.333" type="line"/>
      <point x="12.333" y="455.333" type="line"/>
    </contour>
  </outline>
</glyph>
<glyph name="obarred" format="2">
  <advance width="579"/>
  <unicode hex="0275"/>
  <outline>
    <component base="o"/>
    <contour>
      <point x="134.333" y="214.333" type="line"/>
      <point x="454.333" y="214.333" type="line"/>
      <point x="454.333" y="320.667" type="line"/>
      <point x="134.333" y="320.667" type="line"/>
    </contour>
  </outline>
</glyph>
<glyph name="apostrophemod" format="2">
  <unicode hex="02BC"/>
  <anchor x="53.667" y="707" name="_dot"/>
  <outline>
    <contour>
      <point x="-54" y="416.667" type="line"/>
      <point x="53.667" y="509.333" type="line"/>
      <point x="53.667" y="707" type="line"/>
      <point x="-54" y="707" type="line"/>
    </contour>
  </outline>
</glyph>
<glyph name="circumflex" format="2">
  <advance width="512"/>
  <unicode hex="02C6"/>
  <outline>
    <contour>
      <point x="76.667" y="587.667" type="line"/>
      <point x="175.333" y="587.667" type="line"/>
      <point x="256" y="673" type="line"/>
      <point x="336.333" y="587.667" type="line"/>
      <point x="434.333" y="587.667" type="line"/>
      <point x="297.667" y="740" type="line"/>
      <point x="213.333" y="740" type="line"/>
    </contour>
  </outline>
</glyph>
<glyph name="caron" format="2">
  <advance width="512"/>
  <unicode hex="02C7"/>
  <outline>
    <contour>
      <point x="214" y="582.667" type="line"/>
      <point x="298.333" y="582.667" type="line"/>
      <point x="435" y="735" type="line"/>
      <point x="337" y="735" type="line"/>
      <point x="256.667" y="650.333" type="line"/>
      <point x="175.333" y="735" type="line"/>
      <point x="77.333" y="735" type="line"/>
    </contour>
  </outline>
</glyph>
<glyph name="breve" format="2">
  <advance width="512"/>
  <unicode hex="02D8"/>
  <outline>
    <contour>
      <point x="90" y="753.667" type="line"/>
      <point x="90" y="733.667" type="line" smooth="yes"/>
      <point x="90" y="634.658"/>
      <point x="147.769" y="581.667"/>
      <point x="255.667" y="581.667" type="curve" smooth="yes"/>
      <point x="363.565" y="581.667"/>
      <point x="421.333" y="634.658"/>
      <point x="421.333" y="733.667" type="curve" smooth="yes"/>
      <point x="421.333" y="753.667" type="line"/>
      <point x="335.667" y="753.667" type="line"/>
      <point x="335.667" y="733.667" type="line" smooth="yes"/>
      <point x="335.667" y="677.159"/>
      <point x="309.486" y="649.667"/>
      <point x="255.667" y="649.667" type="curve" smooth="yes"/>
      <point x="201.848" y="649.667"/>
      <point x="175.667" y="677.159"/>
      <point x="175.667" y="733.667" type="curve" smooth="yes"/>
      <point x="175.667" y="753.667" type="line"/>
    </contour>
  </outline>
</glyph>
<glyph name="ring" format="2">
  <advance width="512"/>
  <unicode hex="02DA"/>
  <outline>
    <contour>
      <point x="151.667" y="688.667" type="curve" smooth="yes"/>
      <point x="151.667" y="630.181"/>
      <point x="195.607" y="586.667"/>
      <point x="254.667" y="586.667" type="curve" smooth="yes"/>
      <point x="312.889" y="586.667"/>
      <point x="356.667" y="630.444"/>
      <point x="356.667" y="688.667" type="curve" smooth="yes"/>
      <point x="356.667" y="748.126"/>
      <point x="312.983" y="792.667"/>
      <point x="254.667" y="792.667" type="curve" smooth="yes"/>
      <point x="195.842" y="792.667"/>
      <point x="151.667" y="748.063"/>
    </contour>
    <contour>
      <point x="254.667" y="638.667" type="curve" smooth="yes"/>
      <point x="227.029" y="638.667"/>
      <point x="206" y="660.288"/>
      <point x="206" y="688.667" type="curve" smooth="yes"/>
      <point x="206" y="718.32"/>
      <point x="226.554" y="740"/>
      <point x="254.667" y="740" type="curve" smooth="yes"/>
      <point x="282.658" y="740"/>
      <point x="303.667" y="717.991"/>
      <point x="303.667" y="688.667" type="curve" smooth="yes"/>
      <point x="303.667" y="660.47"/>
      <point x="282.3" y="638.667"/>
    </contour>
  </outline>
</glyph>
<glyph name="ogonek" format="2">
  <advance width="388"/>
  <unicode hex="02DB"/>
  <outline>
    <contour>
      <point x="60" y="-56" type="line"/>
      <point x="97.155" y="-158.964"/>
      <point x="189.954" y="-217.667"/>
      <point x="328" y="-217.667" type="curve"/>
      <point x="328" y="-109.333" type="line"/>
      <point x="266.872" y="-109.333"/>
      <point x="223.757" y="-97.926"/>
      <point x="192" y="-70.667" type="curve"/>
      <point x="328" y="-0.667" type="line"/>
      <point x="328" y="16.667" type="line"/>
      <point x="228" y="16.667" type="line"/>
    </contour>
  </outline>
</glyph>
<glyph name="tilde" format="2">
  <advance width="512"/>
  <unicode hex="02DC"/>
  <outline>
    <contour>
      <point x="96.333" y="593.667" type="line"/>
      <point x="137.422" y="625.897"/>
      <point x="153.308" y="633.333"/>
      <point x="181.333" y="633.333" type="curve" smooth="yes"/>
      <point x="236.399" y="633.333"/>
      <point x="258.706" y="594.333"/>
      <point x="324.667" y="594.333" type="curve" smooth="yes"/>
      <point x="359.07" y="594.333"/>
      <point x="385.041" y="606.137"/>
      <point x="414.667" y="635.333" type="curve"/>
      <point x="414.667" y="722.333" type="line"/>
      <point x="374.028" y="689.578"/>
      <point x="358.333" y="682"/>
      <point x="331" y="682" type="curve" smooth="yes"/>
      <point x="275.828" y="682"/>
      <point x="253.391" y="721"/>
      <point x="187" y="721" type="curve" smooth="yes"/>
      <point x="153.735" y="721"/>
      <point x="127.927" y="709.338"/>
      <point x="96.333" y="680" type="curve"/>
    </contour>
  </outline>
</glyph>
<glyph name="hungarumlaut" format="2">
  <advance width="512"/>
  <unicode hex="02DD"/>
  <outline>
    <contour>
      <point x="279" y="598.333" type="line"/>
      <point x="379.333" y="598.333" type="line"/>
      <point x="519.333" y="732.667" type="line"/>
      <point x="390" y="732.667" type="line"/>
    </contour>
    <contour>
      <point x="96" y="598.333" type="line"/>
      <point x="196.333" y="598.333" type="line"/>
      <point x="336.333" y="732.667" type="line"/>
      <point x="207" y="732.667" type="line"/>
    </contour>
  </outline>
</glyph>
<glyph name="uni0300" format="2">
  <unicode hex="0300"/>
  <anchor x="0" y="596.667" name="_top"/>
  <outline>
    <contour>
      <point x="-33.333" y="596.667" type="line"/>
      <point x="74.667" y="596.667" type="line"/>
      <point x="-54.667" y="731" type="line"/>
      <point x="-202.667" y="731" type="line"/>
    </contour>
  </outline>
</glyph>
<glyph name="uni0301" format="2">
  <unicode hex="0301"/>
  <anchor x="0" y="596.667" name="_top"/>
  <outline>
    <contour>
      <point x="-84.167" y="596.667" type="line"/>
      <point x="16.167" y="596.667" type="line"/>
      <point x="156.167" y="731" type="line"/>
      <point x="26.833" y="731" type="line"/>
    </contour>
  </outline>
</glyph>
<glyph name="uni0302" format="2">
  <unicode hex="0302"/>
  <anchor x="0" y="596.667" name="_top"/>
  <outline>
    <contour>
      <point x="-178.833" y="587.667" type="line"/>
      <point x="-80.167" y="587.667" type="line"/>
      <point x="0.5" y="673" type="line"/>
      <point x="80.833" y="587.667" type="line"/>
      <point x="178.833" y="587.667" type="line"/>
      <point x="42.167" y="740" type="line"/>
      <point x="-42.167" y="740" type="line"/>
    </contour>
  </outline>
</glyph>
<glyph name="uni0303" format="2">
  <unicode hex="0303"/>
  <anchor x="0" y="596.667" name="_top"/>
  <outline>
    <contour>
      <point x="-159.167" y="593.667" type="line"/>
      <point x="-118.078" y="625.897"/>
      <point x="-102.192" y="633.333"/>
      <point x="-74.167" y="633.333" type="curve" smooth="yes"/>
      <point x="-19.101" y="633.333"/>
      <point x="3.206" y="594.333"/>
      <point x="69.167" y="594.333" type="curve" smooth="yes"/>
      <point x="103.57" y="594.333"/>
      <point x="129.541" y="606.137"/>
      <point x="159.167" y="635.333" type="curve"/>
      <point x="159.167" y="722.333" type="line"/>
      <point x="118.528" y="689.578"/>
      <point x="102.833" y="682"/>
      <point x="75.5" y="682" type="curve" smooth="yes"/>
      <point x="20.328" y="682"/>
      <point x="-2.109" y="721"/>
      <point x="-68.5" y="721" type="curve" smooth="yes"/>
      <point x="-101.765" y="721"/>
      <point x="-127.573" y="709.338"/>
      <point x="-159.167" y="680" type="curve"/>
    </contour>
  </outline>
</glyph>
<glyph name="uni0307" format="2">
  <unicode hex="0307"/>
  <anchor x="0" y="596.667" name="_top"/>
  <outline>
    <contour>
      <point x="-58.667" y="607.333" type="line"/>
      <point x="58.667" y="607.333" type="line"/>
      <point x="58.667" y="707" type="line"/>
      <point x="-58.667" y="707" type="line"/>
    </contour>
  </outline>
</glyph>
<glyph name="uni0308" format="2">
  <unicode hex="0308"/>
  <anchor x="0" y="596.667" name="_top"/>
  <outline>
    <contour>
      <point x="-165.833" y="596" type="line"/>
      <point x="-63.5" y="596" type="line"/>
      <point x="-63.5" y="707.667" type="line"/>
      <point x="-165.833" y="707.667" type="line"/>
    </contour>
    <contour>
      <point x="63.833" y="596" type="line"/>
      <point x="165.833" y="596" type="line"/>
      <point x="165.833" y="707.667" type="line"/>
      <point x="63.833" y="707.667" type="line"/>
    </contour>
  </outline>
</glyph>
<glyph name="uni030A" format="2">
  <unicode hex="030A"/>
  <anchor x="0" y="586.667" name="_t.ring"/>
  <outline>
    <contour>
      <point x="-102.5" y="688.667" type="curve" smooth="yes"/>
      <point x="-102.5" y="630.181"/>
      <point x="-58.56" y="586.667"/>
      <point x="0.5" y="586.667" type="curve" smooth="yes"/>
      <point x="58.722" y="586.667"/>
      <point x="102.5" y="630.444"/>
      <point x="102.5" y="688.667" type="curve" smooth="yes"/>
      <point x="102.5" y="748.126"/>
      <point x="58.816" y="792.667"/>
      <point x="0.5" y="792.667" type="curve" smooth="yes"/>
      <point x="-58.325" y="792.667"/>
      <point x="-102.5" y="748.063"/>
    </contour>
    <contour>
      <point x="0.5" y="638.667" type="curve" smooth="yes"/>
      <point x="-27.137" y="638.667"/>
      <point x="-48.167" y="660.288"/>
      <point x="-48.167" y="688.667" type="curve" smooth="yes"/>
      <point x="-48.167" y="718.32"/>
      <point x="-27.613" y="740"/>
      <point x="0.5" y="740" type="curve" smooth="yes"/>
      <point x="28.492" y="740"/>
      <point x="49.5" y="717.991"/>
      <point x="49.5" y="688.667" type="curve" smooth="yes"/>
      <point x="49.5" y="660.47"/>
      <point x="28.133" y="638.667"/>
    </contour>
  </outline>
</glyph>
<glyph name="uni030B" format="2">
  <unicode hex="030B"/>
  <anchor x="0" y="598" name="_top"/>
  <outline>
    <contour>
      <point x="-148" y="598.333" type="line"/>
      <point x="-47.667" y="598.333" type="line"/>
      <point x="92.333" y="732.667" type="line"/>
      <point x="-37" y="732.667" type="line"/>
    </contour>
    <contour>
      <point x="35" y="598.333" type="line"/>
      <point x="135.333" y="598.333" type="line"/>
      <point x="275.333" y="732.667" type="line"/>
      <point x="146" y="732.667" type="line"/>
    </contour>
  </outline>
</glyph>
<glyph name="uni030C" format="2">
  <unicode hex="030C"/>
  <anchor x="0" y="596.667" name="_top"/>
  <outline>
    <contour>
      <point x="-42.167" y="582.667" type="line"/>
      <point x="42.167" y="582.667" type="line"/>
      <point x="178.833" y="735" type="line"/>
      <point x="80.833" y="735" type="line"/>
      <point x="0.5" y="650.333" type="line"/>
      <point x="-80.833" y="735" type="line"/>
      <point x="-178.833" y="735" type="line"/>
    </contour>
  </outline>
</glyph>
<glyph name="uni030F" format="2">
  <unicode hex="030F"/>
  <anchor x="0" y="596.333" name="_top"/>
  <outline>
    <contour>
      <point x="-115.329" y="596.667" type="line"/>
      <point x="-7.3292" y="596.667" type="line"/>
      <point x="-136.663" y="731" type="line"/>
      <point x="-284.663" y="731" type="line"/>
    </contour>
    <contour>
      <point x="36.5876" y="640.333" type="line"/>
      <point x="165.922" y="596.667" type="line"/>
      <point x="103.922" y="687.333" type="line"/>
      <point x="-45.4124" y="731" type="line"/>
    </contour>
  </outline>
</glyph>
<glyph name="uni0312" format="2">
  <unicode hex="0312"/>
  <outline>
    <contour>
      <point x="-85" y="596.667" type="line"/>
      <point x="52.667" y="596.667" type="line"/>
      <point x="173" y="731" type="line"/>
      <point x="69" y="731" type="line"/>
    </contour>
  </outline>
</glyph>
<glyph name="uni0323" format="2">
  <unicode hex="0323"/>
  <anchor x="0" y="-86" name="_bottom"/>
  <anchor x="0" y="-136" name="_dot"/>
  <outline>
    <contour>
      <point x="-56" y="-185.667" type="line"/>
      <point x="61.333" y="-185.667" type="line"/>
      <point x="61.333" y="-86" type="line"/>
      <point x="-56" y="-86" type="line"/>
    </contour>
  </outline>
</glyph>
<glyph name="uni0326" format="2">
  <unicode hex="0326"/>
  <anchor x="0" y="-30" name="_bottom"/>
  <outline>
    <contour>
      <point x="-47" y="-173" type="line"/>
      <point x="47.333" y="-94.333" type="line"/>
      <point x="47.333" y="-30" type="line"/>
      <point x="-47" y="-30" type="line"/>
    </contour>
  </outline>
</glyph>
<glyph name="alpha" format="2">
  <advance width="721"/>
  <unicode hex="03B1"/>
  <outline>
    <contour>
      <point x="675.667" y="112" type="line"/>
      <point x="603.13" y="114.222"/>
      <point x="568.333" y="154.02"/>
      <point x="568.333" y="232" type="curve" smooth="yes"/>
      <point x="568.333" y="297.333" type="line" smooth="yes"/>
      <point x="568.333" y="375.752"/>
      <point x="602.896" y="415"/>
      <point x="675.667" y="416.333" type="curve"/>
      <point x="675.667" y="511" type="line"/>
      <point x="600.181" y="511"/>
      <point x="545.039" y="488.851"/>
      <point x="504.333" y="445" type="curve"/>
      <point x="467.159" y="503.1"/>
      <point x="391.959" y="536.667"/>
      <point x="299" y="536.667" type="curve" smooth="yes"/>
      <point x="141.801" y="536.667"/>
      <point x="54.333" y="453.295"/>
      <point x="54.333" y="303.667" type="curve" smooth="yes"/>
      <point x="54.333" y="226.333" type="line" smooth="yes"/>
      <point x="54.333" y="75.844"/>
      <point x="141.792" y="-8"/>
      <point x="299" y="-8" type="curve" smooth="yes"/>
      <point x="392.185" y="-8"/>
      <point x="462.755" y="23.702"/>
      <point x="504.333" y="84.333" type="curve"/>
      <point x="535.502" y="43.824"/>
      <point x="601.634" y="17.667"/>
      <point x="675.667" y="17.667" type="curve"/>
    </contour>
    <contour>
      <point x="299" y="88" type="curve"/>
      <point x="210.695" y="88.889"/>
      <point x="167" y="135.375"/>
      <point x="167" y="228.333" type="curve" smooth="yes"/>
      <point x="167" y="301" type="line" smooth="yes"/>
      <point x="167" y="394.529"/>
      <point x="210.327" y="440.333"/>
      <point x="299" y="440.333" type="curve" smooth="yes"/>
      <point x="385.369" y="440.333"/>
      <point x="427.333" y="394.687"/>
      <point x="427.333" y="301" type="curve" smooth="yes"/>
      <point x="427.333" y="228.333" type="line" smooth="yes"/>
      <point x="427.333" y="135.249"/>
      <point x="384.979" y="88.889"/>
    </contour>
  </outline>
</glyph>
<glyph name="Djecyr" format="2">
  <advance width="790"/>
  <unicode hex="0402"/>
  <anchor x="284" y="-86" name="bottom"/>
  <anchor x="254" y="770.667" name="top"/>
  <anchor x="246.333" y="0" name="b.cedilla"/>
  <outline>
    <contour>
      <point x="224" y="0" type="line"/>
      <point x="344" y="0" type="line"/>
      <point x="344" y="601.333" type="line"/>
      <point x="561.333" y="601.333" type="line"/>
      <point x="561.333" y="707" type="line"/>
      <point x="6.333" y="707" type="line"/>
      <point x="6.333" y="601.333" type="line"/>
      <point x="224" y="601.333" type="line"/>
    </contour>
    <contour>
      <point x="440.983" y="0" type="line"/>
      <point x="490.667" y="0" type="line" smooth="yes"/>
      <point x="650.123" y="0"/>
      <point x="739.667" y="78.643"/>
      <point x="739.667" y="218.667" type="curve" smooth="yes"/>
      <point x="739.667" y="355.982"/>
      <point x="648.225" y="433.667"/>
      <point x="486.667" y="433.667" type="curve" smooth="yes"/>
      <point x="285.487" y="433.667" type="line"/>
      <point x="285.487" y="327.333" type="line"/>
      <point x="494.667" y="327.333" type="line" smooth="yes"/>
      <point x="578.983" y="327.333"/>
      <point x="619" y="292.233"/>
      <point x="619" y="218.333" type="curve" smooth="yes"/>
      <point x="619" y="142.451"/>
      <point x="577.842" y="105.975"/>
      <point x="492.667" y="105.785" type="curve"/>
      <point x="440.983" y="105.688" type="line"/>
    </contour>
  </outline>
</glyph>
<glyph name="Eukrcyr" format="2">
  <advance width="691"/>
  <unicode hex="0404"/>
  <anchor x="359" y="770.667" name="top"/>
  <outline>
    <contour>
      <point x="520.333" y="234" type="line"/>
      <point x="520.333" y="228.667" type="line" smooth="yes"/>
      <point x="520.333" y="145.966"/>
      <point x="461.534" y="98.333"/>
      <point x="359.333" y="98.333" type="curve" smooth="yes"/>
      <point x="237.923" y="98.333"/>
      <point x="179.333" y="164.309"/>
      <point x="179.333" y="301" type="curve" smooth="yes"/>
      <point x="179.333" y="401.333" type="line" smooth="yes"/>
      <point x="179.333" y="544.315"/>
      <point x="237.025" y="612.333"/>
      <point x="358.333" y="612.333" type="curve" smooth="yes"/>
      <point x="460.108" y="612.333"/>
      <point x="520.333" y="562.836"/>
      <point x="520.333" y="479.333" type="curve" smooth="yes"/>
      <point x="520.333" y="475.333" type="line"/>
      <point x="640.667" y="475.333" type="line"/>
      <point x="640.667" y="482.667" type="line" smooth="yes"/>
      <point x="640.667" y="628.904"/>
      <point x="533.17" y="719"/>
      <point x="358.667" y="719" type="curve" smooth="yes"/>
      <point x="163.884" y="719"/>
      <point x="58" y="609.715"/>
      <point x="58" y="408.667" type="curve" smooth="yes"/>
      <point x="58" y="300" type="line" smooth="yes"/>
      <point x="58" y="99.376"/>
      <point x="163.824" y="-10.333"/>
      <point x="357.333" y="-10.333" type="curve" smooth="yes"/>
      <point x="533.103" y="-10.333"/>
      <point x="639.667" y="79.734"/>
      <point x="639.667" y="228.333" type="curve" smooth="yes"/>
      <point x="639.667" y="234" type="line"/>
    </contour>
    <contour>
      <point x="440.861" y="305.667" type="line"/>
      <point x="106.087" y="305.667" type="line"/>
      <point x="106.087" y="411" type="line"/>
      <point x="440.861" y="411" type="line"/>
    </contour>
  </outline>
</glyph>
<glyph name="Ljecyr" format="2">
  <advance width="1046"/>
  <unicode hex="0409"/>
  <outline>
    <component base="Elcyr"/>
    <contour>
      <point x="542.154" y="0" type="line"/>
      <point x="747.334" y="0" type="line" smooth="yes"/>
      <point x="906.79" y="0"/>
      <point x="996.334" y="78.643"/>
      <point x="996.334" y="218.667" type="curve" smooth="yes"/>
      <point x="996.334" y="355.982"/>
      <point x="904.892" y="433.667"/>
      <point x="743.334" y="433.667" type="curve" smooth="yes"/>
      <point x="542.154" y="433.667" type="line"/>
      <point x="542.154" y="327.333" type="line"/>
      <point x="751.334" y="327.333" type="line" smooth="yes"/>
      <point x="835.65" y="327.333"/>
      <point x="875.667" y="292.233"/>
      <point x="875.667" y="218.333" type="curve" smooth="yes"/>
      <point x="875.667" y="142.451"/>
      <point x="834.509" y="105.624"/>
      <point x="749.334" y="105.667" type="curve" smooth="yes"/>
      <point x="542.154" y="105.807" type="line"/>
    </contour>
  </outline>
</glyph>
<glyph name="Njecyr" format="2">
  <advance width="1076"/>
  <unicode hex="040A"/>
  <outline>
    <component base="H"/>
    <contour>
      <point x="572.154" y="0" type="line"/>
      <point x="777.334" y="0" type="line" smooth="yes"/>
      <point x="936.79" y="0"/>
      <point x="1026.33" y="78.643"/>
      <point x="1026.33" y="218.667" type="curve" smooth="yes"/>
      <point x="1026.33" y="355.982"/>
      <point x="934.892" y="433.667"/>
      <point x="773.334" y="433.667" type="curve" smooth="yes"/>
      <point x="572.154" y="433.667" type="line"/>
      <point x="572.154" y="327.333" type="line"/>
      <point x="781.334" y="327.333" type="line" smooth="yes"/>
      <point x="865.65" y="327.333"/>
      <point x="905.667" y="292.233"/>
      <point x="905.667" y="218.333" type="curve" smooth="yes"/>
      <point x="905.667" y="142.451"/>
      <point x="864.509" y="105.624"/>
      <point x="779.334" y="105.667" type="curve" smooth="yes"/>
      <point x="572.154" y="105.807" type="line"/>
    </contour>
  </outline>
</glyph>
